<?xml version="1.0" standalone="no"?>
<!DOCTYPE svg PUBLIC "-//W3C//DTD SVG 20010904//EN"
 "http://www.w3.org/TR/2001/REC-SVG-20010904/DTD/svg10.dtd">
<svg version="1.0" xmlns="http://www.w3.org/2000/svg"
 width="486.000000pt" height="853.000000pt" viewBox="0 0 486.000000 853.000000"
 preserveAspectRatio="xMidYMid meet">
<metadata>
Created by potrace 1.16, written by Peter Selinger 2001-2019
</metadata>
<g transform="translate(0.000000,853.000000) scale(0.100000,-0.100000)"
fill="#000000" stroke="none">
<path d="M2859 5755 c-56 -14 -97 -34 -259 -125 -47 -26 -121 -68 -165 -92
l-80 -44 -7 -154 c-8 -189 -2 -290 19 -290 8 0 96 46 196 102 280 158 308 171
369 171 55 0 89 -12 173 -61 140 -81 366 -212 410 -239 61 -36 78 -66 65 -115
-9 -31 -24 -44 -110 -97 -55 -33 -102 -61 -105 -61 -2 0 -158 -91 -347 -202
-189 -110 -372 -218 -408 -238 -36 -20 -104 -60 -152 -90 l-88 -53 0 -69 c0
-83 8 -94 124 -157 72 -40 84 -44 155 -45 86 -1 76 -5 356 159 77 45 298 174
490 285 193 111 383 223 423 247 137 85 195 182 196 328 1 181 -79 296 -279
396 -16 9 -93 53 -170 99 -77 45 -205 121 -285 168 -80 47 -165 98 -190 113
-111 68 -227 91 -331 64z"/>
<path d="M1935 5297 c-169 -87 -239 -149 -274 -241 -21 -58 -22 -60 -19 -730
l3 -671 26 -50 c40 -74 84 -113 205 -181 60 -34 182 -103 272 -154 128 -73
169 -91 190 -87 15 3 106 52 202 109 126 75 176 110 178 125 3 22 17 14 -343
218 -209 119 -220 126 -244 170 -14 27 -17 109 -21 795 -4 669 -7 765 -20 767
-8 2 -78 -30 -155 -70z"/>
</g>
</svg>
