<?xml version="1.0" standalone="no"?>
<!DOCTYPE svg PUBLIC "-//W3C//DTD SVG 20010904//EN"
 "http://www.w3.org/TR/2001/REC-SVG-20010904/DTD/svg10.dtd">
<svg version="1.0" xmlns="http://www.w3.org/2000/svg"
 width="1944.000000pt" height="3412.000000pt" viewBox="0 0 1944.000000 3412.000000"
 preserveAspectRatio="xMidYMid meet">
<metadata>
Created by potrace 1.16, written by Peter Selinger 2001-2019
</metadata>
<g transform="translate(0.000000,3412.000000) scale(0.100000,-0.100000)"
fill="#000000" stroke="none">
<path d="M11710 23089 c-155 -10 -346 -50 -445 -94 -16 -7 -41 -16 -55 -20
-14 -4 -63 -27 -108 -51 -46 -24 -88 -44 -93 -44 -5 0 -45 -21 -89 -47 -44
-27 -92 -55 -107 -63 -16 -9 -68 -38 -118 -65 -49 -27 -102 -56 -117 -65 -15
-8 -58 -31 -95 -52 -37 -20 -87 -47 -110 -60 -231 -130 -386 -216 -423 -235
-25 -13 -63 -34 -85 -47 -54 -32 -330 -185 -389 -216 -26 -14 -61 -40 -79 -58
l-32 -33 0 -867 0 -866 34 -23 c54 -36 103 -30 186 23 39 24 104 62 145 84 41
22 82 44 90 49 8 6 110 63 225 129 195 111 296 166 420 230 58 30 253 138 275
153 8 5 29 16 47 24 17 8 51 27 75 42 24 16 52 34 63 41 11 7 40 22 65 33 25
12 52 27 60 34 25 20 320 170 390 198 93 37 255 61 360 53 157 -11 288 -55
443 -151 110 -68 182 -110 214 -124 31 -14 143 -79 238 -137 44 -28 116 -70
160 -94 44 -24 112 -62 151 -86 39 -23 87 -50 105 -58 19 -9 68 -37 109 -62
64 -40 134 -81 370 -217 19 -11 55 -31 80 -45 38 -21 192 -112 319 -189 20
-12 47 -28 61 -35 14 -7 29 -18 33 -25 4 -7 16 -13 25 -13 24 0 101 -55 133
-93 15 -18 39 -62 54 -97 24 -57 27 -74 22 -140 -3 -49 -13 -93 -29 -126 -28
-60 -84 -134 -102 -134 -7 0 -21 -9 -31 -20 -10 -11 -22 -20 -28 -20 -5 0 -37
-17 -71 -37 -70 -43 -91 -55 -178 -101 -35 -19 -70 -40 -78 -47 -8 -7 -37 -25
-65 -40 -27 -14 -72 -39 -100 -55 -27 -16 -63 -36 -80 -45 -16 -9 -46 -26 -66
-38 -20 -12 -65 -39 -100 -60 -35 -21 -71 -42 -79 -47 -8 -5 -64 -37 -125 -71
-60 -34 -121 -70 -135 -79 -14 -10 -74 -46 -135 -80 -60 -35 -148 -86 -194
-114 -47 -27 -101 -58 -120 -69 -20 -10 -52 -28 -72 -40 -20 -12 -63 -37 -95
-56 -33 -19 -70 -42 -84 -52 -14 -9 -92 -56 -175 -104 -82 -48 -172 -100 -200
-117 -27 -17 -93 -53 -145 -81 -52 -27 -113 -62 -135 -76 -38 -26 -209 -128
-267 -161 -97 -54 -268 -153 -353 -205 -55 -34 -107 -64 -115 -68 -8 -4 -35
-20 -60 -36 -25 -16 -72 -44 -105 -61 -93 -48 -137 -74 -196 -110 -30 -19 -74
-45 -99 -58 -25 -14 -52 -31 -61 -38 -8 -8 -19 -14 -22 -14 -7 0 -63 -32 -152
-85 -19 -11 -78 -46 -132 -78 -136 -81 -132 -78 -188 -113 -27 -17 -62 -37
-77 -45 -15 -8 -72 -40 -127 -71 -56 -32 -105 -58 -109 -58 -18 0 -134 -99
-160 -136 l-27 -39 0 -230 0 -230 42 -75 c51 -91 95 -125 328 -257 475 -270
469 -268 810 -268 171 0 223 3 280 18 65 17 210 83 245 111 8 7 26 18 40 24
14 7 41 22 61 35 67 42 219 127 227 127 4 0 30 15 57 33 28 17 66 40 85 50 19
10 62 34 95 54 33 19 69 41 80 47 38 21 370 218 420 249 28 17 74 44 103 61
29 17 70 41 90 53 20 13 48 27 61 33 13 6 67 36 120 67 53 32 110 65 126 74
83 45 124 69 170 97 28 17 82 49 120 72 39 22 77 45 85 50 8 6 65 37 125 71
61 34 157 89 215 124 58 34 150 88 205 120 55 32 154 91 220 130 66 40 144 85
173 101 198 109 515 292 553 320 18 13 36 24 41 24 4 0 34 17 65 37 61 40 144
86 228 128 28 14 70 39 95 55 25 16 55 34 67 39 11 5 24 15 28 21 3 6 27 22
53 36 26 14 65 36 87 49 43 26 92 54 140 80 17 8 46 26 67 38 20 12 65 39 100
60 74 45 307 190 364 228 85 56 196 174 331 348 28 35 136 248 158 311 67 187
88 333 81 580 -3 107 -9 220 -14 250 -13 73 -57 240 -84 315 -40 116 -65 161
-183 337 -53 79 -226 267 -247 268 -3 0 -21 12 -39 28 -35 29 -87 63 -134 87
-16 8 -61 35 -100 59 -38 25 -103 64 -143 88 -41 24 -81 48 -90 53 -10 6 -35
21 -57 33 -22 12 -53 31 -70 42 -16 11 -48 29 -70 41 -96 50 -123 65 -150 87
-15 12 -33 22 -40 22 -7 0 -30 13 -51 28 -21 16 -135 84 -253 151 -118 68
-248 145 -290 171 -42 26 -116 70 -166 99 -49 29 -97 56 -105 61 -8 5 -60 35
-115 66 -55 32 -147 85 -205 120 -58 34 -159 93 -225 132 -66 38 -202 118
-303 178 -212 127 -234 139 -287 169 -22 12 -92 53 -155 90 -229 136 -435 249
-490 270 -19 7 -66 25 -105 40 -167 63 -407 97 -605 84z"/>
<path d="M8244 21468 c-32 -17 -98 -52 -146 -77 -108 -57 -220 -117 -273 -147
-22 -12 -89 -48 -150 -79 -99 -50 -191 -100 -395 -210 -95 -52 -162 -94 -190
-120 -14 -12 -30 -24 -37 -26 -29 -10 -180 -169 -258 -274 -66 -88 -195 -339
-195 -380 0 -8 -8 -41 -19 -72 -10 -32 -26 -105 -35 -163 -15 -96 -16 -325
-16 -2554 0 -2572 -1 -2509 41 -2671 5 -22 14 -58 20 -80 29 -117 116 -290
204 -406 118 -157 231 -260 371 -339 24 -14 81 -46 125 -72 45 -27 85 -48 89
-48 4 0 13 -6 19 -14 7 -8 23 -17 37 -20 14 -4 44 -19 67 -33 23 -15 67 -40
97 -56 30 -16 66 -37 80 -45 29 -19 72 -44 115 -67 17 -9 48 -27 70 -40 43
-26 56 -33 210 -115 55 -29 107 -58 115 -65 14 -11 158 -94 190 -109 8 -4 33
-18 55 -31 22 -14 51 -30 65 -37 14 -6 32 -17 40 -24 8 -6 47 -28 85 -49 39
-20 130 -71 203 -114 164 -94 223 -128 242 -137 8 -5 41 -23 73 -41 56 -31 64
-33 165 -34 100 0 111 2 172 31 77 36 104 52 127 72 16 14 45 32 151 95 21 12
64 36 97 53 33 18 63 37 66 42 6 10 21 19 89 56 31 16 261 148 300 172 105 62
181 107 205 120 45 24 78 44 95 56 8 7 38 24 65 38 117 63 200 123 223 162 41
71 15 147 -64 189 -103 53 -260 139 -264 145 -3 3 -29 19 -59 34 -30 15 -66
36 -80 45 -37 24 -58 36 -131 75 -36 19 -85 46 -110 60 -25 14 -63 35 -85 46
-22 11 -58 31 -80 44 -22 14 -53 32 -70 41 -16 8 -39 21 -50 28 -11 7 -55 32
-99 57 -43 25 -93 54 -112 65 -79 47 -164 96 -239 135 -44 23 -87 48 -96 56
-8 8 -19 14 -24 14 -7 0 -145 80 -305 177 -41 25 -97 57 -125 72 -271 146
-350 238 -428 496 l-21 70 -3 2960 c-1 1628 -5 2979 -8 3002 -5 34 -11 44 -39
57 -51 24 -96 20 -162 -16z"/>
<path d="M15820 17431 c-54 -19 -145 -63 -184 -90 -23 -16 -59 -38 -81 -50
-22 -12 -47 -25 -55 -30 -18 -11 -112 -65 -176 -101 -36 -20 -155 -90 -364
-215 -14 -8 -36 -20 -50 -25 -14 -6 -41 -21 -62 -33 -20 -12 -67 -40 -105 -61
-37 -21 -79 -47 -93 -56 -14 -10 -59 -34 -100 -55 -98 -50 -140 -89 -140 -131
0 -51 39 -86 180 -163 107 -60 144 -86 213 -156 91 -90 120 -133 161 -237 42
-105 59 -207 59 -359 0 -130 -2 -140 -37 -245 -75 -218 -150 -311 -351 -434
-44 -27 -98 -58 -120 -70 -22 -11 -57 -30 -77 -43 -101 -60 -249 -148 -301
-178 -32 -19 -75 -44 -95 -56 -20 -12 -55 -31 -77 -42 -22 -12 -60 -34 -85
-51 -25 -16 -65 -41 -90 -55 -25 -14 -88 -52 -140 -84 -52 -33 -160 -96 -240
-142 -80 -45 -158 -93 -175 -107 -16 -14 -48 -33 -70 -43 -22 -11 -62 -32 -90
-49 -27 -16 -72 -42 -98 -57 -91 -52 -102 -59 -147 -88 -25 -16 -56 -35 -70
-42 -14 -7 -47 -26 -75 -42 -27 -16 -70 -41 -95 -55 -25 -14 -63 -37 -85 -51
-22 -14 -51 -30 -65 -37 -14 -6 -32 -17 -40 -24 -8 -6 -51 -30 -95 -54 -44
-23 -99 -55 -123 -71 -24 -16 -46 -29 -49 -29 -3 0 -45 -25 -93 -55 -48 -30
-91 -55 -96 -55 -5 0 -34 -17 -65 -39 -31 -21 -67 -42 -80 -46 -13 -4 -36 -16
-51 -26 -14 -11 -29 -19 -32 -19 -3 0 -38 -21 -78 -47 -40 -25 -91 -56 -113
-68 -84 -46 -167 -95 -218 -129 -30 -20 -60 -36 -67 -36 -6 0 -25 -10 -40 -22
-31 -25 -47 -35 -220 -134 -63 -37 -128 -75 -145 -85 -16 -11 -43 -26 -60 -34
-16 -9 -52 -28 -80 -45 -27 -16 -67 -38 -87 -49 -20 -11 -58 -35 -84 -53 -47
-32 -126 -79 -282 -168 -107 -60 -137 -123 -92 -194 14 -23 47 -46 117 -82 54
-27 111 -58 128 -69 16 -11 43 -26 59 -33 16 -7 52 -27 80 -45 83 -52 148 -90
281 -162 33 -17 83 -45 110 -62 105 -61 285 -143 351 -158 38 -9 92 -22 119
-30 107 -30 465 -48 518 -26 16 6 48 11 73 11 25 0 61 7 81 15 19 8 47 15 62
15 15 0 35 6 46 14 11 7 36 17 55 21 19 4 85 28 145 52 105 42 175 80 330 179
39 24 111 67 160 94 50 28 126 73 170 100 44 27 96 57 115 68 19 10 95 54 168
98 72 43 147 87 165 97 17 10 52 31 77 46 25 16 81 48 125 72 44 23 116 65
160 92 44 28 109 66 145 85 36 18 74 41 85 51 11 9 31 23 45 29 14 7 48 25 75
42 28 16 70 41 95 55 58 33 73 42 141 86 31 20 67 40 80 44 13 4 35 15 49 25
72 49 107 70 115 70 4 0 22 11 39 23 17 13 60 40 96 61 36 20 85 50 110 66 25
16 81 49 125 75 44 25 100 59 125 75 25 17 56 36 70 42 14 7 39 22 55 32 17
11 53 34 80 51 28 18 107 65 176 104 70 39 132 78 139 86 7 8 20 15 30 15 9 0
25 9 35 20 10 11 21 20 26 20 4 0 51 27 106 60 54 33 102 60 107 60 4 0 55 36
111 81 113 88 209 184 251 251 16 24 38 54 50 68 12 14 28 37 35 51 8 15 24
44 35 65 43 77 84 165 84 177 0 6 9 26 20 42 11 17 20 46 20 65 0 19 8 58 17
85 16 45 18 135 21 968 3 799 1 925 -12 965 -8 26 -20 77 -27 115 -8 48 -30
105 -79 202 -78 154 -89 170 -188 271 -102 103 -145 136 -240 183 -72 37 -92
43 -165 46 -45 3 -93 1 -107 -4z"/>
</g>
</svg>
