<?xml version="1.0" standalone="no"?>
<!DOCTYPE svg PUBLIC "-//W3C//DTD SVG 20010904//EN"
 "http://www.w3.org/TR/2001/REC-SVG-20010904/DTD/svg10.dtd">
<svg version="1.0" xmlns="http://www.w3.org/2000/svg"
 width="1280.000000pt" height="853.000000pt" viewBox="0 0 1280.000000 853.000000"
 preserveAspectRatio="xMidYMid meet">
<metadata>
Created by potrace 1.16, written by Peter Selinger 2001-2019
</metadata>
<g transform="translate(0.000000,853.000000) scale(0.100000,-0.100000)"
fill="#000000" stroke="none">
<path d="M2859 5755 c-56 -14 -97 -34 -259 -125 -47 -26 -121 -68 -165 -92
l-80 -44 -7 -154 c-8 -189 -2 -290 19 -290 8 0 96 46 196 102 280 158 308 171
369 171 55 0 89 -12 173 -61 140 -81 366 -212 410 -239 61 -36 78 -66 65 -115
-9 -31 -24 -44 -110 -97 -55 -33 -102 -61 -105 -61 -2 0 -158 -91 -347 -202
-189 -110 -372 -218 -408 -238 -36 -20 -104 -60 -152 -90 l-88 -53 0 -69 c0
-83 8 -94 124 -157 72 -40 84 -44 155 -45 86 -1 76 -5 356 159 77 45 298 174
490 285 193 111 383 223 423 247 137 85 195 182 196 328 1 181 -79 296 -279
396 -16 9 -93 53 -170 99 -77 45 -205 121 -285 168 -80 47 -165 98 -190 113
-111 68 -227 91 -331 64z"/>
<path d="M1935 5297 c-169 -87 -239 -149 -274 -241 -21 -58 -22 -60 -19 -730
l3 -671 26 -50 c40 -74 84 -113 205 -181 60 -34 182 -103 272 -154 128 -73
169 -91 190 -87 15 3 106 52 202 109 126 75 176 110 178 125 3 22 17 14 -343
218 -209 119 -220 126 -244 170 -14 27 -17 109 -21 795 -4 669 -7 765 -20 767
-8 2 -78 -30 -155 -70z"/>
<path d="M4923 5062 c-10 -6 -13 -169 -13 -736 0 -400 2 -731 5 -737 4 -5 202
-9 505 -9 445 0 499 2 504 16 3 9 6 67 6 129 0 92 -3 117 -16 130 -15 15 -50
16 -308 15 -160 -1 -301 -1 -313 -1 l-23 1 -2 598 -3 597 -165 2 c-91 2 -171
-1 -177 -5z"/>
<path d="M8142 5058 c-17 -17 -17 -1453 -1 -1464 16 -9 695 -9 788 1 155 16
286 85 358 190 34 49 63 149 63 214 0 159 -57 266 -183 343 l-47 30 55 60 c75
84 98 147 93 255 -10 191 -138 328 -347 367 -107 21 -759 24 -779 4z m718
-280 c60 -31 90 -77 90 -140 0 -75 -23 -113 -84 -143 -51 -25 -57 -25 -227
-23 l-174 3 -2 150 c-2 83 -1 156 2 163 3 9 48 12 178 12 159 0 176 -2 217
-22z m67 -589 c57 -28 86 -69 91 -135 6 -75 -24 -135 -86 -172 -46 -27 -49
-27 -253 -29 -156 -2 -208 1 -211 10 -7 19 -9 327 -3 337 4 6 92 10 212 10
189 0 210 -2 250 -21z"/>
<path d="M6455 4655 c-228 -48 -391 -207 -441 -431 -42 -191 29 -404 175 -521
63 -50 170 -104 246 -122 69 -17 257 -15 330 4 86 22 193 76 245 122 l45 40
-60 68 c-33 37 -72 82 -87 99 l-26 31 -29 -27 c-15 -15 -55 -39 -88 -55 -53
-24 -71 -28 -155 -27 -106 1 -146 13 -205 66 -30 26 -75 93 -75 112 0 3 172 7
383 8 l382 3 3 75 c4 106 -13 193 -58 285 -102 212 -341 322 -585 270z m226
-273 c51 -25 97 -78 105 -122 l7 -30 -227 0 c-213 0 -226 1 -226 18 0 25 50
93 86 117 74 48 176 55 255 17z"/>
<path d="M7594 4650 c-153 -40 -270 -130 -330 -254 -51 -106 -55 -139 -52
-491 l3 -320 153 -3 c116 -2 154 0 157 10 3 7 6 146 8 308 3 322 6 341 65 403
54 58 97 72 212 73 l105 0 7 120 c9 148 7 160 -33 168 -64 12 -223 5 -295 -14z"/>
<path d="M9997 4653 c18 -2 50 -2 70 0 21 2 7 4 -32 4 -38 0 -55 -2 -38 -4z"/>
<path d="M9884 4639 c-3 -5 -16 -9 -30 -9 -14 0 -22 -4 -19 -10 3 -5 0 -7 -9
-4 -8 3 -25 0 -38 -7 -13 -7 -25 -13 -29 -12 -8 2 -90 -64 -90 -74 -1 -4 -3
-10 -6 -13 -4 -3 -3 1 1 8 13 22 -10 13 -37 -16 -15 -16 -24 -32 -20 -36 5 -4
1 -6 -7 -4 -16 3 -17 -12 -5 -47 6 -16 5 -17 -4 -5 -7 10 -11 11 -11 3 0 -7
-5 -13 -11 -13 -8 0 -7 5 1 15 7 9 11 18 8 21 -10 10 -67 -88 -90 -154 -18
-54 -23 -89 -23 -176 0 -79 3 -110 13 -113 6 -3 12 -21 12 -40 0 -39 12 -39
14 -1 1 14 8 24 21 26 13 2 16 0 8 -5 -8 -6 -9 -14 -3 -23 14 -21 12 -30 -4
-24 -7 3 -16 -2 -20 -11 -7 -19 17 -58 29 -47 5 4 5 1 1 -5 -11 -19 4 -39 16
-22 6 10 7 6 3 -10 -6 -20 4 -34 65 -93 51 -49 78 -68 91 -65 11 3 22 1 25 -4
3 -5 -1 -9 -8 -9 -7 -1 -2 -7 12 -14 16 -10 32 -11 48 -5 34 13 41 10 12 -5
-24 -14 -23 -14 35 -31 33 -9 65 -18 70 -19 6 -2 19 0 30 5 16 6 14 8 -12 8
-34 1 -51 15 -32 27 6 3 39 8 73 10 33 2 68 4 76 5 8 1 31 -2 50 -6 28 -5 32
-4 20 5 -12 9 -10 10 13 6 15 -4 27 -2 27 3 0 5 -14 11 -32 13 -17 2 -33 8
-35 14 -3 8 23 14 77 19 75 7 97 16 68 29 -7 3 -2 5 12 5 64 -3 66 -1 40 26
-19 20 -33 25 -72 25 -45 0 -48 -2 -48 -25 0 -22 -4 -25 -39 -25 -22 0 -43 -4
-46 -10 -3 -5 -22 -10 -41 -10 -32 0 -34 -2 -34 -35 0 -32 -3 -35 -27 -34 -17
1 -21 3 -10 6 22 6 24 63 2 63 -8 0 -15 5 -15 10 0 6 11 10 25 10 14 0 25 5
25 10 0 14 17 12 32 -3 23 -26 48 -8 48 34 0 33 -3 39 -22 41 -13 1 -30 2 -38
4 -8 1 -22 3 -30 4 -9 1 -4 6 10 11 22 8 21 8 -8 4 -18 -3 -31 -1 -27 4 3 5
-9 12 -27 16 -33 7 -92 46 -115 75 -8 9 -12 10 -13 3 0 -6 13 -21 30 -33 19
-13 27 -26 23 -37 -5 -12 -1 -14 18 -8 13 4 21 4 17 0 -17 -17 -73 -13 -95 8
-26 23 -30 42 -8 34 20 -8 13 48 -15 126 -15 43 -20 77 -18 127 2 37 6 66 10
64 4 -2 9 4 13 15 15 48 68 103 123 129 59 27 164 36 207 17 18 -8 18 -7 7 8
-9 10 -33 17 -70 20 l-57 3 58 2 c63 2 102 -12 93 -33 -2 -7 1 -16 8 -18 18
-7 9 38 -11 54 -8 8 -48 12 -101 12 l-87 0 65 7 c56 6 59 7 21 8 -52 2 -51 10
2 14 36 2 37 3 37 40 0 33 3 38 24 38 13 0 27 7 30 16 4 10 13 13 26 9 12 -4
27 -2 34 4 7 6 22 12 34 14 12 2 25 6 28 10 4 4 19 4 33 1 22 -4 19 -1 -13 20
-45 29 -113 43 -128 28 -8 -8 -2 -13 18 -17 16 -4 38 -10 49 -15 16 -7 13 -9
-17 -9 -21 -1 -38 4 -38 9 0 20 -42 9 -66 -17 l-24 -26 -23 20 c-12 11 -28 18
-34 16 -7 -3 -13 2 -13 11 0 12 11 16 43 17 l42 1 -55 10 c-82 14 -140 16
-146 7z m109 -16 c-7 -2 -19 -2 -25 0 -7 3 -2 5 12 5 14 0 19 -2 13 -5z m204
1 c-3 -3 -12 -4 -19 -1 -8 3 -5 6 6 6 11 1 17 -2 13 -5z m-442 -64 c3 -6 -1
-7 -9 -4 -18 7 -21 14 -7 14 6 0 13 -4 16 -10z m-20 -20 c-3 -5 -12 -10 -18
-10 -7 0 -6 4 3 10 19 12 23 12 15 0z m242 -96 c-3 -3 -12 -4 -19 -1 -8 3 -5
6 6 6 11 1 17 -2 13 -5z m-412 -64 c3 -5 1 -10 -4 -10 -6 0 -11 5 -11 10 0 6
2 10 4 10 3 0 8 -4 11 -10z m335 -14 c0 -9 -30 -14 -35 -6 -4 6 3 10 14 10 12
0 21 -2 21 -4z m-119 -113 c-12 -20 -14 -14 -5 12 4 9 9 14 11 11 3 -2 0 -13
-6 -23z m3 -279 c3 -8 2 -12 -4 -9 -6 3 -10 10 -10 16 0 14 7 11 14 -7z m-13
-67 c-10 -9 -11 -8 -5 6 3 10 9 15 12 12 3 -3 0 -11 -7 -18z m166 -63 c-3 -3
-12 -4 -19 -1 -8 3 -5 6 6 6 11 1 17 -2 13 -5z m24 -26 c10 -7 6 -8 -13 -5
-22 3 -28 0 -28 -14 0 -12 -7 -19 -20 -19 -11 0 -20 7 -20 15 0 8 6 15 13 15
8 0 8 3 -2 9 -10 6 -3 9 21 9 19 0 41 -4 49 -10z m-359 -22 c7 4 8 2 4 -5 -9
-14 -36 3 -36 23 0 6 5 3 11 -7 6 -9 15 -14 21 -11z m62 -11 c11 -8 16 -15 10
-15 -5 0 -18 7 -28 15 -11 8 -16 15 -10 15 5 0 18 -7 28 -15z m363 -11 c-3 -3
-12 -4 -19 -1 -8 3 -5 6 6 6 11 1 17 -2 13 -5z m-375 -34 c8 -21 7 -23 -4 -10
-7 8 -20 21 -28 28 -13 12 -13 13 4 10 10 -1 23 -14 28 -28z m58 -45 c7 -8 8
-15 2 -15 -5 0 -15 7 -22 15 -7 8 -8 15 -2 15 5 0 15 -7 22 -15z m135 5 c3 -5
19 -10 36 -10 16 0 29 -4 29 -10 0 -13 -17 -12 -62 3 -46 16 -58 27 -30 27 11
0 24 -4 27 -10z m-90 -11 c11 -17 -1 -21 -15 -4 -8 9 -8 15 -2 15 6 0 14 -5
17 -11z m10 -39 c3 -6 -1 -7 -9 -4 -18 7 -21 14 -7 14 6 0 13 -4 16 -10z m70
-20 c-3 -5 -1 -10 6 -10 7 0 10 -2 8 -5 -3 -2 -16 -1 -29 2 -22 6 -23 7 -4 14
26 10 26 10 19 -1z"/>
<path d="M10360 4540 c-9 -6 -10 -10 -3 -10 6 0 15 5 18 10 8 12 4 12 -15 0z"/>
<path d="M10404 4483 c2 -19 9 -27 25 -28 31 -2 35 11 11 35 -27 27 -39 25
-36 -7z m39 -7 c3 -6 -3 -12 -12 -12 -9 0 -17 8 -17 17 0 18 22 15 29 -5z"/>
<path d="M10160 4465 c0 -11 11 -15 40 -15 29 0 40 4 40 15 0 11 -11 15 -40
15 -29 0 -40 -4 -40 -15z"/>
<path d="M10098 4443 c7 -3 16 -2 19 1 4 3 -2 6 -13 5 -11 0 -14 -3 -6 -6z"/>
<path d="M10180 4346 c0 -2 8 -10 18 -17 15 -13 16 -12 3 4 -13 16 -21 21 -21
13z"/>
<path d="M10534 4319 c-1 -17 2 -25 6 -19 5 8 10 2 14 -15 4 -15 9 -25 12 -23
4 5 -15 69 -25 80 -3 4 -6 -7 -7 -23z"/>
<path d="M10511 4324 c0 -11 3 -14 6 -6 3 7 2 16 -1 19 -3 4 -6 -2 -5 -13z"/>
<path d="M10265 4279 c-4 -6 -5 -12 -2 -15 2 -3 7 2 10 11 7 17 1 20 -8 4z"/>
<path d="M10296 4274 c-4 -9 -4 -19 -1 -22 3 -3 5 0 5 7 0 7 4 9 10 6 6 -3 7
1 4 9 -8 20 -10 20 -18 0z"/>
<path d="M10301 4205 c1 -19 18 -51 18 -35 0 8 -4 22 -9 30 -5 8 -9 11 -9 5z"/>
<path d="M10581 4184 c0 -11 3 -14 6 -6 3 7 2 16 -1 19 -3 4 -6 -2 -5 -13z"/>
<path d="M10593 4110 c0 -30 2 -43 4 -27 2 15 2 39 0 55 -2 15 -4 2 -4 -28z"/>
<path d="M10302 4125 c0 -16 2 -22 5 -12 2 9 2 23 0 30 -3 6 -5 -1 -5 -18z"/>
<path d="M10572 4060 c0 -14 2 -19 5 -12 2 6 2 18 0 25 -3 6 -5 1 -5 -13z"/>
<path d="M10297 4053 c-3 -5 1 -21 9 -38 11 -24 12 -25 7 -5 -3 14 -6 31 -6
38 0 14 -4 15 -10 5z"/>
<path d="M10276 3995 c-3 -8 0 -14 7 -12 7 1 11 -7 9 -18 -2 -16 -1 -17 7 -6
6 10 6 21 0 33 -12 22 -15 22 -23 3z"/>
<path d="M10256 3955 c-9 -26 -7 -32 5 -12 6 10 9 21 6 23 -2 3 -7 -2 -11 -11z"/>
<path d="M10508 3963 c7 -3 16 -2 19 1 4 3 -2 6 -13 5 -11 0 -14 -3 -6 -6z"/>
<path d="M10553 3935 c-8 -9 -9 -16 -3 -20 6 -3 13 1 16 10 9 21 2 26 -13 10z"/>
<path d="M10209 3904 c-13 -14 -37 -32 -54 -40 l-30 -13 30 6 c17 3 33 12 38
19 4 7 14 11 21 8 8 -3 17 -1 21 5 4 7 -1 8 -12 4 -17 -6 -17 -5 1 15 27 31
15 27 -15 -4z"/>
<path d="M10072 3842 c-22 -7 -22 -7 7 -20 26 -11 34 -11 58 3 15 9 19 13 8
10 -11 -4 -29 -10 -40 -12 l-20 -5 20 15 c22 18 10 21 -33 9z"/>
<path d="M10220 3825 c-8 -9 -8 -15 -2 -15 12 0 26 19 19 26 -2 2 -10 -2 -17
-11z"/>
<path d="M10479 3818 c-3 -11 -5 -48 -3 -48 11 0 23 40 14 45 -5 3 -10 5 -11
3z"/>
<path d="M10323 3716 c0 -8 6 -12 14 -9 7 3 13 9 13 14 0 5 -6 9 -13 9 -8 0
-14 -6 -14 -14z"/>
<path d="M10345 3694 l-30 -26 28 17 c16 9 36 14 44 11 13 -5 14 -4 3 9 -15
18 -9 20 -45 -11z"/>
<path d="M10232 3644 c-12 -13 -10 -14 15 -9 26 5 25 5 -6 -10 -18 -8 -41 -15
-50 -16 -11 0 -12 -2 -3 -6 8 -3 34 3 58 12 37 14 43 20 33 31 -15 18 -30 17
-47 -2z"/>
<path d="M10310 3650 c-9 -6 -10 -10 -3 -10 6 0 15 5 18 10 8 12 4 12 -15 0z"/>
<path d="M10026 3614 c-9 -9 -29 -20 -44 -24 -20 -6 -7 -8 46 -7 55 1 71 4 68
14 -3 7 2 13 12 14 11 1 8 4 -8 9 -39 13 -57 11 -74 -6z"/>
<path d="M9913 3613 c9 -2 25 -2 35 0 9 3 1 5 -18 5 -19 0 -27 -2 -17 -5z"/>
<path d="M10128 3593 c6 -2 18 -2 25 0 6 3 1 5 -13 5 -14 0 -19 -2 -12 -5z"/>
</g>
</svg>
