<?xml version="1.0" standalone="no"?>
<!DOCTYPE svg PUBLIC "-//W3C//DTD SVG 20010904//EN"
 "http://www.w3.org/TR/2001/REC-SVG-20010904/DTD/svg10.dtd">
<svg version="1.0" xmlns="http://www.w3.org/2000/svg"
 width="5120.000000pt" height="3412.000000pt" viewBox="0 0 5120.000000 3412.000000"
 preserveAspectRatio="xMidYMid meet">
<metadata>
Created by potrace 1.16, written by Peter Selinger 2001-2019
</metadata>
<g transform="translate(0.000000,3412.000000) scale(0.100000,-0.100000)"
fill="#000000" stroke="none">
<path d="M12083 23053 c9 -2 25 -2 35 0 9 3 1 5 -18 5 -19 0 -27 -2 -17 -5z"/>
<path d="M10935 22835 c-22 -14 -36 -25 -31 -25 10 0 76 40 76 46 0 6 -2 5
-45 -21z"/>
<path d="M16023 20816 c20 -20 37 -40 37 -45 0 -4 15 -18 33 -31 26 -20 23
-14 -17 30 -26 30 -58 61 -70 69 -11 8 -4 -2 17 -23z"/>
<path d="M10493 20730 c-29 -17 -53 -33 -53 -36 0 -5 88 43 105 58 17 15 0 8
-52 -22z"/>
<path d="M9363 20665 c0 -27 2 -38 4 -22 2 15 2 37 0 50 -2 12 -4 0 -4 -28z"/>
<path d="M35243 20283 c15 -2 37 -2 50 0 12 2 0 4 -28 4 -27 0 -38 -2 -22 -4z"/>
<path d="M16447 20015 c11 -80 22 -113 16 -50 -3 33 -9 67 -14 75 -5 9 -6 -1
-2 -25z"/>
<path d="M14221 19973 c14 -16 35 -41 47 -57 12 -16 22 -24 22 -19 0 15 -71
103 -83 103 -6 0 1 -12 14 -27z"/>
<path d="M32514 19875 c0 -49 1 -71 3 -48 2 23 2 64 0 90 -2 26 -3 8 -3 -42z"/>
<path d="M16483 19710 c0 -25 2 -35 4 -22 2 12 2 32 0 45 -2 12 -4 2 -4 -23z"/>
<path d="M32515 17955 c0 -979 1 -1378 2 -887 2 492 2 1293 0 1780 -1 488 -2
86 -2 -893z"/>
<path d="M14246 19502 c-22 -27 -24 -32 -7 -17 20 17 47 55 39 55 -2 0 -16
-17 -32 -38z"/>
<path d="M36872 19470 c8 -14 30 -54 47 -89 18 -34 35 -61 37 -58 6 6 -71 146
-89 162 -6 6 -4 -1 5 -15z"/>
<path d="M33886 19174 c-14 -13 -16 -46 -14 -222 l2 -207 6 207 c3 113 7 209
10 212 3 3 17 9 30 15 24 9 24 10 3 10 -12 1 -29 -6 -37 -15z"/>
<path d="M34668 19183 c57 -2 147 -2 200 0 53 1 7 3 -103 3 -110 0 -154 -2
-97 -3z"/>
<path d="M35088 19173 c23 -2 61 -2 85 0 23 2 4 4 -43 4 -47 0 -66 -2 -42 -4z"/>
<path d="M16238 18843 c-15 -18 -46 -73 -35 -63 9 8 57 80 53 80 -1 0 -10 -8
-18 -17z"/>
<path d="M37093 18720 c0 -36 2 -50 4 -32 2 17 2 47 0 65 -2 17 -4 3 -4 -33z"/>
<path d="M16065 18628 l-50 -53 53 50 c28 27 52 51 52 52 0 8 -9 -1 -55 -49z"/>
<path d="M40055 18663 c-293 -13 -561 -59 -700 -119 -77 -33 -263 -104 -271
-104 -6 0 -25 -11 -44 -25 -20 -15 -28 -25 -18 -25 8 0 21 7 28 15 7 8 20 15
29 15 9 0 34 10 56 22 22 12 82 36 133 54 52 17 99 37 105 43 6 6 28 11 49 11
21 0 55 9 75 20 21 11 55 20 77 20 22 0 65 6 95 14 153 40 690 47 811 11 30
-9 89 -20 130 -25 106 -12 216 -37 261 -60 21 -11 47 -20 57 -20 11 0 25 -6
31 -14 6 -7 24 -16 39 -19 15 -3 57 -20 95 -36 48 -23 67 -36 67 -50 0 -22 19
-31 64 -31 21 0 53 -13 90 -37 85 -57 68 -85 -20 -32 -17 10 -62 26 -100 35
-38 8 -73 22 -77 30 -10 17 -66 18 -87 1 -8 -7 -20 -21 -26 -32 -6 -11 -21
-21 -33 -23 -15 -3 -21 -10 -21 -30 0 -43 -11 -50 -90 -61 -109 -15 -140 -22
-140 -32 0 -5 -9 -9 -20 -9 -11 0 -20 -4 -20 -10 0 -5 -7 -10 -15 -10 -8 0
-15 -7 -15 -15 0 -8 -4 -15 -10 -15 -5 0 -10 -8 -10 -17 0 -16 -13 -18 -141
-17 l-141 1 4 -104 c4 -79 2 -103 -8 -103 -7 0 -14 -12 -16 -27 -3 -27 -5 -28
-83 -36 -44 -4 -114 -8 -157 -8 -84 -2 -111 -10 -91 -30 9 -9 60 -13 162 -14
124 -2 153 -5 166 -19 9 -9 21 -16 26 -16 6 0 31 -9 56 -21 25 -11 61 -20 81
-19 56 3 57 2 75 -34 11 -24 25 -36 46 -41 29 -6 31 -10 31 -51 0 -27 5 -44
12 -44 6 0 2 -10 -10 -23 -29 -31 -28 -33 12 -47 19 -6 40 -17 46 -25 7 -8 27
-17 46 -21 19 -3 34 -10 34 -16 0 -12 91 -102 118 -117 12 -6 22 -20 22 -30 0
-12 10 -21 25 -25 14 -4 25 -13 25 -21 0 -8 9 -19 20 -25 11 -6 22 -21 26 -34
4 -16 15 -26 32 -29 34 -7 42 -1 42 29 0 29 25 33 33 4 3 -13 -2 -25 -15 -34
-17 -12 -19 -21 -13 -54 3 -22 15 -48 26 -58 10 -9 19 -22 19 -29 0 -6 6 -17
13 -23 6 -7 17 -34 22 -60 9 -40 13 -47 35 -47 29 0 40 -36 19 -61 -6 -8 -14
-45 -17 -83 -4 -63 -3 -70 17 -80 19 -11 21 -20 21 -123 0 -104 -7 -170 -30
-275 -7 -31 -6 -48 5 -70 15 -28 20 -85 9 -96 -15 -14 -35 9 -49 57 -17 57
-12 152 11 198 21 41 19 286 -2 316 -8 12 -19 47 -24 79 -5 31 -15 61 -21 67
-8 8 -10 6 -5 -9 18 -61 36 -202 36 -285 0 -138 -15 -243 -49 -347 -33 -100
-94 -237 -110 -247 -5 -4 -20 -27 -32 -52 -26 -52 -215 -237 -275 -270 -22
-12 -64 -35 -94 -52 -71 -38 -208 -87 -286 -101 -33 -6 -123 -11 -200 -11
-124 0 -172 4 -294 24 l-35 6 35 -16 c19 -9 59 -18 90 -21 30 -3 67 -12 82
-19 15 -8 38 -14 53 -14 32 0 32 -18 -1 -30 -40 -16 -86 -12 -128 11 -25 13
-52 19 -79 17 -52 -4 -51 -20 0 -32 21 -5 49 -17 63 -26 30 -21 84 -31 161
-30 31 1 86 -6 123 -14 37 -9 78 -16 90 -16 13 0 45 -10 71 -21 52 -23 124
-27 135 -8 10 15 73 4 93 -15 7 -8 48 -17 90 -21 73 -7 77 -6 77 13 0 13 8 21
27 25 36 7 53 -1 53 -24 0 -12 7 -19 20 -19 11 0 20 7 20 15 0 22 56 48 78 36
14 -8 13 -10 -11 -16 -18 -5 -27 -14 -27 -27 0 -16 5 -19 21 -15 19 5 20 3 14
-31 -4 -20 -13 -41 -21 -45 -8 -4 -14 -15 -14 -22 0 -12 14 -15 60 -15 53 0
60 -2 60 -20 0 -13 7 -20 20 -20 13 0 20 -7 20 -19 0 -15 10 -20 60 -25 33 -4
60 -11 60 -15 0 -5 34 -11 76 -13 78 -5 125 -27 132 -62 5 -26 -74 -23 -88 4
-12 23 -45 27 -57 6 -6 -10 -39 -16 -114 -21 -104 -7 -107 -7 -114 14 -4 14
-12 20 -21 17 -8 -3 -14 1 -14 10 0 8 -6 17 -14 20 -8 3 -17 23 -21 44 -5 31
-10 37 -26 33 -10 -3 -19 0 -19 6 0 6 -9 11 -20 11 -16 0 -20 7 -20 35 0 28
-4 35 -20 35 -13 0 -20 -7 -20 -20 0 -13 -7 -20 -20 -20 -11 0 -20 -6 -20 -13
0 -12 -84 -37 -124 -37 -20 0 -46 23 -46 40 0 8 -8 10 -22 6 -13 -3 -80 -6
-150 -6 -107 0 -128 -2 -128 -15 0 -8 -4 -15 -10 -15 -5 0 -10 -9 -10 -20 0
-11 -4 -20 -10 -20 -5 0 -10 -7 -10 -15 0 -9 -9 -15 -25 -15 -14 0 -25 5 -25
10 0 6 -9 10 -20 10 -13 0 -20 -7 -20 -20 0 -13 -7 -20 -20 -20 -15 0 -20 7
-20 25 0 23 -4 25 -40 25 -33 0 -40 3 -40 20 0 16 -7 20 -34 20 -31 0 -34 -3
-40 -35 l-7 -35 -82 0 c-45 0 -106 -3 -134 -6 -52 -7 -53 -7 -53 -40 0 -32 2
-34 35 -34 19 0 35 -4 35 -10 0 -6 27 -10 60 -10 47 0 60 -3 60 -15 0 -11 11
-15 40 -15 28 0 40 4 40 14 0 12 29 16 148 20 291 12 372 17 372 26 0 5 94 8
217 7 185 -2 220 -4 234 -18 22 -22 30 -60 22 -99 l-6 -32 -51 7 c-28 5 -134
10 -236 11 -102 2 -220 6 -262 10 -92 8 -104 0 -109 -69 -4 -46 -4 -46 33 -55
22 -6 38 -6 38 -1 0 5 9 9 20 9 11 0 20 -4 20 -9 0 -6 35 -10 78 -10 43 0 86
-3 95 -7 22 -8 22 -34 1 -34 -17 0 -68 -26 -96 -49 -14 -11 -39 -13 -108 -8
-50 3 -92 2 -95 -3 -3 -5 -1 -19 5 -31 9 -16 17 -19 38 -14 15 4 29 11 30 16
5 12 53 11 72 -1 22 -14 8 -20 -66 -31 -75 -11 -93 -21 -76 -42 25 -30 85 -40
172 -28 46 6 109 11 142 11 32 0 58 3 58 8 0 14 40 32 107 46 123 26 207 76
127 76 -33 0 -64 17 -64 35 0 10 15 15 53 17 47 3 52 5 56 28 1 14 6 27 10 30
4 3 13 25 19 50 l11 45 -3 -47 c-3 -46 -2 -47 28 -53 17 -4 50 -14 73 -22 30
-11 46 -13 55 -5 7 6 36 15 63 21 108 22 139 37 195 91 30 29 67 57 83 62 15
6 27 16 27 23 0 24 -101 -12 -130 -46 -28 -33 -60 -39 -60 -11 0 25 19 42 48
42 17 0 27 8 35 31 8 21 20 32 40 36 15 3 30 10 33 14 10 17 31 9 42 -16 20
-43 27 -39 162 90 14 13 37 28 53 34 23 9 27 16 27 51 0 34 4 41 24 46 14 3
29 3 35 0 6 -4 17 7 26 24 8 16 20 30 25 30 5 0 16 15 24 34 8 18 19 37 25 40
16 10 13 53 -4 60 -8 3 -15 10 -15 16 0 5 7 10 15 10 8 0 15 -7 15 -15 0 -19
17 -19 53 -1 15 8 27 10 27 5 0 -21 -30 -79 -40 -79 -6 0 -16 -12 -23 -28 -17
-39 -69 -102 -85 -102 -7 0 -20 -16 -28 -35 -9 -22 -23 -37 -38 -41 -13 -3
-29 -18 -35 -32 -7 -15 -27 -37 -46 -50 -19 -12 -35 -26 -35 -31 0 -5 -17 -20
-37 -32 -21 -13 -49 -34 -63 -47 -49 -47 -123 -100 -174 -125 -29 -14 -59 -33
-66 -42 -7 -8 -18 -15 -24 -15 -7 0 -27 -11 -46 -25 -19 -14 -43 -25 -53 -25
-11 0 -35 -11 -53 -25 -19 -14 -51 -32 -71 -40 -21 -7 -71 -28 -112 -44 -40
-17 -81 -31 -91 -31 -10 0 -37 -9 -61 -20 -24 -11 -66 -20 -92 -20 -31 0 -57
-7 -75 -20 -21 -15 -51 -21 -142 -26 -63 -4 -126 -11 -139 -16 -13 -5 -84 -14
-156 -20 -142 -12 -310 -2 -433 26 -44 10 -83 12 -130 6 -37 -4 -57 -8 -46 -9
12 0 38 -8 57 -16 27 -11 99 -17 284 -21 268 -7 438 3 623 37 147 27 335 75
356 91 6 5 33 15 60 23 130 39 477 239 629 361 70 57 325 310 325 322 0 5 22
38 48 73 26 36 63 91 82 124 18 33 52 92 76 130 60 98 90 167 136 313 78 251
99 377 105 625 4 166 -14 404 -36 472 -5 17 -21 80 -35 141 -50 213 -236 588
-388 777 -19 23 -41 53 -50 67 -54 83 -341 344 -463 420 -48 30 -110 70 -137
87 -46 30 -206 111 -308 155 -89 39 -306 97 -475 128 -96 18 -346 42 -389 38
-12 -1 -48 -3 -81 -5z m1413 -443 c24 -16 48 -30 54 -32 21 -7 -1 -38 -26 -38
-16 0 -27 -7 -31 -21 -5 -15 -14 -19 -33 -17 -36 4 -35 32 1 36 31 4 38 39 10
49 -23 8 -53 34 -53 45 0 17 36 7 78 -22z m-445 -19 c17 -1 18 -7 12 -53 -8
-54 -17 -68 -47 -68 -13 0 -18 8 -18 31 0 17 -5 39 -11 50 -15 28 -5 47 23 44
13 -1 31 -3 41 -4z m348 -11 c5 0 9 -7 9 -15 0 -17 -45 -21 -55 -5 -9 15 5 32
22 26 8 -3 19 -6 24 -6z m231 -71 c38 -38 26 -56 -20 -28 -31 20 -40 38 -25
52 10 11 12 9 45 -24z m123 -114 c33 -31 71 -66 84 -78 13 -12 48 -52 78 -88
49 -61 66 -99 44 -99 -5 0 -16 -3 -25 -6 -11 -4 -16 0 -16 13 0 16 -5 19 -30
15 -33 -5 -42 13 -10 21 19 5 28 36 14 50 -11 11 -35 -5 -45 -29 -6 -16 -16
-24 -33 -24 -15 0 -25 -7 -29 -20 -3 -14 -14 -20 -31 -20 -21 0 -26 5 -26 24
0 15 7 26 20 29 11 3 20 12 20 21 0 9 -8 16 -20 16 -11 0 -20 -7 -20 -15 0 -8
-9 -15 -20 -15 -23 0 -26 15 -6 27 8 4 15 17 17 28 6 29 55 33 62 6 3 -13 13
-21 26 -21 26 0 27 24 3 42 -9 7 -25 25 -35 41 -10 15 -26 27 -37 27 -13 0
-20 -8 -22 -27 -2 -20 -9 -29 -25 -31 -12 -2 -25 -12 -28 -23 -4 -11 -14 -19
-23 -17 -26 5 -25 27 2 39 17 8 26 20 26 34 0 13 10 29 23 38 20 14 20 16 5
22 -11 4 -24 0 -34 -9 -19 -20 -38 -16 -42 8 -4 17 43 72 63 75 6 0 37 -24 70
-54z m-805 -25 c0 -18 -7 -20 -60 -20 -53 0 -60 2 -60 20 0 18 7 20 60 20 53
0 60 -2 60 -20z m30 -80 c0 -19 -7 -20 -115 -20 l-115 0 0 -41 0 -40 -37 3
-38 3 -3 58 -3 57 156 0 c148 0 155 -1 155 -20z m-390 -55 c0 -31 -3 -35 -25
-35 -13 0 -33 -9 -43 -20 -17 -18 -58 -24 -124 -18 -21 2 -22 4 -6 63 l12 45
93 0 93 0 0 -35z m90 -80 c20 -24 8 -49 -29 -56 -19 -4 -40 -5 -48 -2 -20 8
-15 40 9 57 28 20 52 20 68 1z m1341 -69 c5 -16 17 -38 27 -50 27 -29 54 -84
50 -103 -3 -15 -57 61 -72 100 -3 11 -15 21 -26 24 -14 4 -20 14 -20 35 0 39
30 35 41 -6z m149 -250 c6 -19 19 -45 29 -58 10 -13 30 -52 44 -88 14 -36 33
-79 41 -95 9 -17 16 -38 16 -48 0 -9 4 -25 10 -35 12 -22 50 -179 50 -206 0
-18 -3 -17 -20 9 -11 17 -20 45 -20 63 0 23 -9 41 -27 60 -30 30 -53 82 -53
124 0 15 -5 30 -10 33 -23 14 -88 171 -93 223 -5 62 15 73 33 18z m-410 4 c0
-11 -4 -20 -10 -20 -5 0 -10 9 -10 20 0 11 5 20 10 20 6 0 10 -9 10 -20z
m-906 -6 c23 -9 20 -24 -4 -24 -11 0 -20 7 -20 15 0 17 2 18 24 9z m974 -60
c2 -14 -3 -23 -17 -27 -20 -5 -31 9 -31 40 0 24 44 12 48 -13z m296 -88 c9
-45 -1 -66 -31 -66 -23 0 -25 3 -19 31 3 17 6 40 6 50 0 12 7 19 19 19 13 0
21 -10 25 -34z m-224 -90 c0 -39 -3 -45 -27 -50 -37 -10 -50 12 -37 61 5 19
14 24 57 32 4 0 7 -19 7 -43z m70 0 c0 -24 -16 -43 -27 -32 -8 8 6 56 17 56 6
0 10 -11 10 -24z m218 -24 c3 -30 1 -33 -20 -30 -23 3 -34 27 -24 54 11 28 41
11 44 -24z m-132 -9 c-5 -12 -10 -13 -18 -5 -8 8 -8 15 3 28 15 18 25 4 15
-23z m-791 -43 c0 -27 -22 -39 -31 -16 -8 22 3 49 19 43 6 -2 12 -14 12 -27z
m-52 -71 c3 -11 2 -32 -3 -47 l-8 -27 -16 39 c-10 21 -15 44 -12 52 7 18 33 7
39 -17z m97 -14 c0 -14 -4 -25 -10 -25 -5 0 -10 11 -10 25 0 14 5 25 10 25 6
0 10 -11 10 -25z m1075 -325 c4 -14 17 -45 28 -70 20 -41 22 -60 21 -230 -1
-153 -5 -198 -21 -260 -26 -93 -48 -209 -44 -232 1 -9 -3 -20 -10 -24 -13 -8
-9 86 11 231 24 182 18 568 -9 585 -10 6 -11 27 -5 91 l8 84 7 -75 c3 -42 10
-87 14 -100z m-1065 -18 c0 -28 -17 -62 -30 -62 -11 0 -14 103 -3 114 11 11
33 -24 33 -52z m997 -204 c-2 -13 -4 -5 -4 17 -1 22 1 32 4 23 2 -10 2 -28 0
-40z m18 -230 c10 -48 10 -111 -1 -115 -6 -2 -18 15 -27 37 -12 31 -13 48 -5
70 12 36 26 39 33 8z m-891 -104 c20 -8 21 -44 2 -44 -8 0 -21 -3 -30 -6 -13
-5 -16 1 -16 25 0 31 11 38 44 25z m854 -90 c-5 -42 -28 -43 -28 -1 0 18 3 37
7 41 12 12 25 -11 21 -40z m-1094 0 c3 -9 6 -42 6 -75 0 -49 -3 -59 -17 -59
-23 0 -49 -41 -108 -162 -19 -41 -33 -58 -46 -58 -11 0 -24 -11 -30 -24 -6
-13 -26 -30 -44 -39 -18 -9 -36 -24 -39 -35 -4 -10 -18 -24 -31 -30 -14 -6
-25 -18 -25 -27 0 -22 42 -19 70 5 26 22 36 25 45 10 3 -6 -2 -13 -12 -17 -10
-3 -28 -18 -39 -32 -21 -25 -23 -25 -55 -10 -37 17 -59 15 -59 -5 0 -28 -42
-64 -99 -85 -69 -25 -81 -37 -55 -55 24 -18 12 -44 -23 -48 -19 -2 -32 -12
-41 -30 -10 -21 -20 -28 -42 -28 -20 0 -31 -6 -35 -20 -3 -11 -12 -20 -18 -20
-7 0 -28 -3 -47 -6 -32 -5 -40 -1 -81 40 -37 37 -54 46 -81 46 -19 0 -43 7
-54 15 -16 13 -17 16 -4 25 8 5 22 10 30 10 35 0 243 60 338 97 82 32 113 50
157 91 30 29 59 52 63 52 7 0 110 92 172 153 34 33 60 69 60 82 0 8 12 36 28
62 15 26 38 75 51 108 34 85 52 104 65 69z m106 -74 c0 -20 -5 -30 -15 -30
-10 0 -15 10 -15 30 0 20 5 30 15 30 10 0 15 -10 15 -30z m-60 -96 c0 -16 -16
-19 -25 -4 -8 13 4 32 16 25 5 -4 9 -13 9 -21z m-46 -49 c3 -8 0 -28 -6 -43
l-11 -27 -8 30 c-10 32 -5 55 10 55 5 0 11 -7 15 -15z m1136 1 c0 -8 -4 -17
-9 -21 -12 -7 -24 12 -16 25 9 15 25 12 25 -4z m-34 -80 c9 -24 -14 -91 -40
-115 -19 -18 -24 -30 -19 -51 3 -15 1 -30 -5 -34 -16 -9 -21 17 -11 60 4 21
13 61 18 87 6 27 13 53 16 58 9 14 35 11 41 -5z m-1051 -196 c0 -7 -6 -15 -12
-17 -8 -3 -13 4 -13 17 0 13 5 20 13 18 6 -3 12 -11 12 -18z m951 -31 c13 -21
-52 -139 -78 -139 -15 0 -8 67 10 91 10 13 21 32 25 42 7 19 32 23 43 6z
m-126 -24 c0 -16 -6 -25 -15 -25 -16 0 -19 9 -9 34 9 25 24 19 24 -9z m-1244
-153 c-3 -5 -15 -12 -26 -15 -25 -6 -27 18 -2 32 18 11 38 -1 28 -17z m1085 6
c2 -17 -2 -52 -6 -56 -8 -9 -55 12 -55 25 0 32 58 62 61 31z m-993 -114 c-3
-28 -36 -48 -57 -35 -16 10 -3 41 23 51 33 14 38 12 34 -16z m-239 -8 c16 -19
-10 -38 -46 -34 -20 2 -29 9 -31 26 -3 19 1 22 31 22 19 0 40 -6 46 -14z m79
-9 c3 -15 -2 -18 -25 -15 -17 2 -29 10 -31 21 -3 15 2 18 25 15 17 -2 29 -10
31 -21z m892 -22 c0 -8 -4 -15 -10 -15 -5 0 -10 7 -10 15 0 8 5 15 10 15 6 0
10 -7 10 -15z m278 4 c-2 -6 -8 -10 -13 -10 -5 0 -11 4 -13 10 -2 6 4 11 13
11 9 0 15 -5 13 -11z m-60 -61 c-7 -19 -38 -22 -38 -4 0 10 9 16 21 16 12 0
19 -5 17 -12z m-530 -345 c-2 -10 -10 -18 -18 -18 -8 0 -16 8 -18 18 -2 12 3
17 18 17 15 0 20 -5 18 -17z m-610 -270 c9 -10 22 -18 27 -18 6 0 27 -4 48 -8
49 -10 43 -31 -10 -35 -34 -3 -43 1 -57 23 -9 14 -21 23 -27 20 -15 -10 -49 5
-49 21 0 20 46 18 68 -3z m-34 -89 c22 -9 20 -24 -3 -24 -21 0 -34 13 -24 24
8 7 8 7 27 0z"/>
<path d="M40545 15383 c-49 -12 -54 -43 -7 -43 24 1 72 30 72 44 0 7 -35 6
-65 -1z"/>
<path d="M40393 15323 c-7 -2 -13 -14 -13 -24 0 -18 6 -20 46 -17 38 2 48 7
55 26 8 21 6 22 -34 21 -23 0 -48 -3 -54 -6z"/>
<path d="M40319 18587 c-38 -15 -83 -16 -243 -5 -141 9 -226 5 -211 -10 12
-12 147 -24 285 -26 74 -1 158 -3 185 -4 49 -3 49 -3 28 -19 -27 -18 -30 -38
-7 -47 9 -3 49 -6 91 -6 51 0 79 -4 89 -14 7 -8 32 -17 54 -21 32 -5 44 -13
53 -33 6 -15 16 -30 22 -34 13 -10 124 -9 150 1 11 5 31 5 45 1 14 -4 31 -5
38 -3 14 5 17 43 2 43 -19 0 -10 18 13 25 18 6 19 8 5 12 -9 2 -25 0 -35 -5
-10 -5 -63 -10 -118 -11 -93 -2 -100 0 -117 21 -12 16 -28 23 -55 24 -21 1
-42 2 -47 3 -5 1 -6 15 -2 31 4 20 2 30 -7 30 -7 0 -29 9 -49 20 -47 25 -137
40 -169 27z"/>
<path d="M42368 18590 c-88 -7 -109 -18 -87 -48 8 -11 45 -64 82 -118 38 -55
82 -117 98 -139 16 -22 46 -65 67 -95 20 -30 71 -99 112 -153 41 -54 85 -112
97 -130 32 -45 98 -136 169 -231 34 -44 93 -126 130 -181 38 -55 87 -120 109
-144 22 -24 49 -59 60 -77 11 -18 40 -61 64 -96 25 -35 60 -85 79 -113 19 -27
47 -63 62 -80 15 -16 37 -46 50 -65 13 -19 43 -56 66 -81 23 -25 50 -61 59
-79 9 -18 42 -62 71 -97 30 -35 67 -88 81 -118 24 -49 25 -56 13 -86 -8 -18
-30 -53 -49 -78 -19 -25 -54 -76 -78 -113 -24 -37 -51 -73 -61 -80 -10 -7 -29
-33 -43 -58 -22 -40 -87 -129 -207 -283 -51 -66 -112 -156 -112 -165 0 -5 -17
-27 -37 -49 -44 -47 -79 -94 -132 -178 -21 -33 -53 -76 -70 -95 -18 -19 -62
-80 -98 -135 -36 -55 -83 -120 -103 -145 -21 -25 -45 -58 -53 -75 -9 -16 -45
-65 -81 -108 -36 -43 -66 -81 -66 -86 0 -4 -24 -39 -54 -77 -30 -38 -81 -109
-112 -159 -32 -49 -78 -114 -102 -144 -27 -33 -42 -61 -40 -75 3 -20 8 -21
118 -21 63 0 370 -2 682 -3 458 -3 572 -1 592 10 15 8 44 38 66 68 22 30 58
80 80 110 93 126 110 149 165 230 31 47 78 110 104 140 26 30 60 78 76 105 54
96 89 150 130 200 45 55 89 118 121 176 12 21 45 69 74 108 61 82 83 89 106
36 8 -20 29 -52 48 -73 38 -42 116 -164 116 -180 0 -6 9 -17 20 -25 20 -14 55
-63 187 -263 39 -60 95 -137 123 -172 28 -35 58 -78 66 -95 8 -18 33 -57 55
-87 22 -30 56 -80 76 -110 20 -30 47 -66 61 -80 13 -13 30 -36 37 -50 7 -14
24 -31 37 -38 32 -17 1371 -13 1388 4 13 13 -55 158 -99 210 -14 17 -46 60
-71 95 -25 35 -79 108 -120 164 -41 55 -88 123 -105 150 -17 28 -55 83 -85
123 -30 40 -77 104 -105 143 -27 39 -86 118 -130 177 -82 109 -108 147 -135
194 -33 57 -141 208 -149 208 -5 0 -14 12 -20 28 -6 15 -27 47 -46 72 -19 25
-42 58 -50 73 -9 15 -34 51 -56 80 -82 106 -125 163 -165 222 -22 33 -57 84
-77 114 -56 81 -56 90 -3 168 89 132 161 231 200 274 43 50 189 248 207 282 7
12 15 24 18 27 4 3 26 34 49 69 23 35 62 89 87 120 24 31 64 80 87 110 24 30
59 77 78 106 52 79 90 130 138 188 24 29 67 88 97 132 29 44 75 106 102 137
26 31 58 71 71 90 52 74 106 147 158 213 48 61 97 131 154 221 31 50 43 49
-725 52 l-714 3 -18 -26 c-10 -15 -52 -68 -93 -118 -42 -51 -84 -103 -93 -117
-25 -37 -62 -88 -107 -150 -22 -30 -60 -85 -84 -121 -25 -36 -73 -102 -108
-147 -62 -79 -107 -141 -171 -234 -127 -184 -140 -199 -166 -196 -26 3 -38 17
-136 163 -29 44 -90 132 -134 195 -69 98 -106 152 -165 242 -6 9 -60 84 -121
168 -60 83 -116 161 -124 173 -8 12 -27 36 -42 52 -15 17 -34 44 -43 62 -9 18
-25 37 -35 43 -21 11 -1224 19 -1363 10z m150 -293 c2 -15 -1 -27 -5 -27 -15
0 -33 23 -33 43 0 30 34 16 38 -16z m494 -669 c28 -32 36 -58 20 -58 -12 0
-36 30 -50 63 -15 36 -4 34 30 -5z m36 -2249 c-18 -12 -23 8 -6 28 12 15 13
15 16 -2 2 -10 -2 -21 -10 -26z m-48 -63 c0 -17 -14 -29 -23 -20 -8 8 3 34 14
34 5 0 9 -6 9 -14z m-600 -820 c0 -15 -18 -31 -26 -23 -7 7 7 37 17 37 5 0 9
-6 9 -14z m-57 -116 c4 -17 0 -20 -24 -20 -27 0 -28 2 -17 20 7 11 18 20 24
20 7 0 14 -9 17 -20z m1291 10 c17 -6 24 -14 20 -25 -9 -21 -38 -19 -59 5 -13
14 -22 17 -29 10 -5 -5 -19 -10 -30 -9 -17 0 -15 3 9 14 36 17 56 18 89 5z
m-1184 -25 c0 -10 -10 -15 -30 -15 -47 0 -35 27 13 29 9 1 17 -6 17 -14z"/>
<path d="M15960 18529 l-35 -31 32 22 c29 19 50 40 41 40 -2 0 -19 -14 -38
-31z"/>
<path d="M37093 18515 c0 -27 2 -38 4 -22 2 15 2 37 0 50 -2 12 -4 0 -4 -28z"/>
<path d="M39927 18511 c-51 -8 -48 -24 8 -35 50 -10 72 0 62 28 -7 17 -9 17
-70 7z"/>
<path d="M40004 18443 c-5 -17 -15 -23 -42 -25 -33 -3 -37 -6 -34 -28 2 -14 5
-26 7 -28 8 -8 145 -28 147 -21 2 4 41 8 88 8 108 1 120 0 120 -11 0 -4 7 -8
15 -8 8 0 18 -12 21 -27 14 -53 32 -63 116 -63 70 0 78 2 78 19 0 14 5 18 20
14 15 -4 20 0 20 16 0 11 -5 21 -11 21 -7 0 -19 9 -29 20 -14 17 -32 20 -111
23 l-94 2 -3 38 c-3 31 -8 38 -30 43 -15 3 -36 11 -47 17 -12 7 -61 12 -123
12 -98 0 -103 -1 -108 -22z"/>
<path d="M33874 18245 c0 -93 2 -133 3 -88 2 45 2 122 0 170 -1 48 -3 12 -3
-82z"/>
<path d="M38952 18366 c-121 -64 -312 -200 -409 -291 -23 -22 -58 -54 -77 -72
-56 -52 -182 -199 -222 -261 -21 -31 -52 -75 -69 -97 -46 -59 -154 -255 -140
-255 2 0 17 26 33 58 16 31 44 78 61 102 18 25 50 72 71 105 129 198 309 392
474 510 24 17 50 38 60 48 10 9 26 17 36 17 10 0 25 8 32 18 15 21 81 67 144
99 23 12 45 27 49 32 8 14 8 14 -43 -13z"/>
<path d="M39943 18169 c-32 -12 -19 -39 18 -39 22 0 29 5 29 19 0 23 -18 31
-47 20z"/>
<path d="M33872 17983 c-2 -62 1 -74 17 -83 11 -5 28 -10 38 -9 12 0 9 4 -10
11 -29 10 -35 25 -40 103 -3 39 -4 34 -5 -22z"/>
<path d="M39858 17793 c-10 -2 -18 -9 -18 -15 0 -5 7 -7 16 -4 9 3 33 6 55 6
21 0 39 5 39 10 0 10 -59 12 -92 3z"/>
<path d="M36675 17668 l-70 -73 73 70 c67 64 77 75 69 75 -1 0 -34 -33 -72
-72z"/>
<path d="M38324 17725 c-3 -8 -3 -19 1 -25 11 -18 25 -11 25 15 0 27 -17 34
-26 10z"/>
<path d="M39893 17713 c-40 -8 -25 -21 31 -28 66 -9 91 -4 91 15 0 11 -13 15
-50 16 -27 1 -60 0 -72 -3z"/>
<path d="M40046 17711 c-12 -19 25 -26 132 -25 100 2 123 6 108 21 -12 12
-233 16 -240 4z"/>
<path d="M40325 17641 c-45 -28 -35 -36 57 -46 34 -4 67 -14 80 -25 68 -57 88
-70 106 -70 29 0 33 11 18 55 -9 24 -21 39 -32 41 -34 5 -99 27 -114 40 -24
19 -87 22 -115 5z"/>
<path d="M38256 17635 c-11 -29 -7 -36 17 -33 14 2 22 10 22 23 0 24 -30 32
-39 10z"/>
<path d="M38380 17635 c0 -8 5 -15 10 -15 6 0 10 7 10 15 0 8 -4 15 -10 15 -5
0 -10 -7 -10 -15z"/>
<path d="M38322 17543 c2 -17 10 -29 21 -31 15 -3 18 2 15 25 -2 17 -10 29
-21 31 -15 3 -18 -2 -15 -25z"/>
<path d="M36538 17537 c-16 -13 -28 -30 -28 -39 0 -17 57 -64 67 -55 2 3 -9
13 -26 22 -38 19 -39 31 -4 67 32 34 28 36 -9 5z"/>
<path d="M39985 17530 c-16 -5 -74 -18 -128 -30 -53 -12 -99 -26 -102 -30 -3
-5 9 -5 27 0 155 41 446 49 596 17 70 -15 273 -107 337 -151 154 -108 299
-279 379 -447 35 -73 36 -74 30 -29 -4 28 -24 75 -55 126 -27 45 -49 85 -49
88 0 4 -22 30 -50 58 -27 28 -50 56 -50 63 0 11 -56 58 -185 152 -16 12 -52
34 -80 49 -27 14 -57 32 -65 39 -8 7 -61 27 -118 45 -57 18 -105 37 -108 44
-5 14 -334 19 -379 6z"/>
<path d="M39450 17468 c0 -21 26 -58 40 -58 14 0 80 52 80 63 0 2 -27 3 -60 3
-33 -1 -60 -4 -60 -8z"/>
<path d="M39581 17395 c-58 -30 -116 -66 -130 -79 -14 -14 -43 -39 -64 -57
-20 -17 -40 -42 -43 -55 -3 -13 -14 -26 -24 -29 -10 -3 -28 -20 -39 -38 -11
-18 -33 -50 -49 -73 -37 -51 -120 -222 -137 -283 -38 -129 -50 -380 -27 -529
15 -97 82 -272 136 -355 20 -32 36 -63 36 -71 0 -7 9 -21 21 -32 11 -10 37
-44 56 -76 20 -32 40 -58 46 -58 5 0 27 -15 48 -32 95 -82 195 -149 233 -158
17 -4 40 -11 51 -16 37 -15 -49 53 -90 71 -22 10 -58 26 -80 36 -24 11 -84 64
-145 126 -98 101 -110 118 -172 243 -89 177 -105 225 -123 349 -25 175 -18
291 28 489 31 129 143 317 260 439 85 87 122 115 272 207 87 53 55 44 -64 -19z"/>
<path d="M15815 17416 c-53 -17 -177 -78 -245 -121 -30 -19 -74 -44 -98 -55
-24 -11 -67 -35 -95 -53 -73 -47 -191 -118 -262 -157 -33 -18 -67 -39 -75 -46
-8 -7 -53 -32 -100 -57 -159 -83 -199 -106 -242 -135 -24 -16 -83 -50 -133
-76 -137 -71 -174 -126 -126 -188 18 -23 119 -86 223 -138 54 -28 238 -201
260 -245 8 -17 35 -86 59 -155 l43 -125 1 -175 c0 -172 0 -176 -32 -260 -90
-243 -152 -319 -368 -452 -49 -31 -103 -63 -120 -72 -16 -9 -47 -27 -67 -39
-21 -12 -61 -35 -90 -51 -29 -15 -68 -39 -86 -53 -17 -13 -47 -31 -65 -39 -17
-8 -54 -27 -82 -43 -27 -16 -77 -43 -110 -61 -33 -18 -69 -40 -80 -50 -11 -10
-58 -39 -105 -64 -47 -26 -123 -72 -170 -102 -47 -31 -101 -63 -120 -72 -55
-27 -178 -100 -265 -157 -44 -29 -120 -74 -170 -101 -49 -26 -112 -62 -140
-79 -97 -60 -161 -98 -225 -133 -36 -19 -72 -40 -80 -47 -8 -6 -35 -23 -60
-37 -25 -13 -62 -34 -82 -46 -21 -12 -53 -30 -70 -41 -18 -10 -65 -37 -104
-60 -39 -22 -74 -41 -77 -41 -3 0 -33 -18 -66 -40 -33 -22 -63 -40 -67 -40 -4
0 -32 -17 -63 -37 -31 -21 -77 -49 -102 -63 -107 -57 -278 -157 -339 -195 -36
-23 -105 -64 -154 -90 -49 -26 -113 -65 -143 -86 -30 -21 -68 -41 -84 -44 -16
-4 -31 -10 -34 -15 -10 -16 -123 -89 -193 -124 -39 -20 -102 -55 -139 -79 -37
-24 -93 -57 -123 -72 -30 -16 -111 -64 -180 -106 -69 -42 -161 -97 -205 -122
-93 -53 -169 -103 -202 -134 -17 -16 -23 -33 -23 -63 0 -33 7 -47 38 -78 21
-21 60 -48 87 -61 28 -12 79 -40 115 -61 137 -80 358 -205 420 -238 36 -19 74
-43 85 -52 23 -19 66 -42 180 -95 219 -102 423 -144 690 -145 175 0 363 25
412 56 11 7 43 19 70 25 26 7 60 18 75 26 15 7 67 29 115 48 48 20 128 62 178
94 49 32 108 68 130 80 22 12 83 48 135 81 52 33 111 68 130 78 19 9 58 31 85
47 28 17 63 37 78 45 80 43 265 156 284 173 12 10 54 36 95 56 119 62 252 137
326 185 38 25 86 53 107 61 20 9 56 28 78 43 22 15 52 35 66 44 14 9 80 47
146 84 66 37 134 78 152 91 31 24 91 58 215 121 31 16 71 41 88 56 18 15 51
36 74 48 22 11 59 33 81 48 22 15 65 41 95 57 30 16 66 36 80 45 14 8 79 48
145 88 66 40 145 90 176 111 32 22 65 42 75 46 19 6 116 64 197 115 23 15 56
34 74 42 18 8 58 32 90 54 32 21 90 56 128 77 152 83 332 239 424 368 109 154
123 178 173 294 46 109 56 142 91 293 9 42 12 273 12 955 l0 900 -27 100 c-40
149 -112 304 -193 418 -29 41 -197 205 -236 231 -19 12 -71 39 -116 59 -68 31
-93 37 -145 36 -35 0 -81 -6 -103 -13z m63 -3628 c-3 -7 -15 -14 -29 -16 -23
-2 -23 -2 -5 13 24 18 39 20 34 3z m-3258 -43 c0 -8 -9 -15 -20 -15 -22 0 -27
15 -7 23 21 9 27 7 27 -8z m-305 -184 c7 -13 -32 -34 -46 -26 -7 5 -6 11 2 21
13 16 35 18 44 5z m-240 -141 c-3 -5 -13 -10 -21 -10 -8 0 -12 5 -9 10 3 6 13
10 21 10 8 0 12 -4 9 -10z m-85 -40 c0 -16 -38 -32 -46 -19 -7 12 12 29 34 29
6 0 12 -4 12 -10z m1971 -753 c-13 -13 -26 -3 -16 12 3 6 11 8 17 5 6 -4 6
-10 -1 -17z m-81 -37 c0 -12 -28 -25 -36 -17 -9 9 6 27 22 27 8 0 14 -5 14
-10z m-400 -245 c-12 -15 -30 -12 -30 6 0 5 10 9 21 9 18 0 19 -2 9 -15z
m-830 -480 c-7 -8 -17 -15 -22 -15 -6 0 -5 7 2 15 7 8 17 15 22 15 6 0 5 -7
-2 -15z"/>
<path d="M39372 17414 c4 -21 22 -23 26 -1 2 10 -3 17 -13 17 -10 0 -15 -6
-13 -16z"/>
<path d="M37982 17282 c-11 -26 -31 -79 -42 -117 -12 -39 -28 -87 -36 -107
-40 -108 -65 -264 -69 -423 l-4 -160 9 130 c9 130 13 162 49 330 26 119 49
203 67 242 8 17 14 37 14 45 0 7 9 33 20 57 11 24 19 46 17 48 -3 2 -14 -18
-25 -45z"/>
<path d="M37038 17097 c17 -21 32 -42 32 -47 0 -5 10 -15 22 -21 16 -8 9 4
-21 39 -23 29 -48 55 -54 59 -7 4 3 -10 21 -30z"/>
<path d="M13538 17094 c-38 -20 -36 -28 2 -9 17 9 30 18 30 20 0 7 -1 6 -32
-11z"/>
<path d="M39040 16870 c0 -13 5 -20 13 -17 6 2 12 10 12 17 0 7 -6 15 -12 18
-8 2 -13 -5 -13 -18z"/>
<path d="M9665 16809 c-16 -10 -25 -19 -19 -19 7 0 22 9 35 20 30 24 23 24
-16 -1z"/>
<path d="M12525 16505 c-22 -13 -37 -25 -33 -25 9 0 78 41 78 46 0 6 -3 5 -45
-21z"/>
<path d="M36046 16340 c3 -14 9 -56 13 -95 l8 -70 1 60 c0 33 -6 76 -14 95 -8
19 -12 24 -8 10z"/>
<path d="M37832 16255 c-2 -74 19 -219 43 -295 118 -382 149 -459 259 -640 67
-109 114 -173 203 -272 35 -39 63 -74 63 -77 0 -7 88 -83 230 -201 70 -58 268
-189 340 -225 30 -15 62 -33 70 -40 13 -12 154 -65 169 -65 13 0 -115 69 -128
70 -8 0 -24 9 -35 19 -12 11 -55 34 -96 52 -41 17 -87 41 -102 53 -38 30 -97
73 -135 99 -148 102 -230 172 -237 203 -4 13 -26 37 -50 54 -54 36 -246 258
-246 283 0 6 -11 22 -24 36 -13 15 -45 76 -72 136 -27 61 -55 115 -63 121 -9
7 -16 23 -16 36 -1 13 -11 44 -23 69 -12 24 -35 94 -51 156 -16 62 -32 116
-35 121 -13 22 -49 206 -56 287 l-7 90 -1 -70z"/>
<path d="M12112 16269 c-18 -12 -31 -24 -28 -26 5 -5 66 35 66 43 0 6 -3 5
-38 -17z"/>
<path d="M37414 16075 c0 -71 1 -99 3 -62 2 37 2 96 0 130 -2 34 -3 4 -3 -68z"/>
<path d="M33874 15965 c0 -66 1 -92 3 -57 2 34 2 88 0 120 -2 31 -3 3 -3 -63z"/>
<path d="M38022 15887 c-12 -13 -22 -27 -22 -31 0 -7 17 -30 61 -83 5 -7 15
-13 21 -13 18 0 2 110 -19 132 -19 18 -20 18 -41 -5z"/>
<path d="M32514 15555 c0 -176 2 -247 3 -157 2 90 2 234 0 320 -1 86 -3 13 -3
-163z"/>
<path d="M35966 15762 c-22 -27 -24 -32 -7 -17 20 17 47 55 39 55 -2 0 -16
-17 -32 -38z"/>
<path d="M37387 15698 c-4 -18 -15 -64 -26 -103 -11 -38 -18 -71 -16 -73 5 -5
44 123 51 169 8 47 -1 52 -9 7z"/>
<path d="M39249 15643 c-1 -5 0 -24 1 -44 2 -49 -24 -60 -45 -18 -20 38 -58
38 -63 -1 -2 -20 3 -28 26 -36 25 -10 29 -16 25 -38 -3 -15 -1 -26 6 -26 6 0
11 -5 11 -10 0 -15 47 -60 62 -60 8 0 20 -9 28 -20 8 -11 18 -20 22 -20 4 0 8
9 8 20 0 11 -4 20 -10 20 -5 0 -10 7 -10 15 0 21 21 19 27 -3 6 -26 83 -18 83
9 0 10 9 28 20 39 26 26 25 32 -5 58 -14 12 -25 28 -25 37 0 25 -34 36 -58 19
-21 -15 -22 -14 -22 16 0 24 -6 33 -26 40 -30 12 -54 13 -55 3z m145 -129 c25
-10 19 -34 -9 -34 -24 0 -34 18 -18 33 8 8 8 8 27 1z"/>
<path d="M33872 15529 c-2 -54 2 -69 17 -83 11 -10 26 -16 33 -13 9 4 7 6 -4
6 -25 1 -32 19 -39 91 l-6 65 -1 -66z"/>
<path d="M39458 15392 c-20 -4 -24 -27 -8 -37 15 -9 50 4 50 20 0 15 -18 23
-42 17z"/>
<path d="M38217 15377 c-3 -7 -1 -20 3 -28 7 -11 10 -10 16 4 4 10 2 23 -3 28
-7 7 -12 6 -16 -4z"/>
<path d="M39668 15379 c-31 -18 -20 -30 20 -24 60 10 70 16 47 25 -27 12 -47
11 -67 -1z"/>
<path d="M39360 15305 c0 -8 9 -15 20 -15 11 0 20 7 20 15 0 8 -9 15 -20 15
-11 0 -20 -7 -20 -15z"/>
<path d="M39535 15309 c-9 -14 0 -22 38 -35 44 -15 43 -27 -2 -47 -39 -17 -39
-18 -25 -45 8 -15 14 -33 14 -39 0 -7 9 -13 20 -13 11 0 20 -5 20 -10 0 -6 16
-10 35 -8 l35 2 0 51 c0 99 16 116 85 89 46 -17 96 -16 102 3 3 7 -8 15 -24
19 -15 4 -39 15 -52 26 -34 26 -101 25 -108 -2 -3 -11 -14 -20 -23 -20 -10 0
-22 9 -25 20 -5 15 -15 20 -45 20 -21 0 -42 -5 -45 -11z"/>
<path d="M38270 15260 c0 -22 36 -60 57 -60 16 0 7 19 -26 58 -24 27 -31 28
-31 2z"/>
<path d="M38350 15169 c0 -6 9 -19 20 -31 17 -18 20 -19 26 -5 3 9 3 20 0 25
-8 14 -46 22 -46 11z"/>
<path d="M39997 15133 c-13 -13 -7 -34 18 -58 24 -25 65 -34 65 -15 0 6 45 10
115 10 l115 0 0 29 c0 21 -6 30 -22 35 -31 8 -283 8 -291 -1z"/>
<path d="M38460 15071 c0 -13 22 -27 53 -35 31 -7 35 4 9 27 -20 18 -62 23
-62 8z"/>
<path d="M37059 15008 c-73 -87 -87 -107 -45 -68 32 30 101 120 92 120 -1 0
-23 -23 -47 -52z"/>
<path d="M32514 14720 c0 -118 2 -167 3 -107 2 59 2 155 0 215 -1 59 -3 10 -3
-108z"/>
<path d="M38995 14880 c-8 -14 13 -40 32 -40 20 0 12 44 -9 48 -9 2 -19 -2
-23 -8z"/>
<path d="M38850 14850 c0 -5 7 -10 15 -10 8 0 15 5 15 10 0 6 -7 10 -15 10 -8
0 -15 -4 -15 -10z"/>
<path d="M38715 14840 c-4 -6 5 -20 19 -31 14 -11 31 -32 38 -47 9 -19 22 -28
43 -30 36 -5 55 -19 55 -42 0 -18 19 -30 46 -30 21 0 17 28 -6 40 -11 6 -35
31 -54 56 -20 26 -56 57 -80 70 -51 27 -53 28 -61 14z"/>
<path d="M39070 14797 c0 -14 5 -16 25 -11 15 4 25 2 25 -5 0 -7 21 -11 53
-11 51 0 107 -17 107 -32 0 -5 7 -8 15 -8 8 0 15 -4 15 -10 0 -5 16 -10 36
-10 20 0 62 -7 94 -15 69 -18 176 -15 208 5 26 18 29 46 5 54 -27 8 -133 21
-175 21 -21 0 -38 3 -38 8 0 4 -8 7 -17 7 -10 0 -31 7 -47 15 -24 13 -59 15
-168 13 -124 -3 -138 -5 -138 -21z"/>
<path d="M38932 14788 c3 -7 13 -15 22 -16 12 -3 17 1 14 10 -3 7 -13 15 -22
16 -12 3 -17 -1 -14 -10z"/>
<path d="M38972 14628 c5 -15 58 -24 58 -10 0 11 -24 22 -47 22 -8 0 -13 -6
-11 -12z"/>
<path d="M39890 14613 c-60 -6 -80 -13 -80 -27 0 -17 44 -26 126 -26 66 0 79
8 69 40 -7 21 -24 23 -115 13z"/>
<path d="M39052 14584 c9 -9 21 -13 27 -9 16 10 3 25 -22 25 -20 0 -20 -1 -5
-16z"/>
<path d="M39220 14590 c0 -5 16 -10 36 -10 21 0 33 4 29 10 -3 6 -19 10 -36
10 -16 0 -29 -4 -29 -10z"/>
<path d="M40120 14580 c0 -5 -25 -10 -55 -10 -48 0 -55 -2 -55 -20 0 -10 -8
-23 -17 -29 -22 -11 -235 7 -244 21 -4 6 -23 1 -50 -12 -34 -18 -184 -48 -241
-50 -17 0 -7 -20 10 -20 9 0 44 -19 77 -41 59 -40 61 -40 125 -34 36 4 83 9
105 11 107 9 126 13 143 34 15 18 20 19 50 8 17 -7 32 -15 32 -19 0 -3 17 -3
38 0 25 4 40 13 47 28 7 16 24 26 62 34 29 7 53 16 53 21 0 4 12 8 28 8 39 0
72 11 72 23 0 18 -34 36 -67 37 -18 0 -33 5 -33 10 0 6 -18 10 -40 10 -22 0
-40 -4 -40 -10z m-435 -102 c18 -8 22 -14 13 -20 -29 -18 -87 -1 -74 21 9 14
29 14 61 -1z m125 -15 c11 -10 -27 -23 -50 -17 -33 8 -38 13 -20 24 13 8 58 4
70 -7z"/>
<path d="M41015 14556 c-19 -14 -19 -15 -2 -21 24 -10 69 3 64 18 -6 18 -39
20 -62 3z"/>
<path d="M36420 14539 c-17 -13 -18 -17 -5 -10 33 17 51 31 40 31 -5 0 -21
-10 -35 -21z"/>
<path d="M39103 14548 c2 -8 20 -13 42 -13 22 0 40 5 43 13 2 8 -10 12 -43 12
-33 0 -45 -4 -42 -12z"/>
<path d="M39243 14503 c9 -2 25 -2 35 0 9 3 1 5 -18 5 -19 0 -27 -2 -17 -5z"/>
<path d="M39265 14419 c28 -12 66 -27 85 -35 41 -17 206 -54 235 -53 30 1 -78
37 -163 54 -41 9 -100 25 -130 35 -74 26 -91 25 -27 -1z"/>
</g>
</svg>
