<?xml version="1.0" encoding="UTF-8"?>
<!-- Generator: visioncortex VTracer 0.6.5 -->
<svg version="1.1" xmlns="http://www.w3.org/2000/svg" width="2264" height="632">
<path d="M0 0 C0.84 0.02 1.68 0.04 2.54 0.07 C32.34 0.83 62.14 1.63 91.94 2.47 C177 4.86 261.83 5.99 403.42 2.4 C433.21 1.56 463.01 0.77 492.8 0 C493.64 -0.02 494.47 -0.04 495.34 -0.07 C577.25 -2.18 659.15 -3.07 1411.03 110.42 C1478.13 174.87 1512.42 267.55 1519.76 383.95 C1521.42 476.27 1503.99 567.85 1419.32 682.52 C1346.17 757.06 1228.29 770.26 743.51 803.48 C661.61 804.23 579.75 803.39 492.8 801.15 C491.96 801.13 491.12 801.11 490.26 801.08 C460.46 800.32 430.66 799.52 400.86 798.68 C315.79 796.29 230.97 795.16 89.37 798.75 C59.58 799.59 29.79 800.38 0 801.15 C-0.84 801.17 -1.68 801.19 -2.54 801.22 C-84.45 803.33 -166.36 804.22 -918.23 690.73 C-985.33 626.28 -1019.62 533.6 -1026.96 417.2 C-1028.62 324.88 -1011.19 233.3 -926.53 118.63 C-853.37 44.09 -735.49 30.89 0 0 Z " fill="#FCFDFD" transform="translate(885.6013793945313,-84.57518005371094)"/>
<path d="M0 0 C0.65 -0 0.65 -0 3.95 -0.02 C5.4 -0.01 6.84 0 8.29 0.01 C9.81 0.01 11.33 0.01 12.86 0 C16.99 -0 21.13 0.01 25.27 0.03 C29.6 0.05 33.93 0.04 38.27 0.05 C45.55 0.05 52.83 0.06 60.11 0.09 C69.45 0.12 78.78 0.13 88.11 0.13 C96.14 0.13 104.18 0.15 112.21 0.16 C114.79 0.16 117.36 0.17 119.94 0.17 C124 0.17 128.05 0.19 132.11 0.2 C133.6 0.2 135.08 0.21 136.57 0.21 C152.66 0.22 152.66 0.22 158.66 1.37 C158.66 2.36 158.66 3.35 158.66 4.37 C160.93 4.59 160.93 4.59 164.03 4.43 C169.68 4.29 175.28 4.44 180.66 6.37 C180.66 7.03 180.66 7.69 180.66 8.37 C182.83 8.86 182.83 8.86 185.84 9.24 C196.3 10.84 206.52 13.24 214.66 20.37 C216.34 22.93 216.34 22.93 217.66 25.37 C218.65 26.28 219.67 27.15 220.72 27.99 C223.66 30.37 223.66 30.37 225.66 33.37 C226.65 33.7 227.64 34.03 228.66 34.37 C228.66 35.03 228.66 35.69 228.66 36.37 C229.65 36.7 230.64 37.03 231.66 37.37 C231.99 39.03 232.32 40.7 232.66 42.37 C233.65 42.7 234.64 43.03 235.66 43.37 C236.43 45.18 236.43 45.18 236.97 47.52 C237.18 48.36 237.39 49.2 237.6 50.06 C237.8 50.95 238.01 51.83 238.22 52.74 C238.63 54.48 239.05 56.22 239.47 57.95 C239.56 58.34 239.56 58.34 240.02 60.3 C240.66 62.37 240.66 62.37 242.66 65.37 C243.62 70.34 243.82 75.25 243.78 80.3 C243.78 81 243.78 81.7 243.77 82.42 C243.72 87.16 243.62 91.73 242.66 96.37 C242 96.37 241.34 96.37 240.66 96.37 C240.7 97.21 240.74 98.06 240.78 98.93 C240.62 103.52 239.22 105.59 236.66 109.37 C236 109.37 235.34 109.37 234.66 109.37 C234.67 110.11 234.69 110.85 234.7 111.62 C234.62 117.04 229.93 120.99 226.41 124.8 C225.95 125.23 225.95 125.23 223.66 127.37 C222.84 128.13 222.03 128.89 221.19 129.67 C213.92 136.37 213.92 136.37 211.66 136.37 C212.03 138.62 212.03 138.62 213.66 141.37 C217.18 143.42 220.71 144.97 224.45 146.55 C229.84 148.89 233.73 150.86 237.66 155.37 C238.48 155.94 239.31 156.52 240.16 157.12 C243.15 159.81 244.56 162.58 246.39 166.13 C247.57 168.22 248.81 169.84 250.41 171.62 C252.7 174.42 253.15 175.89 253.66 179.37 C254.32 179.37 254.98 179.37 255.66 179.37 C257.95 184.75 258.06 189.97 258.31 195.73 C258.43 196.6 258.54 197.47 258.66 198.37 C259.32 198.37 259.98 198.37 260.66 198.37 C260.92 200.75 260.92 200.75 260.92 204.05 C260.93 205.23 260.93 206.4 260.93 207.61 C260.92 208.85 260.92 210.09 260.91 211.37 C260.91 212.61 260.92 213.85 260.93 215.13 C260.93 215.71 260.93 215.71 260.92 218.68 C260.92 219.77 260.92 220.86 260.92 221.98 C260.83 222.77 260.75 223.56 260.66 224.37 C260 224.37 259.34 224.37 258.66 224.37 C258.12 226.49 258.12 226.49 257.66 229.37 C257.21 231.37 256.76 233.37 256.28 235.37 C256.05 236.38 255.81 237.39 255.57 238.43 C254.63 241.45 253.29 243.68 251.66 246.37 C251.17 247.98 250.73 249.6 250.34 251.24 C248.86 256.47 246.48 259.6 242.66 263.37 C241.81 264.25 240.97 265.14 240.09 266.05 C234.87 271.01 229.48 274.9 222.72 277.49 C222.38 277.64 222.38 277.64 220.66 278.37 C220.66 279.03 220.66 279.69 220.66 280.37 C219.01 281.11 217.36 281.85 215.68 282.49 C213.66 283.37 213.66 283.37 211.29 284.84 C208.49 286.46 205.86 287.41 202.78 288.37 C199.59 289.37 196.63 290.38 193.61 291.83 C174.54 300 148.09 296.81 127.72 296.77 C123.01 296.76 118.3 296.77 113.58 296.77 C105.7 296.78 97.82 296.77 89.93 296.76 C80.82 296.74 71.71 296.75 62.61 296.76 C54.74 296.78 46.88 296.78 39.02 296.77 C34.34 296.77 29.66 296.77 24.98 296.78 C20.61 296.79 16.23 296.78 11.85 296.76 C10.24 296.76 8.63 296.76 7.03 296.77 C4.84 296.77 2.65 296.76 0.46 296.75 C-0.76 296.75 -1.99 296.75 -3.25 296.75 C-6.7 296.32 -7.88 295.76 -10.34 293.37 C-10.84 291.14 -10.84 291.14 -10.85 288.48 C-10.86 287.46 -10.87 286.45 -10.88 285.4 C-10.87 284.29 -10.86 283.17 -10.85 282.02 C-10.86 280.83 -10.86 279.65 -10.87 278.43 C-10.88 275.13 -10.88 271.84 -10.87 268.55 C-10.86 265 -10.87 261.45 -10.88 257.9 C-10.9 250.94 -10.9 243.98 -10.88 237.02 C-10.87 231.37 -10.87 225.72 -10.88 220.07 C-10.88 219.26 -10.88 218.46 -10.88 217.63 C-10.88 216 -10.88 214.37 -10.88 212.73 C-10.9 197.42 -10.88 182.1 -10.86 166.78 C-10.84 153.63 -10.85 140.48 -10.86 127.33 C-10.89 112.07 -10.89 96.81 -10.88 81.55 C-10.88 79.92 -10.88 78.29 -10.88 76.67 C-10.88 75.87 -10.88 75.07 -10.88 74.24 C-10.87 68.6 -10.88 62.95 -10.89 57.3 C-10.9 50.42 -10.9 43.54 -10.87 36.66 C-10.86 33.15 -10.86 29.64 -10.87 26.12 C-10.89 22.32 -10.87 18.52 -10.85 14.72 C-10.86 13.6 -10.87 12.48 -10.88 11.33 C-10.87 10.32 -10.86 9.3 -10.85 8.26 C-10.85 7.38 -10.84 6.5 -10.84 5.6 C-10.34 3.37 -10.34 3.37 -8.49 1.59 C-5.56 -0.08 -3.37 -0 0 0 Z " fill="#0671F9" transform="translate(1447.3428192138672,155.63250732421875)"/>
<path d="M0 0 C4.26 -0.46 8.56 -0.37 12.85 -0.37 C15 -0.37 17.15 -0.41 19.31 -0.45 C29.16 -0.53 37.6 0.99 47 4 C47.88 4.27 48.76 4.54 49.66 4.82 C51.88 5.56 51.88 5.56 55 7 C55.33 7.99 55.66 8.98 56 10 C58.43 10.97 60.75 11.77 63.25 12.5 C67.88 13.88 71.86 15.47 76 18 C79.13 19.41 82.32 20.7 85.5 22 C90.55 24.06 95.38 26.06 100 29 C101.66 29.67 103.33 30.34 105 31 C105.99 31.66 106.98 32.32 108 33 C108 33.66 108 34.32 108 35 C110.32 35.39 112.66 35.72 115 36 C115.66 36.33 116.32 36.66 117 37 C117 37.66 117 38.32 117 39 C117.99 39 118.98 39 120 39 C120 39.99 120 40.98 120 42 C121.61 42.51 123.23 43.01 124.88 43.41 C128.77 44.49 132.35 46.28 136 48 C136.78 48.36 137.55 48.71 138.35 49.08 C140.27 49.99 142.14 50.98 144 52 C144 52.66 144 53.32 144 54 C146.12 54.6 146.12 54.6 148.88 55.06 C153.83 55.92 153.83 55.92 156 57 C156 57.66 156 58.32 156 59 C157.72 59.71 157.72 59.71 160.06 60.38 C164.5 61.76 168.12 63.44 172 66 C172 66.66 172 67.32 172 68 C173.68 68.5 173.68 68.5 176 69 C177.74 69.62 179.47 70.26 181.19 70.94 C181.63 71.11 181.63 71.11 183.86 71.96 C186 73 186 73 187 75 C190.23 76.11 193.51 76.99 196.8 77.9 C199.79 78.93 201.72 79.84 204 82 C204 82.66 204 83.32 204 84 C204.99 84 205.98 84 207 84 C207 84.66 207 85.32 207 86 C207.26 86.06 207.26 86.06 208.56 86.38 C211.43 87.11 213.66 88.51 216.18 90.02 C218 91 218 91 221.44 92.12 C221.86 92.27 221.86 92.27 224 93 C224 93.66 224 94.32 224 95 C226.41 95.78 226.41 95.78 229.5 96.5 C232.59 97.22 232.59 97.22 235 98 C235 98.66 235 99.32 235 100 C235.8 100.27 236.61 100.54 237.44 100.81 C246.01 103.67 251.47 107.92 257 115 C257.68 115.8 258.36 116.61 259.06 117.44 C259.7 118.28 260.34 119.13 261 120 C261.47 120.56 261.95 121.13 262.43 121.71 C266.88 127.51 268.33 133.36 269.71 140.41 C270.08 142.29 270.53 144.15 271 146 C271.66 146 272.32 146 273 146 C274.24 150.91 274.15 155.85 274.12 160.88 C274.13 161.64 274.13 162.4 274.14 163.19 C274.12 170.32 273.76 177.33 271 184 C270.34 184.33 269.68 184.66 269 185 C267.93 188.04 267.07 191.12 266.2 194.21 C265 197 265 197 262.96 198.23 C262.32 198.48 261.67 198.74 261 199 C259.95 200.64 258.95 202.3 258 204 C257 205 256 206 255 207 C254.67 207.99 254.34 208.98 254 210 C253.34 210 252.68 210 252 210 C252 210.66 252 211.32 252 212 C249.42 214.34 246.52 216.29 243.69 218.31 C243.28 218.61 243.28 218.61 241.19 220.11 C235.37 224.21 229.63 227.39 223 230 C221.16 230.83 219.32 231.69 217.5 232.56 C216.71 232.94 215.91 233.31 215.09 233.69 C212.74 235.17 211.65 236.79 210 239 C208.12 239.76 206.24 240.5 204.32 241.15 C199.31 242.98 194.57 245.6 189.89 248.15 C188 249 188 249 185 249 C185 249.66 185 250.32 185 251 C182.66 252.22 182.66 252.22 179.62 253.5 C174.2 255.8 174.2 255.8 172 258 C170.68 258 169.36 258 168 258 C168 258.66 168 259.32 168 260 C165.94 260.94 165.94 260.94 163 262 C161.82 262.54 160.65 263.07 159.44 263.62 C156 265 156 265 152 265 C152 265.99 152 266.98 152 268 C149.88 269.17 149.88 269.17 147.12 270.19 C146.67 270.36 146.67 270.36 144.38 271.23 C142 272 142 272 140 272 C140 272.66 140 273.32 140 274 C137.88 275 137.88 275 135.12 276 C130.21 277.79 130.21 277.79 128 280 C126.28 280.75 124.55 281.49 122.81 282.2 C121 283 121 283 118.25 284.69 C116 286 116 286 113 286 C113 286.66 113 287.32 113 288 C111.46 288.93 111.46 288.93 109.38 289.88 C106.69 291.14 104.41 292.39 101.94 294.06 C98.75 296.16 95.51 297.51 92 299 C91.34 299.5 90.68 299.99 90 300.5 C87.78 302.16 85.48 303.14 82.93 304.18 C78.57 306.03 74.36 308.18 70.31 310.62 C67.92 312.05 65.59 313.01 63 314 C56.01 316.8 48.9 320.07 42.86 324.61 C40.74 326.2 38.51 327.06 36.05 328.05 C33.58 329.19 31.32 330.57 29 332 C24.16 334.97 19.41 337.13 14.06 339.06 C13.72 339.22 13.72 339.22 12 340 C12 340.66 12 341.32 12 342 C11.59 341.99 11.59 341.99 9.5 341.94 C9.09 341.95 9.09 341.95 7 342 C7 342.99 7 343.98 7 345 C4.37 346.73 1.95 347.25 -1.12 347.69 C-6.26 348.71 -9.68 351.34 -13.74 354.54 C-16 356 -16 356 -20 356 C-20 356.66 -20 357.32 -20 358 C-22.88 359.4 -24.77 360 -28 360 C-28 360.66 -28 361.32 -28 362 C-30 362 -32 362 -34 362 C-34 362.66 -34 363.32 -34 364 C-47.09 366.11 -62.4 366.65 -75 362 C-75.33 361.34 -75.66 360.68 -76 360 C-78.67 359.47 -81.34 359.17 -84.04 358.86 C-87.23 357.93 -88.89 356.52 -91.32 354.33 C-94.43 351.87 -98.08 350.45 -101.69 348.88 C-103.19 348.21 -104.7 347.54 -106.2 346.87 C-106.86 346.58 -107.52 346.29 -108.19 346 C-110.22 344.88 -111.55 343.8 -113 342 C-113 341.01 -113 340.02 -113 339 C-113.99 338.67 -114.98 338.34 -116 338 C-117.84 333.24 -117.31 327.65 -117.38 322.62 C-117.41 321.6 -117.45 320.57 -117.49 319.51 C-117.59 311.01 -117.59 311.01 -114.68 307.32 C-111.67 304.71 -109.89 304.36 -106 304 C-106 303.34 -106 302.68 -106 302 C-103.58 300.79 -101.18 299.72 -98.69 298.69 C-97.22 298.06 -95.74 297.43 -94.27 296.8 C-91.74 295.73 -89.2 294.67 -86.66 293.61 C-81.38 291.33 -78 289.23 -74 285 C-71.21 283.85 -69.02 283 -66 283 C-66 282.34 -66 281.68 -66 281 C-64.78 280.63 -63.57 280.26 -62.31 279.88 C-57.89 278.52 -54.34 276.48 -50.44 274 C-46.35 271.4 -42.58 269.15 -37.98 267.65 C-34.62 266.54 -31.37 265.12 -28.1 263.77 C-26 263 -26 263 -24 263 C-23.67 262.01 -23.34 261.02 -23 260 C-20.65 258.94 -18.36 258.04 -15.94 257.19 C-10.46 255.16 -6.01 253.05 -1.61 249.1 C0 248 0 248 4 248 C4 247.34 4 246.68 4 246 C4.66 246 5.32 246 6 246 C6.33 245.01 6.66 244.02 7 243 C8.96 242.38 8.96 242.38 11.38 242 C15.68 241.33 15.68 241.33 17.54 239.44 C19 238 19 238 23 238 C23 237.34 23 236.68 23 236 C24.83 235.18 24.83 235.18 27.25 234.44 C28.04 234.19 28.83 233.94 29.64 233.68 C32 233 32 233 34.3 232.54 C34.58 232.45 34.58 232.45 36 232 C36 231.34 36 230.68 36 230 C43.56 224.16 52.45 220.14 61 216 C62.44 215.27 63.88 214.54 65.31 213.81 C68.04 212.44 70.82 211.21 73.62 210 C76.41 208.79 78.49 207.65 81 205.88 C84.39 203.75 87.13 203.22 91.05 202.69 C93 202 93 202 94.08 200.06 C94.38 199.38 94.69 198.7 95 198 C99.63 194.91 104.45 192.94 109.67 191.03 C112.09 189.96 113.9 188.59 116 187 C116.66 187 117.32 187 118 187 C118 186.34 118 185.68 118 185 C118.66 185 119.32 185 120 185 C120 184.34 120 183.68 120 183 C121.89 182.53 123.77 182.07 125.67 181.64 C129.64 180.55 133.14 178.63 136.75 176.69 C137.49 176.31 138.23 175.93 139 175.54 C143.9 172.94 147.87 170.39 149.71 164.86 C150.33 159.04 149.7 154.25 147 149 C143.65 145.25 139.83 144.15 135.16 142.72 C132.49 141.83 130.28 140.64 128 139 C127.67 138.34 127.34 137.68 127 137 C126.28 136.71 125.56 136.42 124.81 136.12 C122 135 122 135 119.5 133.19 C115.49 130.41 110.93 128.98 106.39 127.29 C102.31 125.74 98.38 123.96 94.42 122.12 C90.52 120.31 86.55 118.64 82.57 117 C81.75 116.65 80.92 116.3 80.06 115.94 C79.29 115.62 78.52 115.3 77.72 114.96 C77.15 114.65 76.59 114.33 76 114 C76 113.34 76 112.68 76 112 C75.34 112 74.68 112 74 112 C73.34 111.01 72.68 110.02 72 109 C69.64 107.72 69.64 107.72 66.81 106.5 C65.83 106.07 64.84 105.64 63.82 105.2 C62.89 104.81 61.96 104.41 61 104 C60.31 103.69 59.61 103.37 58.89 103.05 C56.3 101.88 53.92 100.98 51.12 100.44 C50.77 100.37 50.77 100.37 49 100 C48.67 99.34 48.34 98.68 48 98 C45.54 96.58 43.1 95.27 40.56 94 C39.89 93.64 39.21 93.29 38.52 92.92 C25.13 86.17 6.88 85.59 -7.44 89.69 C-11.57 91.2 -14.98 93.03 -18.4 95.77 C-22.4 98.84 -27.14 100.74 -31.88 102.38 C-35.1 103.53 -37.8 105.04 -40.69 106.88 C-45.55 109.9 -50.54 111.9 -55.92 113.82 C-59.07 115.03 -62.01 116.45 -65 118 C-82.36 127 -82.36 127 -88 127 C-88.33 127.99 -88.66 128.98 -89 130 C-91 131.17 -91 131.17 -93.44 132.19 C-94.24 132.53 -95.04 132.88 -95.87 133.23 C-98 134 -98 134 -100 134 C-100 134.66 -100 135.32 -100 136 C-101.71 136.82 -101.71 136.82 -103.94 137.56 C-107.92 138.92 -107.92 138.92 -109 140 C-112 140.25 -112 140.25 -115 140 C-115.33 139.01 -115.66 138.02 -116 137 C-116.66 137 -117.32 137 -118 137 C-118.21 134.49 -118.27 132.08 -118.26 129.56 C-118.26 128.77 -118.27 127.98 -118.27 127.17 C-118.28 124.54 -118.27 121.91 -118.27 119.28 C-118.27 117.47 -118.27 115.65 -118.27 113.83 C-118.27 110.02 -118.27 106.21 -118.26 102.39 C-118.25 97.49 -118.26 92.59 -118.27 87.68 C-118.28 83.93 -118.27 80.18 -118.27 76.43 C-118.27 74.62 -118.27 72.81 -118.27 71 C-118.28 68.48 -118.27 65.96 -118.26 63.44 C-118.26 62.68 -118.27 61.92 -118.27 61.14 C-118.26 59.42 -118.14 57.71 -118 56 C-117.34 56 -116.68 56 -116 56 C-115.67 55.01 -115.34 54.02 -115 53 C-112.35 51.61 -112.35 51.61 -109.06 50.31 C-107.98 49.88 -106.9 49.44 -105.79 48.99 C-103 48 -103 48 -101 48 C-101 47.01 -101 46.02 -101 45 C-99.68 45 -98.36 45 -97 45 C-97 44.34 -97 43.68 -97 43 C-94.6 41.68 -92.24 40.51 -89.75 39.38 C-89.07 39.05 -88.39 38.73 -87.68 38.39 C-84.16 36.76 -81.94 36 -78 36 C-78 35.34 -78 34.68 -78 34 C-75.42 33.34 -72.82 32.97 -70.19 32.56 C-69.47 32.38 -68.74 32.19 -68 32 C-68 31.34 -68 30.68 -68 30 C-66.4 29.03 -66.4 29.03 -64.16 28.01 C-63.34 27.63 -62.53 27.26 -61.69 26.87 C-60.82 26.48 -59.95 26.09 -59.06 25.69 C-53.25 23.04 -47.57 20.3 -42.01 17.14 C-35.68 13.56 -28.94 10.01 -21.77 8.54 C-21.47 8.45 -21.47 8.45 -20 8 C-20 7.34 -20 6.68 -20 6 C-13.35 2.96 -7.24 1.72 0 2 C0 1.34 0 0.68 0 0 Z " fill="#0570F9" transform="translate(320,26)"/>
<path d="M0 0 C2.12 2.09 2.92 3.46 3.37 6.41 C3.37 7.31 3.37 8.22 3.36 9.15 C3.37 9.67 3.37 9.67 3.38 12.32 C3.37 13.46 3.36 14.61 3.35 15.79 C3.35 17.01 3.35 18.23 3.35 19.49 C3.35 22.88 3.34 26.27 3.32 29.66 C3.3 33.31 3.3 36.97 3.3 40.62 C3.3 46.95 3.28 53.28 3.26 59.61 C3.22 68.76 3.21 77.92 3.2 87.07 C3.18 101.92 3.15 116.77 3.12 131.62 C3.11 132.51 3.11 133.4 3.11 134.31 C3.1 137.92 3.09 141.52 3.08 145.12 C3.06 155.05 3.04 164.97 3.01 174.9 C3.01 175.79 3.01 176.68 3.01 177.59 C2.98 192.39 2.95 207.19 2.93 221.99 C2.92 231.13 2.9 240.26 2.87 249.4 C2.85 255.65 2.84 261.9 2.83 268.16 C2.83 271.77 2.82 275.38 2.8 279 C2.78 282.9 2.78 286.81 2.78 290.71 C2.78 291.29 2.78 291.29 2.76 294.22 C2.76 294.74 2.76 294.74 2.76 297.36 C2.76 297.81 2.76 297.81 2.76 300.09 C2.84 300.72 2.92 301.35 3 302 C3.66 302 4.32 302 5 302 C8 308.12 8 308.12 8 312 C8.6 312.14 9.2 312.29 9.81 312.44 C12 313 12 313 13.25 314.81 C15.46 317.57 17.7 318.48 20.86 319.95 C22.85 320.93 24.6 322.01 26.44 323.25 C31.29 326.38 36.55 328.64 41.78 331.05 C46.16 333.08 50.21 335.26 54.22 337.98 C57.07 339.62 60.15 340.45 63.31 341.32 C63.59 341.44 63.59 341.44 65 342 C65 342.66 65 343.32 65 344 C66.98 344.73 68.99 345.38 71 346 C73.28 346.94 75.55 347.9 77.81 348.88 C78.42 349.14 79.03 349.4 79.66 349.67 C81.44 350.45 83.22 351.22 85 352 C85.46 352.2 85.46 352.2 87.8 353.21 C88.59 353.55 89.38 353.9 90.19 354.25 C90.86 354.54 91.54 354.84 92.23 355.14 C94 356 94 356 97 358 C97 358.66 97 359.32 97 360 C98.97 360.56 98.97 360.56 101.5 361 C104.03 361.44 104.03 361.44 106 362 C106 362.66 106 363.32 106 364 C106.76 364.14 107.53 364.29 108.31 364.44 C111.36 365.08 111.91 365.83 114 368 C115.65 368.7 117.32 369.36 119 370 C122.71 371.58 126.37 373.25 130 375 C130.82 375.39 131.64 375.79 132.49 376.19 C136.29 378.24 137.73 379.14 139.06 383.38 C136.86 390.89 129.31 393.93 122.84 397.55 C116.32 401.09 110.15 403.99 102.81 405.46 C102.21 405.64 101.61 405.82 101 406 C101 406.66 101 407.32 101 408 C99.68 408 98.36 408 97 408 C97 408.66 97 409.32 97 410 C95.5 410.96 95.5 410.96 93.44 411.94 C92.71 412.29 91.98 412.63 91.22 412.99 C88.17 414.38 85.08 415.69 82 417 C76.14 419.71 76.14 419.71 75 422 C72.94 422.88 70.85 423.68 68.75 424.44 C65.43 425.63 62.45 426.72 59.47 428.61 C54.45 431.43 48.53 431.2 43 430 C37.77 428.03 33.02 425.06 28.21 422.24 C24.57 420.19 20.79 418.44 17 416.69 C16.29 416.36 15.57 416.02 14.84 415.68 C8.85 412.91 2.86 410.16 -3.25 407.69 C-9.97 404.83 -16.47 401.17 -22.69 397.35 C-25 396 -25 396 -28.31 394.94 C-29.2 394.63 -30.09 394.32 -31 394 C-31 393.34 -31 392.68 -31 392 C-33.25 391.44 -33.25 391.44 -36 391 C-38.31 390.56 -38.31 390.56 -40 390 C-40 389.34 -40 388.68 -40 388 C-40.7 387.88 -41.4 387.75 -42.12 387.62 C-45 387 -45 387 -47.88 385.06 C-51 383 -51 383 -54.75 381.94 C-58 381 -58 381 -60 378 C-62.64 377.01 -62.64 377.01 -65.81 376.12 C-70.86 374.54 -73.51 373.07 -77 369 C-78.24 368.13 -79.49 367.28 -80.75 366.44 C-86.38 362.33 -90.02 356.64 -94 351 C-94.27 350.65 -94.27 350.65 -95.61 348.88 C-99.57 343.64 -101 339.48 -101 333 C-101.66 333 -102.32 333 -103 333 C-104.02 326.58 -104.15 320.24 -104.14 313.75 C-104.14 313.25 -104.14 313.25 -104.15 310.74 C-104.16 307.42 -104.16 304.11 -104.16 300.8 C-104.17 298.42 -104.17 296.04 -104.18 293.65 C-104.19 287.2 -104.2 280.74 -104.2 274.28 C-104.2 270.24 -104.21 266.2 -104.21 262.16 C-104.22 250.95 -104.23 239.75 -104.24 228.55 C-104.24 228.19 -104.24 228.19 -104.24 226.38 C-104.24 225.66 -104.24 224.94 -104.24 224.2 C-104.24 222.75 -104.24 221.3 -104.24 219.84 C-104.24 219.12 -104.24 218.4 -104.24 217.66 C-104.24 205.98 -104.26 194.31 -104.29 182.63 C-104.31 170.62 -104.32 158.61 -104.32 146.6 C-104.32 139.86 -104.33 133.13 -104.35 126.39 C-104.36 120.06 -104.37 113.72 -104.36 107.38 C-104.36 105.06 -104.36 102.75 -104.37 100.43 C-104.49 71.23 -104.49 71.23 -98 60 C-97.34 60 -96.68 60 -96 60 C-95.63 58.68 -95.31 57.34 -95 56 C-91.85 47.65 -87.32 41.23 -80 36 C-78.36 35.28 -76.69 34.61 -75 34 C-74.05 33.36 -73.1 32.72 -72.12 32.06 C-68 29.34 -63.69 27.61 -59.06 25.94 C-58.38 25.63 -57.7 25.32 -57 25 C-57 24.34 -57 23.68 -57 23 C-54.55 22.04 -54.55 22.04 -51.31 21.06 C-47.11 19.79 -43.73 18.29 -40 16 C-38.84 15.69 -37.69 15.38 -36.5 15.06 C-32.79 13.94 -30.9 12.51 -28 10 C-25.26 8.39 -24.24 8 -21 8 C-21 7.34 -21 6.68 -21 6 C-19.17 5.25 -19.17 5.25 -16.75 4.56 C-13.96 3.71 -12.21 3.17 -9.94 1.31 C-6.63 -0.93 -3.92 -0.44 0 0 Z " fill="#042B65" transform="translate(145,100)"/>
<path d="M0 0 C39.19 -1.53 39.19 -1.53 53.65 6.11 C53.65 7.1 53.65 8.09 53.65 9.11 C55.59 9.61 55.59 9.61 58.65 10.11 C60.26 10.56 61.87 11.04 63.46 11.54 C63.86 11.67 63.86 11.67 65.86 12.29 C66.45 12.56 67.04 12.83 67.65 13.11 C67.65 13.77 67.65 14.43 67.65 15.11 C68.64 15.11 69.63 15.11 70.65 15.11 C70.65 15.77 70.65 16.43 70.65 17.11 C71.97 17.11 73.29 17.11 74.65 17.11 C74.65 17.77 74.65 18.43 74.65 19.11 C76.31 19.46 77.98 19.79 79.65 20.11 C79.98 20.44 79.98 20.44 81.65 22.11 C82.62 22.38 83.59 22.64 84.59 22.92 C88.27 24.35 88.89 25.68 90.65 29.11 C91.31 29.44 91.97 29.77 92.65 30.11 C92.65 30.77 92.65 31.43 92.65 32.11 C93.97 32.79 95.31 33.46 96.65 34.11 C100.45 36.9 103.41 39.96 106.4 43.61 C107.18 44.55 107.96 45.48 108.76 46.45 C110.65 49.11 110.65 49.11 111.17 51.33 C111.24 51.62 111.24 51.62 111.65 53.11 C112.27 53.42 112.9 53.73 113.54 54.04 C116.43 55.5 117.04 57.22 118.4 60.11 C118.83 60.99 119.26 61.88 119.7 62.79 C120.65 65.11 120.65 65.11 120.65 67.11 C121.64 67.44 122.63 67.77 123.65 68.11 C124.39 70.08 125.04 72.09 125.65 74.11 C126.29 75.45 126.93 76.78 127.59 78.11 C137.01 99.66 134.9 128.11 126.71 149.78 C125.54 152.35 124.12 154.69 122.65 157.11 C122.34 157.93 122.03 158.76 121.71 159.61 C120.65 162.11 120.65 162.11 118.59 164.67 C116.65 167.11 116.65 167.11 116.21 169.17 C115.34 172.16 113.08 173.21 110.65 175.11 C109.5 176.36 108.38 177.63 107.27 178.92 C104.91 181.68 102.5 184.38 99.96 186.98 C99.42 187.54 98.88 188.09 98.33 188.66 C95.46 191.13 93.45 192.11 89.65 192.11 C88.98 193.44 88.31 194.77 87.65 196.11 C82.74 200.27 74.36 207.11 67.65 207.11 C67.65 207.77 67.65 208.43 67.65 209.11 C65.56 209.85 65.56 209.85 62.71 210.54 C58.37 211.65 54.14 212.89 49.92 214.36 C27.97 221.59 1.47 220.67 -21.29 218.23 C-22.03 218.15 -22.77 218.08 -23.53 218 C-25.5 217.74 -25.5 217.74 -28.35 217.11 C-28.35 216.45 -28.35 215.79 -28.35 215.11 C-30.97 214.51 -33.52 214.02 -36.16 213.61 C-43.96 212.37 -43.96 212.37 -47.35 210.11 C-48.84 209.55 -50.34 209.03 -51.85 208.54 C-52.62 208.3 -53.4 208.05 -54.19 207.79 C-54.91 207.57 -55.62 207.34 -56.35 207.11 C-57.34 206.78 -58.33 206.45 -59.35 206.11 C-59.35 205.45 -59.35 204.79 -59.35 204.11 C-60.18 203.94 -61 203.78 -61.85 203.61 C-62.68 203.44 -63.5 203.28 -64.35 203.11 C-64.35 202.45 -64.35 201.79 -64.35 201.11 C-66.01 200.43 -67.68 199.77 -69.35 199.11 C-74.41 196.33 -78.32 193.25 -82.35 189.11 C-84.73 187.56 -87.11 186.23 -89.66 184.98 C-93.28 182.46 -95.4 179.38 -97.91 175.79 C-98.38 175.14 -98.85 174.49 -99.33 173.82 C-102.09 169.97 -104.76 166.07 -107.35 162.11 C-107.89 161.29 -108.44 160.48 -109 159.64 C-110.59 156.66 -111.31 153.9 -112.04 150.61 C-112.29 149.5 -112.54 148.4 -112.8 147.26 C-113.35 144.11 -113.35 144.11 -113.31 141.2 C-113.32 140.51 -113.34 139.82 -113.35 139.11 C-114.01 139.11 -114.67 139.11 -115.35 139.11 C-115.95 137.2 -115.95 137.2 -116.41 134.61 C-116.57 133.77 -116.73 132.94 -116.89 132.08 C-117.04 131.1 -117.19 130.12 -117.35 129.11 C-117.53 127.97 -117.71 126.83 -117.9 125.66 C-118.66 119.38 -118.49 113.05 -118.48 106.73 C-118.48 105.45 -118.48 104.17 -118.49 102.85 C-118.49 101.62 -118.48 100.4 -118.48 99.15 C-118.48 98.03 -118.48 96.92 -118.48 95.78 C-118.35 93.11 -118.35 93.11 -117.35 91.11 C-117.22 89.78 -117.12 88.44 -117.04 87.11 C-116.47 81.57 -115.02 74.67 -110.87 70.68 C-108.75 68.49 -108.04 66.14 -106.98 63.29 C-104.99 58.32 -102.96 55.01 -99.35 51.11 C-99 50.39 -98.65 49.66 -98.29 48.92 C-97.09 46.6 -95.43 45.65 -93.35 44.11 C-93.02 43.12 -92.69 42.13 -92.35 41.11 C-86.64 34.91 -79.89 29.94 -73.16 24.92 C-72.45 24.39 -71.74 23.85 -71.01 23.3 C-62.72 17.11 -62.72 17.11 -56.35 17.11 C-56.35 16.45 -56.35 15.79 -56.35 15.11 C-51.99 12.23 -47.74 10.41 -42.76 8.92 C-40.35 8.11 -40.35 8.11 -37.09 6.62 C-33.15 4.9 -29.2 4.17 -24.98 3.48 C-17.47 2.22 -17.47 2.22 -16.35 1.11 C-10.93 0.39 -5.46 0.25 0 0 Z " fill="#07A6E8" transform="translate(1848.3505859375,234.892578125)"/>
<path d="M0 0 C0.46 0.28 0.46 0.28 2.77 1.69 C10.82 6.65 10.82 6.65 12 9 C12.37 9.1 12.37 9.1 14.25 9.62 C19.12 12.06 21.08 17.03 23.31 21.81 C24 24 24 24 24 27 C24.66 27 25.32 27 26 27 C28.39 32.15 28.28 37.12 28.26 42.68 C28.26 43.16 28.26 43.16 28.27 45.58 C28.28 48.73 28.27 51.87 28.27 55.02 C28.27 57.21 28.27 59.4 28.27 61.59 C28.27 66.17 28.27 70.74 28.26 75.32 C28.25 81.21 28.26 87.09 28.27 92.98 C28.28 97.49 28.27 102.01 28.27 106.52 C28.27 108.69 28.27 110.86 28.27 113.03 C28.28 116.06 28.27 119.08 28.26 122.1 C28.26 123.01 28.27 123.91 28.27 124.85 C28.26 126.9 28.14 128.95 28 131 C27.34 131 26.68 131 26 131 C26.03 131.53 26.03 131.53 26.19 134.19 C26.34 140.79 23.93 148.65 19.54 153.66 C18.06 154.82 16.53 155.91 15 157 C14.09 158.16 13.22 159.35 12.38 160.56 C6.24 168.99 -0.74 177.07 -10.89 180.28 C-13.76 181.26 -15.67 183.1 -18 185 C-20.02 185.83 -22.05 186.54 -24.13 187.19 C-26 188 -26 188 -27.49 189.59 C-29 191 -29 191 -33 191 C-33 191.66 -33 192.32 -33 193 C-34.88 193.72 -36.76 194.43 -38.66 195.09 C-42.66 196.65 -46.29 198.86 -50 201 C-51.62 201.9 -53.25 202.79 -54.88 203.69 C-57.34 205.05 -59.65 206.43 -62 208 C-63.15 208.31 -64.31 208.62 -65.5 208.94 C-69.08 210.02 -69.56 210.52 -72 213 C-73.55 213.95 -75.14 214.84 -76.75 215.69 C-77.71 216.2 -78.68 216.72 -79.67 217.25 C-81.43 218.17 -83.19 219.1 -84.95 220.02 C-86.31 220.74 -87.67 221.46 -89.03 222.18 C-90.37 222.88 -91.71 223.59 -93.05 224.28 C-95.69 225.67 -97.88 226.88 -100 229 C-103.28 230.32 -106.6 231.5 -109.93 232.68 C-112.78 233.9 -113.94 234.84 -116 237 C-116.99 237 -117.98 237 -119 237 C-119 237.66 -119 238.32 -119 239 C-120.84 239.89 -120.84 239.89 -123.38 240.81 C-128.04 242.58 -132.44 244.65 -136.87 246.95 C-139 248 -139 248 -142 249 C-142 249.66 -142 250.32 -142 251 C-145.37 253.13 -148.6 254.83 -152.28 256.38 C-156.13 258.01 -159.77 259.94 -163.44 261.94 C-164.75 262.65 -166.07 263.35 -167.39 264.06 C-168.01 264.4 -168.64 264.73 -169.28 265.08 C-178.11 269.81 -178.11 269.81 -181.21 270.47 C-181.8 270.65 -182.39 270.82 -183 271 C-183 271.66 -183 272.32 -183 273 C-185.59 274.61 -186.89 275 -190 275 C-190 275.66 -190 276.32 -190 277 C-191.33 277.33 -192.67 277.67 -194 278 C-194 278.66 -194 279.32 -194 280 C-196.48 281.29 -196.48 281.29 -199.75 282.62 C-200.82 283.07 -201.88 283.52 -202.98 283.98 C-206 285 -206 285 -210 285 C-210 285.66 -210 286.32 -210 287 C-227.81 292.86 -255.92 293.58 -272.93 285.14 C-275.86 283.53 -278.76 281.88 -281.66 280.23 C-284.92 278.51 -288.3 277.2 -291.74 275.89 C-293.92 275.03 -295.98 274.2 -298 273 C-298 272.34 -298 271.68 -298 271 C-299.97 270.26 -301.98 269.61 -304 269 C-309.59 267.17 -314.68 264.72 -319.88 262 C-320.54 261.66 -321.21 261.31 -321.9 260.96 C-325.15 259.22 -326.92 258.12 -329 255 C-329.31 252.5 -329.31 252.5 -329 250 C-325.04 245.31 -318.98 243.35 -313.38 241.25 C-308.33 239.3 -303.82 236.62 -299.2 233.86 C-294.87 231.34 -290.77 229.74 -285.89 228.67 C-284 228 -284 228 -282 225 C-279.69 223.83 -279.69 223.83 -277 222.81 C-276.56 222.64 -276.56 222.64 -274.31 221.77 C-272 221 -272 221 -270 221 C-270 220.34 -270 219.68 -270 219 C-269.34 218.75 -268.68 218.5 -268 218.25 C-265.3 217.13 -263.89 216.18 -261.69 214.38 C-254.51 208.81 -239.13 199 -230 199 C-230 198.34 -230 197.68 -230 197 C-227.35 195.56 -224.73 194.26 -222 193 C-221.2 192.63 -220.41 192.25 -219.59 191.87 C-216.25 190.29 -212.89 188.73 -209.54 187.18 C-208.72 186.8 -207.91 186.42 -207.07 186.02 C-206.7 185.85 -206.7 185.85 -204.84 184.99 C-203 184 -203 184 -201 182 C-199.34 181.31 -197.67 180.65 -196 180 C-190.33 177.33 -190.33 177.33 -188 175 C-186.41 174.33 -184.81 173.71 -183.19 173.12 C-180.02 171.91 -177.97 170.98 -175.31 168.81 C-172.31 166.46 -169.72 166.5 -166 166 C-165.67 165.01 -165.34 164.02 -165 163 C-162.4 161.35 -161.14 161 -158 161 C-158 160.34 -158 159.68 -158 159 C-156.19 158.34 -154.37 157.68 -152.54 157.05 C-149.52 155.8 -146.86 154.2 -144.06 152.5 C-139.73 149.89 -135.73 147.98 -130.84 146.7 C-129 146 -129 146 -127.5 144.42 C-126 143 -126 143 -122 143 C-122 142.01 -122 141.02 -122 140 C-120.14 139.09 -120.14 139.09 -117.69 138.38 C-116.89 138.14 -116.09 137.9 -115.26 137.65 C-114.89 137.54 -114.89 137.54 -113 137 C-112.01 136.67 -111.02 136.34 -110 136 C-109.67 135.01 -109.34 134.02 -109 133 C-105.71 130.81 -104.74 131 -101 131 C-101 130.34 -101 129.68 -101 129 C-98.67 127.98 -96.34 126.99 -94 126 C-93.67 125.34 -93.34 124.68 -93 124 C-90.04 122.61 -87.12 121.36 -84 120.35 C-74.4 117.17 -68.48 110.18 -63.93 101.36 C-61.27 94.61 -60.71 88.48 -60.81 81.31 C-60.81 80.48 -60.81 79.66 -60.81 78.8 C-60.87 70.52 -60.87 70.52 -62 67 C-62.66 67 -63.32 67 -64 67 C-64.29 65.93 -64.58 64.86 -64.88 63.75 C-66.04 59.85 -67.12 58.69 -70 56 C-70 55.01 -70 54.02 -70 53 C-71.64 52.79 -73.29 52.6 -74.94 52.44 C-78.1 51.77 -80.36 50 -83 48.2 C-84.99 47 -86.69 46.38 -88.94 45.81 C-89.95 45.54 -90.96 45.28 -92 45 C-93.64 41.73 -93.79 38.51 -93 35 C-87.72 29.72 -81 28.15 -74 26 C-66.19 23.38 -66.19 23.38 -65 21 C-63.02 19.96 -61.02 18.97 -59 18 C-58.13 17.44 -57.27 16.89 -56.38 16.31 C-54 15 -54 15 -50 15 C-49.67 14.01 -49.34 13.02 -49 12 C-46.52 10.54 -46.52 10.54 -43.38 9.06 C-39.82 7.37 -36.36 5.68 -33 3.62 C-30 2 -30 2 -26 2 C-25.67 1.01 -25.34 0.02 -25 -1 C-17.18 -4.3 -7.2 -4.75 0 0 Z " fill="#08C3C5" transform="translate(570,301)"/>
<path d="M0 0 C3.19 0.02 6.39 0 9.58 -0.02 C23.37 -0.03 34.64 1.11 47.18 7.2 C50.69 8.75 54.25 9.71 57.97 10.62 C58.6 10.87 59.22 11.13 59.87 11.39 C60.2 12.38 60.53 13.37 60.87 14.39 C63.19 15.08 65.53 15.75 67.87 16.39 C67.87 17.05 67.87 17.71 67.87 18.39 C69.76 19.48 71.69 20.32 73.69 21.18 C79.72 23.88 84.18 27.8 88.87 32.39 C89.16 32.67 89.16 32.67 90.61 34.06 C99.85 43.72 106.42 56.43 111.43 68.7 C111.75 69.48 112.08 70.25 112.41 71.05 C116.88 82.6 117.18 94.51 117.07 106.73 C117.06 109.05 117.05 111.36 117.05 113.68 C117.05 115.16 117.04 116.64 117.04 118.12 C117.04 118.81 117.03 119.49 117.03 120.2 C117 123.21 116.83 125.51 115.87 128.39 C113.17 128.74 113.17 128.74 109.48 128.7 C108.8 128.69 108.13 128.69 107.43 128.69 C105.15 128.67 102.87 128.64 100.59 128.6 C98.97 128.59 97.34 128.58 95.71 128.57 C92.2 128.54 88.69 128.51 85.18 128.46 C79.63 128.4 74.09 128.36 68.54 128.33 C52.77 128.24 37 128.12 21.23 127.95 C12.53 127.86 3.83 127.79 -4.88 127.76 C-10.4 127.74 -15.92 127.68 -21.44 127.6 C-24.86 127.55 -28.28 127.54 -31.71 127.54 C-33.3 127.53 -34.9 127.51 -36.5 127.48 C-45.24 127.29 -45.24 127.29 -49.13 128.39 C-49.7 132.2 -49.73 133.13 -48.13 136.39 C-45.9 138.98 -45.9 138.98 -43.13 141.39 C-42.24 142.44 -41.37 143.5 -40.52 144.58 C-35.53 150.83 -31.74 155.42 -24.13 158.39 C-23.24 159.07 -22.36 159.75 -21.44 160.45 C-16.37 163.42 -10.87 164.3 -5.13 165.39 C-4.21 165.58 -3.29 165.77 -2.33 165.97 C2 166.54 6.26 166.54 10.62 166.52 C11.51 166.51 12.39 166.51 13.31 166.51 C19.22 166.46 25.03 166.36 30.87 165.39 C30.87 164.73 30.87 164.07 30.87 163.39 C33.07 162.72 33.07 162.72 36.12 162.08 C41.88 160.75 47.07 158.78 52.47 156.38 C54.87 155.39 54.87 155.39 56.87 155.39 C57.54 154.06 58.2 152.73 58.87 151.39 C60.64 149.47 60.64 149.47 62.68 147.64 C63.35 147.03 64.01 146.41 64.7 145.78 C67.4 144.05 68.73 143.72 71.87 144.39 C73.24 146.45 73.24 146.45 74.87 149.39 C77.09 151.84 79.48 154.1 81.87 156.39 C88.46 162.72 88.46 162.72 90.38 165.92 C92.95 170.18 96.84 173.32 100.48 176.66 C101.06 177.21 101.63 177.76 102.23 178.33 C102.76 178.82 103.29 179.32 103.84 179.82 C104.87 181.39 104.87 181.39 104.64 183.47 C102.74 188.22 97.41 191.72 92.87 193.7 C92.21 193.93 91.55 194.16 90.87 194.39 C90.87 195.05 90.87 195.71 90.87 196.39 C88.81 197.69 88.81 197.69 85.99 199.14 C82.15 201.15 78.5 203.26 74.87 205.64 C70.34 208.44 66.18 209.36 60.92 209.97 C60.58 210.04 60.58 210.04 58.87 210.39 C58.87 211.05 58.87 211.71 58.87 212.39 C56.28 213.22 53.76 213.9 51.12 214.52 C50.75 214.61 50.75 214.61 48.91 215.07 C45.44 215.91 42.45 216.39 38.87 216.39 C38.87 217.05 38.87 217.71 38.87 218.39 C11.48 223.92 -21.4 222.52 -47.13 211.39 C-48.54 210.86 -49.96 210.34 -51.38 209.83 C-54.76 208.58 -57.93 207.06 -61.13 205.39 C-61.91 205.04 -62.7 204.69 -63.51 204.33 C-64.04 204.02 -64.58 203.71 -65.13 203.39 C-65.13 202.73 -65.13 202.07 -65.13 201.39 C-66.02 201.25 -66.9 201.1 -67.82 200.95 C-71.4 200.35 -73.16 199.42 -76.13 197.39 C-76.44 197.19 -76.44 197.19 -78 196.15 C-81.74 193.61 -81.74 193.61 -83.13 192.39 C-83.13 191.73 -83.13 191.07 -83.13 190.39 C-83.68 190.12 -84.22 189.85 -84.78 189.57 C-87.91 188 -90.17 185.87 -92.76 183.52 C-93.72 182.65 -94.68 181.79 -95.67 180.9 C-97.84 178.69 -98.88 177.14 -100.13 174.39 C-100.91 173.83 -101.7 173.28 -102.51 172.7 C-105.65 169.93 -106.62 167.44 -108.16 163.61 C-109.13 161.39 -109.13 161.39 -111.19 158.45 C-113.45 154.89 -114.39 151.53 -115.42 147.47 C-116.13 145.39 -116.13 145.39 -118.13 144.39 C-123.37 133.59 -123.34 120.98 -123.44 109.27 C-123.46 108.17 -123.48 107.07 -123.5 105.94 C-123.49 97.11 -122.13 89.3 -118.13 81.39 C-117.86 80.4 -117.59 79.41 -117.32 78.39 C-115.8 72.85 -113.43 67.64 -111.13 62.39 C-110.78 61.55 -110.44 60.72 -110.08 59.85 C-102.74 43.46 -85.57 26.19 -69.13 19.39 C-67.32 18.29 -65.53 17.17 -63.76 16.02 C-43.46 2.88 -23.86 -0.14 0 0 Z " fill="#062C64" transform="translate(1089.131103515625,235.60888671875)"/>
<path d="M0 0 C0.74 -0.01 1.48 -0.01 2.24 -0.02 C4.68 -0.03 7.12 -0.02 9.56 -0.01 C11.26 -0.01 12.95 -0.02 14.65 -0.02 C18.2 -0.02 21.75 -0.02 25.3 -0 C29.86 0.01 34.42 0 38.98 -0.01 C42.48 -0.02 45.98 -0.02 49.48 -0.01 C51.16 -0.01 52.84 -0.01 54.52 -0.02 C56.87 -0.03 59.21 -0.02 61.56 0 C61.91 -0 61.91 -0 63.68 -0.02 C65.61 0.01 65.61 0.01 68.71 0.39 C70.74 3.42 70.97 3.99 70.97 7.39 C70.98 8.21 70.99 9.02 70.99 9.86 C70.99 10.76 70.99 11.66 70.99 12.58 C70.99 13.53 71 14.49 71 15.47 C71.02 18.67 71.02 21.88 71.02 25.09 C71.03 27.38 71.03 29.67 71.04 31.96 C71.06 36.91 71.07 41.85 71.08 46.79 C71.09 54.6 71.12 62.41 71.15 70.22 C71.18 81.17 71.21 92.11 71.24 103.05 C71.24 103.4 71.24 103.4 71.24 105.16 C71.24 105.51 71.24 105.51 71.25 107.27 C71.27 117.13 71.29 126.99 71.32 136.85 C71.32 137.2 71.32 137.2 71.33 138.96 C71.36 150.52 71.4 162.08 71.43 173.64 C71.46 181.41 71.48 189.18 71.49 196.95 C71.5 201.78 71.52 206.6 71.53 211.43 C71.54 213.67 71.54 215.92 71.54 218.16 C71.55 221.22 71.56 224.27 71.57 227.32 C71.57 227.77 71.57 227.77 71.57 230.05 C71.6 236.16 71.6 236.16 72.71 238.39 C74.93 238.64 74.93 238.64 77.93 238.65 C79.06 238.66 80.2 238.67 81.36 238.68 C81.99 238.68 81.99 238.68 85.16 238.68 C87.17 238.69 89.18 238.7 91.19 238.71 C93.36 238.72 95.53 238.72 97.7 238.72 C102.22 238.73 106.73 238.75 111.25 238.78 C120.84 238.83 130.43 238.86 140.03 238.89 C150.37 238.92 160.72 238.96 171.06 239.01 C175.55 239.04 180.04 239.05 184.53 239.06 C186.65 239.06 188.77 239.07 190.9 239.08 C193.48 239.09 196.07 239.1 198.66 239.1 C199.8 239.11 200.94 239.11 202.12 239.12 C202.61 239.12 202.61 239.12 205.12 239.13 C207.82 239.4 209.46 239.89 211.71 241.39 C212.22 243.54 212.22 243.54 212.23 246.25 C212.24 247.26 212.26 248.27 212.27 249.31 C212.26 250.41 212.25 251.51 212.25 252.63 C212.25 253.76 212.25 254.88 212.26 256.03 C212.26 258.41 212.25 260.79 212.24 263.16 C212.21 266.81 212.24 270.45 212.26 274.09 C212.26 276.4 212.25 278.7 212.25 281.01 C212.25 282.1 212.26 283.2 212.27 284.32 C212.26 284.83 212.26 284.83 212.23 287.4 C212.23 288.29 212.23 289.18 212.22 290.1 C211.71 292.39 211.71 292.39 210.22 294.01 C206.59 296.01 203.09 295.8 199.05 295.77 C198.16 295.77 197.28 295.78 196.37 295.78 C193.4 295.8 190.43 295.79 187.46 295.78 C185.34 295.78 183.21 295.79 181.09 295.79 C175.31 295.81 169.53 295.8 163.76 295.79 C157.72 295.78 151.68 295.79 145.65 295.8 C135.51 295.8 125.37 295.79 115.24 295.78 C103.5 295.76 91.77 295.77 80.04 295.78 C69.98 295.8 59.91 295.8 49.85 295.79 C43.84 295.79 37.82 295.79 31.81 295.8 C26.15 295.81 20.5 295.8 14.85 295.78 C12.77 295.78 10.69 295.78 8.61 295.79 C5.78 295.79 2.96 295.78 0.13 295.77 C-0.7 295.78 -1.54 295.78 -2.39 295.79 C-4.68 295.77 -4.68 295.77 -8.29 295.39 C-10.45 292.14 -10.54 291.26 -10.54 287.51 C-10.54 287.01 -10.54 287.01 -10.56 284.45 C-10.55 283.34 -10.55 282.22 -10.55 281.08 C-10.55 279.9 -10.55 278.71 -10.56 277.5 C-10.57 274.22 -10.57 270.93 -10.56 267.65 C-10.56 264.11 -10.57 260.58 -10.58 257.04 C-10.59 250.1 -10.59 243.17 -10.59 236.24 C-10.59 230.61 -10.59 224.97 -10.59 219.34 C-10.59 218.54 -10.59 217.74 -10.59 216.91 C-10.59 215.29 -10.6 213.66 -10.6 212.03 C-10.61 196.77 -10.61 181.51 -10.6 166.24 C-10.59 152.27 -10.61 138.29 -10.63 124.32 C-10.64 109.98 -10.65 95.64 -10.65 81.3 C-10.65 73.24 -10.65 65.19 -10.66 57.14 C-10.68 50.28 -10.68 43.42 -10.66 36.57 C-10.66 33.07 -10.66 29.57 -10.67 26.07 C-10.68 22.28 -10.67 18.49 -10.66 14.7 C-10.67 13.59 -10.67 12.47 -10.68 11.33 C-10.67 10.31 -10.67 9.3 -10.66 8.26 C-10.66 7.39 -10.66 6.51 -10.66 5.61 C-9.66 -0.33 -5.05 -0.04 0 0 Z " fill="#052C65" transform="translate(739.285400390625,156.61181640625)"/>
<path d="M0 0 C2.72 -0.54 4.85 -0.68 7.59 -0.65 C7.99 -0.65 7.99 -0.65 10 -0.67 C12.65 -0.7 15.29 -0.68 17.93 -0.66 C19.76 -0.67 21.59 -0.67 23.42 -0.68 C27.26 -0.69 31.1 -0.68 34.94 -0.65 C39.87 -0.62 44.8 -0.64 49.73 -0.67 C53.51 -0.69 57.29 -0.68 61.08 -0.67 C62.89 -0.67 64.71 -0.67 66.53 -0.68 C69.07 -0.69 71.61 -0.67 74.15 -0.65 C74.9 -0.66 75.66 -0.67 76.43 -0.68 C78.53 -0.63 78.53 -0.63 82 0 C83.8 2.42 83.8 2.42 85 5 C85.99 5.66 86.98 6.32 88 7 C88 8.32 88 9.64 88 11 C88.66 11 89.32 11 90 11 C94.48 15.79 98.52 20.99 101.88 26.62 C104 30 104 30 107 31 C108.21 32.67 108.21 32.67 109.38 34.75 C110.99 37.49 112.34 39.34 114.62 41.62 C117.23 44.23 118.44 46.68 120 50 C120.56 50.74 121.11 51.49 121.69 52.25 C123 54 123 54 123 56 C124.32 56 125.64 56 127 56 C128.04 54.27 128.04 54.27 129 52 C130.07 50.52 131.18 49.06 132.31 47.62 C132.93 46.84 133.55 46.05 134.19 45.24 C135.69 43.39 137.21 41.56 138.75 39.75 C141 37 141 37 142.36 34.64 C144.14 31.78 146.14 29.51 148.44 27.06 C150.99 24.29 153.41 21.62 155.44 18.44 C157 16 157 16 159 15 C159.47 14.01 159.95 13.02 160.44 12 C162 9 162 9 165 8 C166.37 5.71 167.15 3.54 168 1 C171.04 -0.52 174.22 -0.17 177.55 -0.19 C178.33 -0.2 179.11 -0.21 179.92 -0.22 C182.5 -0.24 185.08 -0.26 187.66 -0.27 C188.54 -0.28 189.42 -0.28 190.33 -0.29 C194.98 -0.32 199.63 -0.34 204.28 -0.35 C209.09 -0.37 213.91 -0.41 218.73 -0.46 C222.42 -0.5 226.12 -0.51 229.81 -0.51 C231.59 -0.52 233.36 -0.54 235.14 -0.56 C237.62 -0.59 240.1 -0.59 242.57 -0.58 C243.32 -0.6 244.06 -0.62 244.82 -0.63 C246.86 -0.61 246.86 -0.61 250 0 C251.1 2.35 251.1 2.35 251 5 C248.87 7.98 246.72 10.33 244.06 12.81 C240.88 16.19 238.51 20.1 236 24 C235.67 24.5 235.67 24.5 234 27 C233.01 27 232.02 27 231 27 C231 27.66 231 28.32 231 29 C230.34 29 229.68 29 229 29 C228.86 29.36 228.86 29.36 228.14 31.2 C226.83 34.42 225.19 36.28 222.81 38.81 C222 39.69 221.2 40.57 220.36 41.47 C219.97 41.89 219.97 41.89 218 44 C212.79 49.6 208.44 55.58 204.21 61.95 C201.31 65.95 197.92 69.14 194.31 72.5 C192 75 192 75 191 77.5 C189.67 80.82 187.54 82.48 185 85 C182.4 87.98 179.88 91.04 177.37 94.09 C177.12 94.39 177.12 94.39 175.84 95.92 C175.39 96.46 174.94 97.01 174.48 97.57 C173 99 173 99 170.84 100.07 C170.24 100.37 169.63 100.68 169 101 C168.65 103.02 168.65 103.02 168.94 105.38 C169.01 106.15 169.08 106.92 169.15 107.71 C170.32 110.87 172.37 111.95 175 114 C176.91 116.76 176.91 116.76 178.62 119.69 C181.67 124.89 181.67 124.89 185 126 C185.69 127.66 186.35 129.33 187 131 C189.32 134.39 191.98 136.84 195.12 139.44 C198.59 142.38 199.88 144.53 201 149 C201.49 149.5 201.99 149.99 202.5 150.5 C204 152 204 152 204.94 155.06 C206 158 206 158 207.88 159.12 C208.23 159.27 208.23 159.27 210 160 C211.35 161.31 212.69 162.64 214 164 C214.66 164.33 215.32 164.66 216 165 C216 166.67 216 168.33 216 170 C216.66 170 217.32 170 218 170 C218 170.66 218 171.32 218 172 C218.99 172.33 219.98 172.66 221 173 C222.01 174.72 223.01 176.45 223.95 178.22 C225.3 180.51 227.1 182.16 229 184 C229 184.66 229 185.32 229 186 C229.66 186 230.32 186 231 186 C232.51 187.46 232.51 187.46 234.12 189.38 C234.66 190 235.2 190.63 235.76 191.27 C237 193 237 193 237 195 C237.56 195.26 238.13 195.52 238.71 195.79 C241.82 197.43 243.48 199.65 245.69 202.38 C246.48 203.33 247.26 204.29 248.07 205.27 C249.77 207.67 250.72 209.11 251 212 C249.03 213.97 245.24 213.23 242.55 213.27 C242.16 213.28 242.16 213.28 240.18 213.32 C232.97 213.46 225.76 213.54 218.55 213.6 C213.7 213.64 208.85 213.7 204 213.81 C199.32 213.91 194.64 213.97 189.96 213.99 C188.17 214 186.39 214.04 184.6 214.09 C170.6 214.47 170.6 214.47 166.62 210.82 C165.07 208.25 164.02 205.81 163 203 C161.85 201.21 161.85 201.21 160.69 199.71 C159.21 197.78 157.72 195.84 156.24 193.89 C155.5 192.94 154.76 191.98 154 191 C153.35 190.16 152.71 189.32 152.04 188.45 C143.52 177.4 143.52 177.4 139.62 173.81 C136.4 170.36 134.15 166.58 131.75 162.52 C129.98 159.97 128.75 158.44 126 157 C123.15 156.87 121.65 157.41 119.53 159.33 C117.9 161.08 116.38 162.89 114.88 164.75 C114.35 165.37 113.83 165.99 113.29 166.63 C111.04 169.33 109.05 171.92 107.26 174.95 C106.84 175.63 106.43 176.3 106 177 C105.34 177 104.68 177 104 177 C103.67 177.66 103.34 178.32 103 179 C102.67 179.66 102.34 180.32 102 181 C101.34 181 100.68 181 100 181 C99.75 181.66 99.51 182.31 99.25 182.99 C97.49 187.23 94.75 190.52 91.94 194.12 C90.84 195.54 89.74 196.96 88.65 198.38 C88.17 199.01 87.68 199.63 87.18 200.27 C86 202 86 202 85 205 C83.38 206.71 81.71 208.37 80 210 C79.61 210.54 79.21 211.08 78.81 211.63 C75.97 213.78 72.91 213.43 69.48 213.42 C68.72 213.43 67.96 213.44 67.17 213.45 C64.65 213.47 62.13 213.47 59.61 213.47 C57.86 213.48 56.12 213.48 54.37 213.49 C50.71 213.51 47.05 213.51 43.39 213.5 C38.69 213.5 33.98 213.53 29.27 213.57 C25.67 213.59 22.06 213.59 18.46 213.59 C16.72 213.59 14.98 213.6 13.25 213.62 C10.83 213.64 8.42 213.63 6 213.62 C5.27 213.63 4.54 213.64 3.79 213.66 C1.82 213.62 1.82 213.62 -1 213 C-1.06 210.46 -1.06 210.46 0 208 C0.66 208 1.32 208 2 208 C2.14 207.41 2.29 206.83 2.43 206.22 C3.12 203.54 4.16 202.44 6.06 200.44 C10.89 195.13 15.92 189.3 19.06 182.81 C20.31 180.4 22.25 179.15 24.35 177.49 C26.81 175.27 28.61 172.67 30.51 169.96 C32.17 167.77 34.05 165.94 36 164 C37.11 162.64 38.19 161.27 39.25 159.88 C41.85 156.48 44.5 153.13 47.19 149.81 C49.99 146.32 52.59 142.79 55 139 C61.49 129.17 61.49 129.17 65 128 C65.33 127.5 65.33 127.5 67 125 C67.66 125 68.32 125 69 125 C69.33 123.67 69.67 122.33 70 121 C71.3 119.18 71.3 119.18 72.88 117.44 C73.39 116.86 73.9 116.28 74.43 115.68 C75.92 114.09 77.46 112.54 79 111 C81.11 108.48 82.76 106.36 83 103 C82.01 103 81.02 103 80 103 C78.61 101.28 78.61 101.28 77.19 98.94 C73.77 93.55 70.35 88.57 65 85 C65 84.34 65 83.68 65 83 C64.34 83 63.68 83 63 83 C63 82.34 63 81.68 63 81 C62.01 80.67 61.02 80.34 60 80 C58.99 78.34 57.99 76.67 57 75 C56.11 74.11 55.23 73.23 54.31 72.31 C53.55 71.55 52.79 70.79 52 70 C52 69.34 52 68.68 52 68 C51.01 67.67 50.02 67.34 49 67 C47.57 64.89 47.57 64.89 46.12 62.25 C44.37 59.18 42.77 56.49 40.19 54.06 C38 52 38 52 37 49 C36.01 49 35.02 49 34 49 C33.3 47.69 32.64 46.35 32 45 C31.41 44.42 30.82 43.83 30.22 43.23 C27.68 40.68 25.59 37.95 23.44 35.06 C22.67 34.04 21.91 33.02 21.12 31.97 C19.27 29.38 17.63 26.74 16 24 C15.44 23.44 14.89 22.89 14.31 22.31 C13.88 21.88 13.45 21.45 13 21 C13 20.34 13 19.68 13 19 C12.01 18.67 11.02 18.34 10 18 C10 17.34 10 16.68 10 16 C9.68 15.86 9.68 15.86 8.06 15.12 C7.38 14.75 6.7 14.38 6 14 C5.64 12.67 5.3 11.34 5 10 C4.01 9.67 3.02 9.34 2 9 C2 8.01 2 7.02 2 6 C1.01 5.67 0.02 5.34 -1 5 C-1.16 2.48 -1.16 2.48 0 0 Z " fill="#0AC5CA" transform="translate(1975,239)"/>
<path d="M0 0 C1.04 -0 2.08 -0 3.16 -0 C5.35 -0 7.54 -0 9.73 0 C13.08 0.01 16.43 0 19.78 -0 C21.92 -0 24.05 -0 26.19 0 C27.19 -0 28.19 -0 29.21 -0.01 C30.15 -0 31.08 0 32.05 0 C32.46 0 32.46 0 34.52 0.01 C41.1 0.36 41.1 0.36 43.68 2.87 C45.12 5.56 45.29 7.29 45.31 10.33 C45.33 11.36 45.35 12.4 45.36 13.46 C45.36 14.57 45.36 15.68 45.36 16.83 C45.37 17.97 45.38 19.12 45.39 20.29 C45.4 22.71 45.4 25.13 45.4 27.54 C45.39 31.25 45.44 34.96 45.48 38.67 C45.49 41.01 45.49 43.36 45.49 45.7 C45.5 46.82 45.52 47.93 45.54 49.08 C45.53 50.11 45.52 51.14 45.51 52.2 C45.51 53.1 45.51 54.01 45.52 54.95 C44.89 57.13 44.89 57.13 42.58 58.42 C39.08 59.35 35.7 59.45 32.1 59.48 C31.36 59.49 30.61 59.51 29.84 59.52 C27.46 59.57 25.09 59.6 22.71 59.63 C-0.99 59.95 -0.99 59.95 -11.48 64.76 C-15.18 66.45 -16.95 67.13 -21.11 67.13 C-21.11 67.79 -21.11 68.45 -21.11 69.13 C-22.27 70.2 -23.49 71.21 -24.73 72.2 C-32.82 79.08 -37.84 87.98 -38.91 98.56 C-39.26 103.17 -39.28 107.77 -39.29 112.39 C-39.3 113.48 -39.31 114.57 -39.32 115.69 C-39.34 118.04 -39.35 120.39 -39.37 122.73 C-39.39 126.45 -39.41 130.16 -39.44 133.88 C-39.51 142.43 -39.56 150.97 -39.62 159.52 C-39.67 168 -39.73 176.48 -39.8 184.95 C-39.82 188.62 -39.84 192.28 -39.87 195.95 C-39.88 198.18 -39.9 200.42 -39.92 202.65 C-39.92 203.68 -39.92 204.7 -39.93 205.75 C-39.94 206.69 -39.95 207.62 -39.95 208.58 C-39.96 209.39 -39.96 210.2 -39.97 211.04 C-40.11 213.13 -40.11 213.13 -41.11 216.13 C-43.92 217.54 -46.28 217.28 -49.44 217.29 C-50.08 217.3 -50.73 217.3 -51.4 217.31 C-53.55 217.32 -55.7 217.33 -57.85 217.34 C-59.34 217.34 -60.84 217.35 -62.33 217.35 C-65.46 217.36 -68.59 217.37 -71.72 217.37 C-75.73 217.38 -79.74 217.4 -83.76 217.43 C-86.84 217.45 -89.92 217.45 -93 217.46 C-94.48 217.46 -95.96 217.47 -97.44 217.48 C-99.51 217.5 -101.58 217.5 -103.65 217.49 C-104.82 217.49 -106 217.5 -107.21 217.5 C-110.11 217.13 -110.11 217.13 -111.76 215.93 C-113.56 213.53 -113.48 212.04 -113.49 209.06 C-113.49 208.01 -113.5 206.96 -113.51 205.87 C-113.51 205.3 -113.51 205.3 -113.49 202.38 C-113.5 201.17 -113.5 199.96 -113.51 198.71 C-113.52 195.38 -113.52 192.05 -113.51 188.71 C-113.5 185.22 -113.51 181.73 -113.51 178.24 C-113.52 172.37 -113.51 166.49 -113.5 160.62 C-113.48 153.85 -113.49 147.08 -113.5 140.32 C-113.52 134.49 -113.52 128.67 -113.51 122.85 C-113.51 119.38 -113.5 115.91 -113.51 112.43 C-113.52 108.55 -113.51 104.67 -113.49 100.79 C-113.5 99.65 -113.51 98.51 -113.51 97.34 C-113.46 91.28 -112.84 86.09 -110.86 80.35 C-109.83 77.33 -109.19 74.26 -108.54 71.14 C-108.39 70.48 -108.25 69.82 -108.11 69.13 C-107.96 68.39 -107.82 67.64 -107.68 66.88 C-107.58 66.59 -107.58 66.59 -107.11 65.13 C-106.45 65.13 -105.79 65.13 -105.11 65.13 C-104.54 63.38 -104.54 63.38 -104.11 61.13 C-103.67 58.88 -103.67 58.88 -103.11 57.13 C-102.45 57.13 -101.79 57.13 -101.11 57.13 C-100.57 55.35 -100.57 55.35 -100.11 53.13 C-95.01 40.73 -85.47 32.16 -75.11 24.13 C-74.45 23.47 -73.79 22.81 -73.11 22.13 C-72.68 22.14 -72.68 22.14 -70.54 22.2 C-70.14 22.19 -70.14 22.19 -68.11 22.13 C-67.94 21.64 -67.94 21.64 -67.11 19.13 C-66.12 18.8 -65.13 18.47 -64.11 18.13 C-63.55 17.53 -62.99 16.94 -62.42 16.32 C-48.65 3.29 -17.97 -0.04 0 0 Z " fill="#062C65" transform="translate(1343.10546875,234.8671875)"/>
<path d="M0 0 C1.69 1.64 3.36 3.31 5 5 C7.58 6.84 10.22 8.54 12.89 10.25 C15.24 12.2 15.47 13.1 16 16 C16.66 16 17.32 16 18 16 C19.22 17.91 19.22 17.91 20.5 20.5 C20.92 21.34 21.35 22.17 21.78 23.03 C24.41 29.44 25.37 35.39 25.31 42.25 C25.31 42.99 25.3 43.72 25.3 44.48 C25.1 54.16 22.73 62.58 18 71 C17.67 71.73 17.34 72.46 17 73.22 C16.67 73.81 16.34 74.39 16 75 C15.34 75 14.68 75 14 75 C13.84 75.5 13.84 75.5 13 78 C12.34 78 11.68 78 11 78 C10.71 78.58 10.42 79.15 10.12 79.75 C6.65 86.71 -0.72 90.79 -7.74 93.41 C-10 94 -10 94 -14 94 C-14 94.66 -14 95.32 -14 96 C-26 101.55 -42.61 98.67 -54.62 94.57 C-60.37 92.43 -66.29 90.02 -71 86 C-71 85.34 -71 84.68 -71 84 C-71.49 83.84 -71.49 83.84 -74 83 C-75.68 81.36 -75.68 81.36 -77.44 79.31 C-77.73 78.98 -77.73 78.98 -79.18 77.3 C-83.36 72.01 -85.8 67.52 -87.25 61 C-87.42 60.25 -87.59 59.51 -87.76 58.74 C-90.17 47.25 -89.89 34.43 -87 23 C-85.05 20.07 -85.05 20.07 -83 18 C-82.34 18 -81.68 18 -81 18 C-80.93 17.7 -80.93 17.7 -80.56 16.19 C-79.89 13.57 -78.92 12.85 -77 11 C-76.57 10.24 -76.13 9.47 -75.69 8.69 C-72.34 3.36 -68.88 0.23 -63 -2 C-61.47 -2.82 -59.95 -3.66 -58.44 -4.5 C-40.51 -13.47 -16.58 -10.44 0 0 Z " fill="#F3F9FB" transform="translate(1888,302)"/>
<path d="M0 0 C0.87 -0 1.75 -0.01 2.65 -0.02 C5.56 -0.03 8.47 -0.04 11.38 -0.04 C13.4 -0.05 15.42 -0.05 17.44 -0.06 C21.69 -0.07 25.93 -0.08 30.18 -0.08 C35.6 -0.08 41.03 -0.11 46.46 -0.14 C50.64 -0.16 54.81 -0.16 58.99 -0.16 C60.99 -0.17 62.99 -0.17 64.99 -0.19 C67.8 -0.2 70.61 -0.2 73.41 -0.2 C74.23 -0.2 75.06 -0.21 75.9 -0.22 C81.43 -0.18 85.63 0.8 90.66 3.16 C90.66 3.82 90.66 4.48 90.66 5.16 C91.38 5.26 92.1 5.37 92.85 5.47 C96.59 6.39 98.04 8.41 100.66 11.16 C101.99 11.84 103.32 12.51 104.66 13.16 C104.66 13.82 104.66 14.48 104.66 15.16 C105.32 15.16 105.98 15.16 106.66 15.16 C112.24 26.55 112.06 39.98 108.9 52.13 C106.74 57.41 103.33 61.86 98.66 65.16 C95.37 65.3 95.37 65.3 92.66 65.16 C92.66 65.82 92.66 66.48 92.66 67.16 C89.11 68.76 86.12 69.26 82.28 69.16 C81.09 69.16 79.89 69.16 78.66 69.16 C78.66 69.82 78.66 70.48 78.66 71.16 C76.01 71.36 73.45 71.42 70.8 71.4 C69.96 71.41 69.13 71.41 68.27 71.41 C65.48 71.41 62.7 71.4 59.92 71.39 C57.99 71.39 56.07 71.39 54.15 71.39 C50.11 71.39 46.07 71.38 42.03 71.37 C36.84 71.35 31.65 71.35 26.46 71.35 C22.49 71.35 18.51 71.34 14.54 71.33 C12.62 71.33 10.71 71.33 8.8 71.33 C6.13 71.33 3.45 71.32 0.78 71.31 C-0.02 71.31 -0.81 71.31 -1.63 71.31 C-7.11 71.28 -7.11 71.28 -9.34 70.16 C-9.59 67.43 -9.59 67.43 -9.58 63.73 C-9.58 63.06 -9.59 62.39 -9.59 61.69 C-9.59 59.46 -9.58 57.23 -9.57 55 C-9.57 53.46 -9.57 51.92 -9.57 50.38 C-9.57 47.14 -9.56 43.9 -9.55 40.66 C-9.53 36.5 -9.53 32.34 -9.53 28.18 C-9.53 24.99 -9.52 21.81 -9.51 18.62 C-9.51 17.08 -9.51 15.55 -9.51 14.01 C-9.5 11.87 -9.5 9.73 -9.49 7.59 C-9.48 6.37 -9.48 5.15 -9.47 3.89 C-9.2 -1.72 -4.5 0.01 0 0 Z " fill="#FAFCFC" transform="translate(1521.340087890625,326.8388671875)"/>
<path d="M0 0 C8.96 -0.91 17.85 -0.73 26.82 -0.22 C27.29 -0.2 27.29 -0.2 29.65 -0.07 C42.04 0.67 54.36 1.92 66.63 3.78 C67.62 3.92 68.61 4.07 69.62 4.22 C69.96 4.31 69.96 4.31 71.63 4.78 C71.63 5.44 71.63 6.1 71.63 6.78 C73.32 7.31 73.32 7.31 75.63 7.78 C79.23 8.73 82.48 9.77 85.63 11.78 C86.92 14.15 87.52 16.2 88.04 18.85 C88.23 19.49 88.43 20.12 88.63 20.78 C89.13 20.94 89.13 20.94 91.63 21.78 C91.63 23.1 91.63 24.42 91.63 25.78 C92.29 25.78 92.95 25.78 93.63 25.78 C95.9 36.42 94.61 45.14 89.18 54.59 C84.65 61 79.04 63.19 71.63 64.78 C71.63 65.44 71.63 66.1 71.63 66.78 C67.48 68.05 63.23 67.92 58.92 67.91 C58.54 67.91 58.54 67.91 56.62 67.91 C54.12 67.92 51.62 67.91 49.12 67.91 C47.38 67.91 45.64 67.91 43.9 67.91 C40.26 67.91 36.63 67.91 32.99 67.91 C28.31 67.9 23.64 67.9 18.97 67.91 C15.38 67.91 11.79 67.91 8.21 67.91 C6.48 67.91 4.76 67.91 3.03 67.91 C0.63 67.91 -1.77 67.91 -4.17 67.91 C-4.89 67.91 -5.61 67.91 -6.35 67.91 C-11.25 67.89 -11.25 67.89 -12.37 66.78 C-15.05 56.44 -16.44 45.83 -17.37 35.21 C-17.43 34.47 -17.5 33.72 -17.56 32.95 C-18.77 17.43 -18.17 2.6 0 0 Z " fill="#F4F9F9" transform="translate(1524.3652038574219,207.22389221191406)"/>
<path d="M0 0 C2.93 1.16 5.42 2.45 8.06 4.16 C8.55 4.47 8.55 4.47 11 6.03 C17.76 10.65 24.78 15.94 27.06 24.16 C27.06 25.15 27.06 26.14 27.06 27.16 C27.72 27.16 28.38 27.16 29.06 27.16 C29.75 30.1 29.75 30.1 30.06 33.16 C27.91 35.31 22.94 34.33 19.95 34.34 C19 34.35 18.04 34.35 17.06 34.36 C13.88 34.38 10.7 34.39 7.53 34.4 C6.99 34.4 6.99 34.4 4.25 34.41 C-1.46 34.44 -7.17 34.45 -12.88 34.46 C-18.81 34.47 -24.73 34.5 -30.66 34.54 C-35.19 34.57 -39.73 34.58 -44.26 34.58 C-46.45 34.59 -48.63 34.6 -50.82 34.62 C-53.87 34.64 -56.91 34.64 -59.96 34.63 C-60.87 34.65 -61.79 34.66 -62.73 34.67 C-65.22 34.65 -65.22 34.65 -68.94 34.16 C-68.94 32.84 -68.94 31.52 -68.94 30.16 C-68.28 30.16 -67.62 30.16 -66.94 30.16 C-66.79 29.44 -66.65 28.72 -66.5 27.98 C-65.03 20.63 -58.48 13.04 -52.78 8.41 C-49.09 5.99 -47.5 5.16 -42.94 5.16 C-42.94 4.5 -42.94 3.84 -42.94 3.16 C-40.38 2.35 -40.38 2.35 -37.06 1.6 C-25.23 -1.1 -12.16 -3.24 0 0 Z " fill="#E7ECEE" transform="translate(1108.9375,288.8359375)"/>
<path d="M0 0 C0.87 -0 1.75 -0.01 2.65 -0.02 C5.56 -0.03 8.47 -0.04 11.38 -0.04 C13.4 -0.05 15.42 -0.05 17.44 -0.06 C21.69 -0.07 25.93 -0.08 30.18 -0.08 C35.6 -0.08 41.03 -0.11 46.46 -0.14 C50.64 -0.16 54.81 -0.16 58.99 -0.16 C60.99 -0.17 62.99 -0.17 64.99 -0.19 C67.8 -0.2 70.61 -0.2 73.41 -0.2 C74.23 -0.2 75.06 -0.21 75.9 -0.22 C81.44 -0.18 85.59 0.88 90.66 3.16 C90.66 3.49 90.66 3.82 90.66 4.16 C89.08 4.26 87.49 4.29 85.91 4.29 C85.03 4.29 84.15 4.29 83.24 4.29 C80.66 4.16 80.66 4.16 79 3.73 C64.77 0.27 49.54 -0.54 34.97 -1.53 C34.49 -1.56 34.49 -1.56 32.05 -1.73 C0.77 -3.71 0.77 -3.71 -7.97 3.51 C-17.46 13.8 -18.11 28.96 -17.79 42.23 C-17.27 51.12 -15.31 60.16 -9.04 66.82 C2.61 76.05 24.5 72.71 38.22 71.85 C39.31 71.78 40.39 71.72 41.5 71.65 C55.27 70.76 68.98 69.4 82.63 67.45 C84.5 67.18 86.36 66.94 88.23 66.71 C89.03 66.53 89.83 66.35 90.66 66.16 C90.66 65.5 90.66 64.84 90.66 64.16 C91.32 63.91 91.98 63.67 92.66 63.41 C97.72 61.3 101.81 57.67 106.03 54.22 C106.3 54.05 106.3 54.05 107.66 53.16 C106.01 57.84 102.36 61.96 98.66 65.16 C95.22 65.54 95.22 65.54 92.66 65.16 C92.66 65.82 92.66 66.48 92.66 67.16 C89.11 68.76 86.12 69.26 82.28 69.16 C81.09 69.16 79.89 69.16 78.66 69.16 C78.66 69.82 78.66 70.48 78.66 71.16 C76.01 71.36 73.45 71.42 70.8 71.4 C69.96 71.41 69.13 71.41 68.27 71.41 C65.48 71.41 62.7 71.4 59.92 71.39 C57.99 71.39 56.07 71.39 54.15 71.39 C50.11 71.39 46.07 71.38 42.03 71.37 C36.84 71.35 31.65 71.35 26.46 71.35 C22.49 71.35 18.51 71.34 14.54 71.33 C12.62 71.33 10.71 71.33 8.8 71.33 C6.13 71.33 3.45 71.32 0.78 71.31 C-0.02 71.31 -0.81 71.31 -1.63 71.31 C-7.11 71.28 -7.11 71.28 -9.34 70.16 C-9.59 67.43 -9.59 67.43 -9.58 63.73 C-9.58 63.06 -9.59 62.39 -9.59 61.69 C-9.59 59.46 -9.58 57.23 -9.57 55 C-9.57 53.46 -9.57 51.92 -9.57 50.38 C-9.57 47.14 -9.56 43.9 -9.55 40.66 C-9.53 36.5 -9.53 32.34 -9.53 28.18 C-9.53 24.99 -9.52 21.81 -9.51 18.62 C-9.51 17.08 -9.51 15.55 -9.51 14.01 C-9.5 11.87 -9.5 9.73 -9.49 7.59 C-9.48 6.37 -9.48 5.15 -9.47 3.89 C-9.2 -1.72 -4.5 0.01 0 0 Z " fill="#8BC0F4" transform="translate(1521.340087890625,326.8388671875)"/>
<path d="M0 0 C0.33 0.17 0.33 0.17 2 1 C4.4 10.29 4.37 20.04 4.38 29.56 C4.4 30.91 4.42 32.27 4.45 33.62 C4.45 34.9 4.46 36.18 4.46 37.5 C4.47 38.66 4.48 39.81 4.49 41 C3.88 44.75 2.98 45.7 0 48 C-3.02 48.49 -3.02 48.49 -6.64 48.47 C-7.3 48.47 -7.97 48.47 -8.66 48.47 C-10.88 48.48 -13.11 48.45 -15.34 48.42 C-16.94 48.42 -18.54 48.42 -20.14 48.41 C-23.58 48.41 -27.02 48.39 -30.46 48.36 C-35.89 48.32 -41.32 48.3 -46.75 48.29 C-55.33 48.27 -63.91 48.22 -72.5 48.17 C-87.89 48.09 -103.28 48.02 -118.67 47.97 C-124.08 47.96 -129.49 47.93 -134.9 47.89 C-138.25 47.87 -141.6 47.86 -144.95 47.85 C-146.51 47.84 -148.08 47.83 -149.64 47.82 C-151.76 47.8 -153.88 47.79 -156 47.79 C-157.19 47.78 -158.38 47.77 -159.6 47.77 C-160 47.8 -160 47.8 -162 48 C-161.67 48.66 -161.34 49.32 -161 50 C-160.75 53.25 -160.75 53.25 -161 56 C-164 54 -164 54 -164.83 52.07 C-165.19 49.51 -165.33 48.24 -164 46 C-159.02 44.83 -153.92 45.39 -148.85 45.68 C-147.23 45.74 -145.6 45.8 -143.98 45.86 C-140.46 45.98 -136.95 46.13 -133.44 46.29 C-127.9 46.53 -122.36 46.69 -116.81 46.82 C-114.91 46.87 -113.02 46.91 -111.12 46.96 C-110.18 46.98 -109.23 47.01 -108.25 47.03 C-95.33 47.35 -82.41 47.75 -69.5 48.35 C-60.79 48.76 -52.1 49.03 -43.39 49.16 C-38.77 49.23 -34.17 49.37 -29.56 49.67 C-5.99 51.16 -5.99 51.16 1 46 C5.52 35.15 3.14 22.5 1.35 11.22 C0.76 7.48 0.28 3.78 0 0 Z " fill="#919EB5" transform="translate(1204,318)"/>
<path d="M0 0 C8.96 -0.91 17.85 -0.73 26.82 -0.22 C27.29 -0.2 27.29 -0.2 29.65 -0.07 C58.99 1.68 58.99 1.68 71.63 4.78 C71.63 5.11 71.63 5.44 71.63 5.78 C69.11 5.55 66.62 5.26 64.11 4.94 C4.87 -2.09 4.87 -2.09 -10.37 5.78 C-17.22 12.03 -19.52 20.32 -20.2 29.3 C-20.29 31.44 -20.32 33.57 -20.3 35.71 C-20.3 36.42 -20.29 37.13 -20.29 37.86 C-20.04 48.2 -18.11 58.34 -10.37 65.78 C0.72 71.95 15.93 70.52 28.13 69.96 C28.59 69.94 28.59 69.94 30.91 69.84 C41.22 69.33 51.5 68.51 61.75 67.26 C63.37 67.06 65 66.91 66.63 66.78 C66.63 67.11 66.63 67.44 66.63 67.78 C64.24 67.88 61.88 67.91 59.49 67.91 C59.11 67.91 59.11 67.91 57.19 67.91 C54.66 67.92 52.13 67.91 49.61 67.91 C47.86 67.91 46.11 67.91 44.37 67.91 C40.7 67.91 37.03 67.91 33.36 67.91 C28.65 67.9 23.94 67.9 19.23 67.91 C15.62 67.91 12.01 67.91 8.4 67.91 C6.66 67.91 4.92 67.91 3.19 67.91 C0.76 67.91 -1.67 67.91 -4.09 67.91 C-4.45 67.91 -4.45 67.91 -6.29 67.91 C-11.25 67.89 -11.25 67.89 -12.37 66.78 C-15.05 56.44 -16.44 45.83 -17.37 35.21 C-17.43 34.47 -17.5 33.72 -17.56 32.95 C-18.77 17.43 -18.17 2.6 0 0 Z " fill="#82B9F2" transform="translate(1524.3652038574219,207.22389221191406)"/>
</svg>
