<?xml version="1.0" standalone="no"?>
<!DOCTYPE svg PUBLIC "-//W3C//DTD SVG 20010904//EN"
 "http://www.w3.org/TR/2001/REC-SVG-20010904/DTD/svg10.dtd">
<svg version="1.0" xmlns="http://www.w3.org/2000/svg"
 width="5120.000000pt" height="3412.000000pt" viewBox="0 0 5120.000000 3412.000000"
 preserveAspectRatio="xMidYMid meet">
<metadata>
Created by potrace 1.16, written by Peter Selinger 2001-2019
</metadata>
<g transform="translate(0.000000,3412.000000) scale(0.100000,-0.100000)"
fill="#000000" stroke="none">
<path d="M8215 21424 c-49 -25 -94 -49 -100 -54 -9 -7 -85 -47 -290 -154 -38
-20 -77 -41 -85 -46 -8 -6 -26 -15 -40 -21 -14 -5 -61 -30 -105 -54 -44 -24
-109 -58 -145 -75 -93 -46 -313 -175 -347 -205 -165 -143 -294 -283 -342 -375
-61 -113 -97 -199 -131 -305 -75 -237 -70 -50 -70 -2773 0 -2367 1 -2443 19
-2551 11 -61 22 -115 25 -120 4 -5 11 -32 16 -61 21 -111 112 -295 209 -425
59 -79 201 -219 243 -241 18 -9 42 -24 53 -34 23 -21 166 -104 305 -177 113
-60 339 -189 360 -207 8 -7 26 -18 40 -24 14 -7 75 -39 135 -72 61 -33 126
-67 145 -76 19 -9 53 -28 75 -43 22 -15 86 -54 143 -87 57 -32 120 -69 140
-81 20 -12 57 -32 82 -46 25 -13 97 -53 160 -89 63 -36 135 -76 160 -90 44
-25 113 -65 175 -100 17 -9 62 -32 100 -51 127 -62 266 -56 375 17 19 13 64
40 100 60 36 20 108 63 160 96 52 32 98 59 103 59 4 1 29 16 55 34 26 18 58
38 72 45 14 7 39 21 55 32 17 11 46 29 65 40 19 11 42 25 50 30 22 14 328 190
370 212 163 88 305 180 319 207 6 11 11 42 11 69 0 58 -8 67 -100 115 -134 70
-206 110 -229 128 -13 11 -30 19 -37 19 -8 0 -40 18 -71 40 -32 22 -62 40 -67
40 -5 0 -17 6 -25 14 -9 7 -61 37 -116 67 -55 29 -122 65 -150 81 -27 15 -63
35 -80 43 -16 9 -43 25 -60 35 -16 11 -45 27 -63 35 -17 8 -56 30 -85 48 -28
19 -59 37 -67 41 -8 4 -33 18 -55 31 -22 14 -66 38 -97 54 -31 15 -69 37 -85
48 -15 10 -39 24 -53 31 -53 25 -156 84 -171 98 -8 8 -21 14 -28 14 -6 0 -26
10 -44 22 -115 79 -273 168 -296 168 -11 0 -24 6 -28 14 -4 8 -22 22 -39 32
-17 11 -54 33 -83 50 -75 45 -179 142 -203 189 -11 22 -31 60 -43 85 -13 25
-30 70 -40 100 -46 152 -45 54 -45 3150 0 1603 -3 2926 -7 2940 -10 40 -23 50
-67 50 -29 0 -68 -14 -131 -46z"/>
<path d="M19684 20236 c-17 -8 -34 -22 -38 -31 -3 -10 -7 -1323 -7 -2918 l0
-2900 21 -21 21 -21 1927 -3 c1060 -2 1956 0 1990 3 96 10 92 -16 91 548 -1
422 -3 480 -18 508 -9 19 -26 36 -41 39 -14 3 -587 7 -1274 8 -1117 1 -1252 3
-1265 17 -14 14 -16 254 -18 2368 -1 1294 -5 2362 -8 2375 -3 12 -17 27 -31
32 -15 6 -280 10 -672 10 -520 -1 -653 -3 -678 -14z"/>
<path d="M30865 18659 c-190 -7 -263 -17 -450 -63 -203 -50 -229 -57 -249 -72
-11 -8 -28 -14 -37 -14 -15 0 -59 -17 -146 -56 -17 -8 -34 -14 -38 -14 -14 0
-190 -104 -198 -117 -4 -7 -15 -13 -24 -13 -59 0 -406 -314 -502 -454 -58 -85
-144 -231 -171 -291 -89 -196 -160 -411 -160 -482 0 -16 -10 -63 -22 -104
l-22 -74 -3 -1230 c-2 -676 -1 -1245 2 -1263 4 -19 16 -39 33 -50 24 -16 75
-17 607 -20 l580 -3 27 28 27 28 3 1120 c3 1051 4 1126 22 1210 10 50 24 106
31 125 7 19 18 53 25 75 30 96 108 228 186 314 108 121 260 204 478 264 75 20
99 21 346 19 146 -2 302 -4 347 -5 63 -2 86 2 98 13 12 13 16 52 20 210 2 107
7 333 11 501 8 353 5 372 -54 389 -20 5 -51 10 -69 10 -18 0 -54 4 -80 10 -62
12 -376 17 -618 9z"/>
<path d="M26045 18648 c-215 -20 -523 -101 -700 -183 -214 -99 -288 -141 -455
-261 -69 -49 -323 -288 -361 -340 -21 -29 -43 -55 -48 -59 -22 -13 -231 -343
-231 -364 0 -4 -24 -61 -53 -127 -47 -104 -70 -177 -133 -414 -15 -55 -25
-131 -45 -338 -9 -98 -8 -140 10 -310 12 -108 27 -222 35 -252 8 -30 22 -91
32 -135 21 -102 102 -321 131 -357 6 -7 14 -24 18 -38 15 -50 168 -286 252
-390 83 -103 221 -235 313 -300 50 -36 107 -78 126 -94 20 -16 48 -36 64 -45
16 -9 65 -37 109 -63 44 -25 91 -50 103 -54 13 -4 34 -15 47 -25 13 -11 31
-19 40 -19 9 -1 34 -9 56 -20 42 -20 257 -90 335 -109 280 -68 444 -85 755
-76 223 7 417 32 600 76 198 49 381 109 460 152 18 9 132 69 203 106 15 7 38
23 52 36 14 12 40 28 58 35 18 7 52 27 75 44 23 17 52 38 63 46 12 8 62 50
110 93 96 86 121 125 103 160 -15 29 -86 113 -179 213 -70 75 -194 211 -287
314 -22 25 -59 73 -83 108 -41 61 -65 82 -92 82 -7 0 -49 -32 -93 -71 -185
-162 -403 -268 -671 -326 -118 -25 -148 -27 -344 -28 -170 0 -228 3 -275 17
-33 9 -78 21 -100 26 -135 35 -323 128 -400 199 -11 10 -30 25 -42 34 -26 18
-115 120 -159 181 -52 73 -104 175 -120 236 -15 56 -15 57 7 72 19 13 213 15
1511 15 l1490 0 29 33 29 32 -1 263 c0 255 -4 313 -33 502 -35 232 -133 515
-242 704 -33 56 -67 115 -76 132 -9 17 -25 41 -36 53 -10 11 -37 48 -60 81
-33 50 -82 104 -152 171 -7 7 -20 20 -29 30 -24 26 -103 93 -148 127 -21 15
-55 41 -77 57 -21 17 -44 30 -51 30 -7 0 -18 6 -24 14 -40 48 -350 196 -506
241 -269 77 -627 110 -910 83z m485 -1028 c113 -32 244 -94 335 -159 62 -44
172 -159 218 -228 41 -61 92 -189 100 -251 4 -36 2 -45 -16 -57 -18 -11 -168
-14 -919 -14 -805 0 -899 1 -913 15 -10 10 -13 24 -10 38 16 54 53 136 85 187
70 111 89 136 162 210 138 140 360 245 593 283 71 11 291 -3 365 -24z"/>
</g>
</svg>
