<?xml version="1.0" encoding="UTF-8"?>
<!-- Generator: visioncortex VTracer 0.6.5 -->
<svg version="1.1" xmlns="http://www.w3.org/2000/svg" width="792" height="632">
<path d="M0 0 C3.48 0 6.96 0 10.44 -0.01 C118.56 -0.18 230.02 6.12 411.05 89.52 C471.59 151.73 492.33 247.51 498.48 392.23 C498.48 395 498.48 397.78 498.49 400.56 C498.71 488.76 488.49 579.79 411.05 700.49 C342.57 768.59 215.12 780 6.96 790.01 C3.48 790 0 790.01 -3.48 790.01 C-111.6 790.19 -223.06 783.89 -404.09 700.49 C-464.63 638.28 -485.37 542.49 -491.52 397.78 C-491.52 395 -491.52 392.23 -491.53 389.45 C-491.75 301.25 -481.53 210.22 -404.09 89.52 C-335.61 21.42 -208.16 10.01 0 0 Z " fill="#FAFCFC" transform="translate(392.51955485343933,-79.00361633300781)"/>
<path d="M0 0 C0.4 0.12 0.4 0.12 2.42 0.75 C4.62 1.5 4.62 1.5 8 3 C8.33 3.99 8.66 4.98 9 6 C11.43 6.97 13.75 7.77 16.25 8.5 C20.88 9.88 24.86 11.47 29 14 C32.13 15.41 35.32 16.7 38.5 18 C43.55 20.06 48.38 22.06 53 25 C54.66 25.67 56.33 26.34 58 27 C58.99 27.66 59.98 28.32 61 29 C61 29.66 61 30.32 61 31 C63.32 31.39 65.66 31.72 68 32 C68.66 32.33 69.32 32.66 70 33 C70 33.66 70 34.32 70 35 C70.99 35 71.98 35 73 35 C73 35.99 73 36.98 73 38 C74.61 38.51 76.23 39.01 77.88 39.41 C81.77 40.49 85.35 42.28 89 44 C89.78 44.36 90.55 44.71 91.35 45.08 C93.27 45.99 95.14 46.98 97 48 C97 48.66 97 49.32 97 50 C99.12 50.6 99.12 50.6 101.88 51.06 C106.83 51.92 106.83 51.92 109 53 C109 53.66 109 54.32 109 55 C110.72 55.75 110.72 55.75 113.06 56.44 C117.2 57.74 121.13 59.02 125 61 C125 61.99 125 62.98 125 64 C126.68 64.57 126.68 64.57 129 65 C130.74 65.62 132.47 66.26 134.19 66.94 C134.63 67.11 134.63 67.11 136.86 67.96 C139 69 139 69 140 71 C143.4 72.34 146.81 73.54 150.27 74.7 C152.21 75.39 154.11 76.19 156 77 C156.33 77.99 156.66 78.98 157 80 C157.99 80 158.98 80 160 80 C160 80.66 160 81.32 160 82 C160.26 82.06 160.26 82.06 161.56 82.38 C164.43 83.11 166.66 84.51 169.18 86.02 C171 87 171 87 174.44 88.12 C174.86 88.27 174.86 88.27 177 89 C177 89.66 177 90.32 177 91 C179.41 91.78 179.41 91.78 182.5 92.5 C185.59 93.22 185.59 93.22 188 94 C188 94.66 188 95.32 188 96 C188.8 96.27 189.61 96.54 190.44 96.81 C199.01 99.67 204.47 103.92 210 111 C210.68 111.8 211.36 112.61 212.06 113.44 C212.7 114.28 213.34 115.13 214 116 C214.47 116.56 214.95 117.13 215.43 117.71 C219.88 123.51 221.33 129.36 222.71 136.41 C223.08 138.29 223.53 140.15 224 142 C224.66 142 225.32 142 226 142 C227.24 146.91 227.15 151.85 227.12 156.88 C227.13 157.64 227.13 158.4 227.14 159.19 C227.12 166.32 226.76 173.33 224 180 C223.34 180.33 222.68 180.66 222 181 C220.93 184.04 220.07 187.12 219.2 190.21 C218 193 218 193 215.96 194.23 C215.32 194.48 214.67 194.74 214 195 C212.95 196.64 211.95 198.3 211 200 C210 201 209 202 208 203 C207.67 203.99 207.34 204.98 207 206 C206.34 206 205.68 206 205 206 C205 206.66 205 207.32 205 208 C202.42 210.34 199.52 212.29 196.69 214.31 C196.28 214.61 196.28 214.61 194.19 216.11 C188.37 220.21 182.63 223.39 176 226 C174.16 226.83 172.32 227.69 170.5 228.56 C169.71 228.94 168.91 229.31 168.09 229.69 C165.74 231.17 164.65 232.79 163 235 C161.12 235.76 159.24 236.5 157.32 237.15 C152.31 238.98 147.57 241.6 142.89 244.15 C141 245 141 245 138 245 C138 245.66 138 246.32 138 247 C135.66 248.22 135.66 248.22 132.62 249.5 C127.2 251.8 127.2 251.8 125 254 C123.68 254 122.36 254 121 254 C121 254.66 121 255.32 121 256 C118.94 256.94 118.94 256.94 116 258 C114.82 258.54 113.65 259.07 112.44 259.62 C109 261 109 261 105 261 C105 261.99 105 262.98 105 264 C102.88 265.17 102.88 265.17 100.12 266.19 C99.67 266.36 99.67 266.36 97.38 267.23 C95 268 95 268 93 268 C93 268.66 93 269.32 93 270 C90.88 271 90.88 271 88.12 272 C83.21 273.79 83.21 273.79 81 276 C79.28 276.75 77.55 277.49 75.81 278.2 C74 279 74 279 71.25 280.69 C69 282 69 282 66 282 C66 282.66 66 283.32 66 284 C64.46 284.93 64.46 284.93 62.38 285.88 C59.69 287.14 57.41 288.39 54.94 290.06 C51.75 292.16 48.51 293.51 45 295 C44.34 295.5 43.68 295.99 43 296.5 C40.78 298.16 38.48 299.14 35.93 300.18 C31.57 302.03 27.36 304.18 23.31 306.62 C20.92 308.05 18.59 309.01 16 310 C9.01 312.8 1.9 316.07 -4.14 320.61 C-6.26 322.2 -8.49 323.06 -10.95 324.05 C-13.42 325.19 -15.68 326.57 -18 328 C-22.84 330.97 -27.59 333.13 -32.94 335.06 C-33.28 335.22 -33.28 335.22 -35 336 C-35 336.66 -35 337.32 -35 338 C-36.67 338 -38.33 338 -40 338 C-40 338.66 -40 339.32 -40 340 C-42.2 341.02 -42.2 341.02 -45 342 C-51.19 344.22 -56.19 346.51 -61.21 350.83 C-63 352 -63 352 -67 352 C-67 352.66 -67 353.32 -67 354 C-71.88 358.15 -74.92 358.21 -81 358 C-81 358.66 -81 359.32 -81 360 C-94.09 362.11 -109.4 362.65 -122 358 C-122.33 357.34 -122.66 356.68 -123 356 C-125.67 355.47 -128.34 355.17 -131.04 354.86 C-134.23 353.93 -135.89 352.52 -138.32 350.33 C-141.43 347.87 -145.08 346.45 -148.69 344.88 C-150.19 344.21 -151.7 343.54 -153.2 342.87 C-153.86 342.58 -154.52 342.29 -155.19 342 C-157.22 340.88 -158.55 339.8 -160 338 C-160 337.01 -160 336.02 -160 335 C-160.99 334.67 -161.98 334.34 -163 334 C-164.84 329.24 -164.31 323.65 -164.38 318.62 C-164.41 317.6 -164.45 316.57 -164.49 315.51 C-164.59 307.01 -164.59 307.01 -161.68 303.32 C-158.67 300.71 -156.89 300.36 -153 300 C-153 299.34 -153 298.68 -153 298 C-150.58 296.79 -148.18 295.72 -145.69 294.69 C-144.22 294.06 -142.74 293.43 -141.27 292.8 C-138.74 291.73 -136.2 290.67 -133.66 289.61 C-128.38 287.33 -125 285.23 -121 281 C-118.21 279.85 -116.02 279 -113 279 C-113 278.34 -113 277.68 -113 277 C-110.95 276.34 -108.9 275.68 -106.84 275.05 C-102.32 273.38 -98.23 270.98 -94.03 268.64 C-91.66 267.36 -89.38 266.27 -86.88 265.31 C-84 264 -84 264 -82.56 261.94 C-80.67 259.59 -79.69 259.51 -76.81 258.88 C-75.55 258.59 -74.3 258.3 -73 258 C-73 257.34 -73 256.68 -73 256 C-71.13 255.32 -69.23 254.73 -67.31 254.19 C-62.15 252.56 -59.74 250.93 -56 247 C-51.04 244.27 -46.71 242 -41 242 C-40.67 241.01 -40.34 240.02 -40 239 C-38.68 239 -37.36 239 -36 239 C-36 238.34 -36 237.68 -36 237 C-34.39 236.15 -34.39 236.15 -32.25 235.38 C-31.55 235.11 -30.86 234.85 -30.14 234.59 C-28 234 -28 234 -24 234 C-24 233.34 -24 232.68 -24 232 C-21.84 230.6 -21.84 230.6 -18.94 229.06 C-17.93 228.53 -16.92 228 -15.89 227.45 C-13.69 226.34 -11.53 225.35 -9.25 224.44 C-6.59 223.26 -4.83 222.22 -2.56 220.5 C0.48 218.22 3.38 217.03 6.96 215.81 C9.18 214.93 11.01 213.81 13 212.5 C16.27 210.36 19.45 208.96 23.12 207.68 C27.05 206.26 30.45 204.4 33.81 201.94 C37.31 199.81 40.05 199.23 44.05 198.69 C46 198 46 198 47.08 196.06 C47.38 195.38 47.69 194.7 48 194 C52.63 190.91 57.45 188.94 62.67 187.03 C65.09 185.96 66.9 184.59 69 183 C69.66 183 70.32 183 71 183 C71 182.34 71 181.68 71 181 C71.66 181 72.32 181 73 181 C73 180.34 73 179.68 73 179 C74.89 178.53 76.77 178.07 78.67 177.64 C82.64 176.55 86.14 174.63 89.75 172.69 C90.49 172.31 91.23 171.93 92 171.54 C96.9 168.94 100.87 166.39 102.71 160.86 C103.33 155.04 102.7 150.25 100 145 C96.65 141.25 92.83 140.15 88.16 138.72 C85.49 137.83 83.28 136.64 81 135 C80.67 134.34 80.34 133.68 80 133 C79.28 132.71 78.56 132.42 77.81 132.12 C75 131 75 131 72.5 129.19 C68.49 126.41 63.93 124.98 59.39 123.29 C55.31 121.74 51.38 119.96 47.42 118.12 C43.52 116.31 39.55 114.64 35.57 113 C34.75 112.65 33.92 112.3 33.06 111.94 C32.29 111.62 31.52 111.3 30.72 110.96 C30.15 110.65 29.59 110.33 29 110 C29 109.34 29 108.68 29 108 C28.34 108 27.68 108 27 108 C26.34 107.01 25.68 106.02 25 105 C22.64 103.72 22.64 103.72 19.81 102.5 C18.83 102.07 17.84 101.64 16.82 101.2 C15.89 100.81 14.96 100.41 14 100 C13.31 99.69 12.61 99.37 11.89 99.05 C9.3 97.88 6.92 96.98 4.12 96.44 C3.77 96.37 3.77 96.37 2 96 C1.67 95.34 1.34 94.68 1 94 C-1.46 92.58 -3.9 91.27 -6.44 90 C-7.11 89.64 -7.79 89.29 -8.48 88.92 C-21.87 82.17 -40.12 81.59 -54.44 85.69 C-58.57 87.2 -61.98 89.03 -65.4 91.77 C-69.4 94.84 -74.14 96.74 -78.88 98.38 C-82.1 99.53 -84.8 101.04 -87.69 102.88 C-92.55 105.9 -97.54 107.9 -102.92 109.82 C-106.07 111.03 -109.01 112.45 -112 114 C-129.36 123 -129.36 123 -135 123 C-135.33 123.99 -135.66 124.98 -136 126 C-138 127.17 -138 127.17 -140.44 128.19 C-141.24 128.53 -142.04 128.88 -142.87 129.23 C-145 130 -145 130 -147 130 C-147 130.66 -147 131.32 -147 132 C-148.71 132.82 -148.71 132.82 -150.94 133.56 C-154.92 134.92 -154.92 134.92 -156 136 C-159 136.25 -159 136.25 -162 136 C-162.33 135.01 -162.66 134.02 -163 133 C-163.66 133 -164.32 133 -165 133 C-165.21 130.49 -165.27 128.08 -165.26 125.56 C-165.26 124.77 -165.27 123.98 -165.27 123.17 C-165.28 120.54 -165.27 117.91 -165.27 115.28 C-165.27 113.47 -165.27 111.65 -165.27 109.83 C-165.27 106.02 -165.27 102.21 -165.26 98.39 C-165.25 93.49 -165.26 88.59 -165.27 83.68 C-165.28 79.93 -165.27 76.18 -165.27 72.43 C-165.27 70.62 -165.27 68.81 -165.27 67 C-165.28 64.48 -165.27 61.96 -165.26 59.44 C-165.26 58.68 -165.27 57.92 -165.27 57.14 C-165.26 55.42 -165.14 53.71 -165 52 C-164.34 52 -163.68 52 -163 52 C-162.67 51.01 -162.34 50.02 -162 49 C-159.35 47.61 -159.35 47.61 -156.06 46.31 C-154.98 45.88 -153.9 45.44 -152.79 44.99 C-150 44 -150 44 -148 44 C-148 43.01 -148 42.02 -148 41 C-146.68 41 -145.36 41 -144 41 C-144 40.34 -144 39.68 -144 39 C-141.6 37.68 -139.24 36.51 -136.75 35.38 C-136.07 35.05 -135.39 34.73 -134.68 34.39 C-131.16 32.76 -128.94 32 -125 32 C-125 31.34 -125 30.68 -125 30 C-122.42 29.34 -119.82 28.97 -117.19 28.56 C-116.47 28.38 -115.74 28.19 -115 28 C-115 27.34 -115 26.68 -115 26 C-113.4 25.03 -113.4 25.03 -111.16 24.01 C-110.34 23.63 -109.53 23.26 -108.69 22.87 C-107.82 22.48 -106.95 22.09 -106.06 21.69 C-100.25 19.04 -94.57 16.3 -89.01 13.14 C-82.68 9.56 -75.94 6.01 -68.77 4.54 C-68.47 4.45 -68.47 4.45 -67 4 C-67 3.34 -67 2.68 -67 2 C-60.35 -1.04 -54.24 -2.28 -47 -2 C-47 -2.66 -47 -3.32 -47 -4 C-31.51 -7.11 -14.92 -4.71 0 0 Z " fill="#0570F9" transform="translate(367,30)"/>
<path d="M0 0 C2.12 2.09 2.92 3.46 3.37 6.41 C3.37 7.31 3.37 8.22 3.36 9.15 C3.37 9.67 3.37 9.67 3.38 12.32 C3.37 13.46 3.36 14.61 3.35 15.79 C3.35 17.01 3.35 18.23 3.35 19.49 C3.35 22.88 3.34 26.27 3.32 29.66 C3.3 33.31 3.3 36.97 3.3 40.62 C3.3 46.95 3.28 53.28 3.26 59.61 C3.22 68.76 3.21 77.92 3.2 87.07 C3.18 101.92 3.15 116.77 3.12 131.62 C3.11 132.51 3.11 133.4 3.11 134.31 C3.1 137.92 3.09 141.52 3.08 145.12 C3.06 155.05 3.04 164.97 3.01 174.9 C3.01 175.79 3.01 176.68 3.01 177.59 C2.98 192.39 2.95 207.19 2.93 221.99 C2.92 231.13 2.9 240.26 2.87 249.4 C2.85 255.65 2.84 261.9 2.83 268.16 C2.83 271.77 2.82 275.38 2.8 279 C2.78 282.9 2.78 286.81 2.78 290.71 C2.78 291.29 2.78 291.29 2.76 294.22 C2.76 294.74 2.76 294.74 2.76 297.36 C2.76 297.81 2.76 297.81 2.76 300.09 C2.84 300.72 2.92 301.35 3 302 C3.66 302 4.32 302 5 302 C8 308.12 8 308.12 8 312 C8.6 312.14 9.2 312.29 9.81 312.44 C12 313 12 313 13.25 314.81 C15.46 317.57 17.7 318.48 20.86 319.95 C22.85 320.93 24.6 322.01 26.44 323.25 C31.29 326.38 36.55 328.64 41.78 331.05 C46.16 333.08 50.21 335.26 54.22 337.98 C57.07 339.62 60.15 340.45 63.31 341.32 C63.59 341.44 63.59 341.44 65 342 C65 342.66 65 343.32 65 344 C66.98 344.73 68.98 345.38 71 346 C86.1 352.07 86.1 352.07 92 356 C92 356.66 92 357.32 92 358 C93.66 358.37 95.33 358.69 97 359 C98.61 359.45 100.22 359.93 101.81 360.44 C102.6 360.68 103.39 360.93 104.21 361.18 C104.5 361.32 104.5 361.32 106 362 C106 362.66 106 363.32 106 364 C106.76 364.14 107.53 364.29 108.31 364.44 C111.36 365.08 111.91 365.83 114 368 C115.65 368.7 117.32 369.36 119 370 C133.28 375.89 133.28 375.89 138 381 C138.94 384.06 138.94 384.06 138 387 C133.27 391.49 127.27 393.86 121.33 396.41 C117.43 398.13 114.96 399.99 112 403 C109.34 404.23 109.34 404.23 106.5 405.19 C105.56 405.51 104.62 405.83 103.66 406.17 C101 407 101 407 98.66 407.49 C98.11 407.66 97.56 407.83 97 408 C97 408.66 97 409.32 97 410 C95.5 410.96 95.5 410.96 93.44 411.94 C92.71 412.29 91.98 412.63 91.22 412.99 C88.17 414.38 85.08 415.69 82 417 C76.14 419.71 76.14 419.71 75 422 C72.94 422.88 70.85 423.68 68.75 424.44 C62.43 426.72 62.43 426.72 59.5 428.63 C56.26 430.4 53.86 430.43 50.19 430.44 C49.61 430.45 49.61 430.45 46.67 430.5 C42.12 429.88 38.97 428.2 35 426 C33.71 425.35 32.41 424.71 31.11 424.07 C29.8 423.42 28.49 422.77 27.19 422.12 C26.49 421.78 25.8 421.43 25.08 421.08 C21.07 419.08 17.14 416.98 13.25 414.75 C8.59 412.15 3.87 410.58 -1.21 409 C-4.54 407.81 -7.22 406.2 -10.13 404.23 C-12.7 402.54 -15.42 401.24 -18.19 399.91 C-20 399 -20 399 -22.62 397.38 C-25 396 -25 396 -28.31 394.94 C-29.2 394.63 -30.09 394.32 -31 394 C-31 393.34 -31 392.68 -31 392 C-33.25 391.44 -33.25 391.44 -36 391 C-38.31 390.56 -38.31 390.56 -40 390 C-40 389.34 -40 388.68 -40 388 C-41.32 388 -42.64 388 -44 388 C-44 387.34 -44 386.68 -44 386 C-45.98 385.29 -47.99 384.63 -50 384 C-52 383.06 -53.98 382.08 -55.94 381.06 C-60.24 378.87 -64.54 376.86 -69 375 C-72.45 373.52 -74.35 371.65 -77 369 C-78.23 368.16 -79.46 367.33 -80.69 366.5 C-86.34 362.36 -90 356.67 -94 351 C-94.27 350.65 -94.27 350.65 -95.61 348.88 C-99.57 343.64 -101 339.48 -101 333 C-101.66 333 -102.32 333 -103 333 C-104.02 326.58 -104.15 320.24 -104.14 313.75 C-104.14 313.25 -104.14 313.25 -104.15 310.74 C-104.16 307.42 -104.16 304.11 -104.16 300.8 C-104.17 298.42 -104.17 296.04 -104.18 293.65 C-104.19 287.2 -104.2 280.74 -104.2 274.28 C-104.2 270.24 -104.21 266.2 -104.21 262.16 C-104.22 250.95 -104.23 239.75 -104.24 228.55 C-104.24 228.19 -104.24 228.19 -104.24 226.38 C-104.24 225.66 -104.24 224.94 -104.24 224.2 C-104.24 222.75 -104.24 221.3 -104.24 219.84 C-104.24 219.12 -104.24 218.4 -104.24 217.66 C-104.24 205.98 -104.26 194.31 -104.29 182.63 C-104.31 170.62 -104.32 158.61 -104.32 146.6 C-104.32 139.86 -104.33 133.13 -104.35 126.39 C-104.36 120.06 -104.37 113.72 -104.36 107.38 C-104.36 105.06 -104.36 102.75 -104.37 100.43 C-104.49 71.23 -104.49 71.23 -98 60 C-97.34 60 -96.68 60 -96 60 C-95.63 58.68 -95.31 57.34 -95 56 C-91.93 48.18 -91.93 48.18 -89 45 C-88.34 45 -87.68 45 -87 45 C-87 44.01 -87 43.02 -87 42 C-83.62 38.17 -79.78 35.72 -75 34 C-74.05 33.36 -73.1 32.72 -72.12 32.06 C-68 29.34 -63.69 27.61 -59.06 25.94 C-58.38 25.63 -57.7 25.32 -57 25 C-57 24.34 -57 23.68 -57 23 C-55.1 22.29 -53.2 21.58 -51.29 20.92 C-48.96 19.98 -47.03 18.86 -44.94 17.5 C-38.3 13.19 -30.51 10.12 -22.73 8.54 C-22.16 8.36 -21.59 8.18 -21 8 C-21 7.34 -21 6.68 -21 6 C-19.17 5.25 -19.17 5.25 -16.75 4.56 C-13.96 3.71 -12.21 3.17 -9.94 1.31 C-6.63 -0.93 -3.92 -0.44 0 0 Z " fill="#042B65" transform="translate(145,100)"/>
<path d="M0 0 C0.46 0.28 0.46 0.28 2.77 1.69 C10.82 6.65 10.82 6.65 12 9 C12.37 9.1 12.37 9.1 14.25 9.62 C19.12 12.06 21.08 17.03 23.31 21.81 C24 24 24 24 24 27 C24.66 27 25.32 27 26 27 C28.44 32.23 28.28 37.34 28.24 42.98 C28.24 43.97 28.25 44.96 28.25 45.98 C28.25 49.24 28.24 52.5 28.23 55.76 C28.23 58.03 28.23 60.3 28.23 62.56 C28.23 67.31 28.22 72.06 28.21 76.81 C28.19 82.9 28.18 88.99 28.19 95.08 C28.19 99.77 28.18 104.45 28.17 109.13 C28.17 111.38 28.17 113.62 28.17 115.87 C28.16 119.01 28.16 122.14 28.15 125.28 C28.15 125.74 28.15 125.74 28.15 128.1 C28.14 128.95 28.14 129.81 28.13 130.69 C28.13 131.43 28.13 132.17 28.13 132.93 C27.99 135.09 27.73 136.96 27 139 C26.34 139 25.68 139 25 139 C24.48 140.69 24.48 140.69 24 143 C21.98 149.17 20.39 153.15 15 157 C14.11 158.14 13.26 159.31 12.44 160.5 C6.27 168.94 -0.71 177.05 -10.89 180.28 C-13.76 181.26 -15.67 183.1 -18 185 C-20.02 185.83 -22.05 186.54 -24.13 187.19 C-26 188 -26 188 -27.49 189.59 C-29 191 -29 191 -33 191 C-33 191.66 -33 192.32 -33 193 C-35.66 194.08 -38.29 195.07 -41 196 C-44 197.06 -44 197.06 -46 198 C-46 198.66 -46 199.32 -46 200 C-47.64 201.25 -47.64 201.25 -49.81 202.56 C-50.52 203 -51.23 203.43 -51.96 203.88 C-54 205 -54 205 -57 206 C-57.33 206.66 -57.66 207.32 -58 208 C-59.71 208.89 -59.71 208.89 -61.94 209.81 C-65.38 211.28 -68.73 212.85 -72.06 214.56 C-74.94 216.03 -77.76 217.33 -80.81 218.38 C-87.25 220.66 -95.16 224.16 -100 229 C-103.28 230.32 -106.6 231.5 -109.93 232.68 C-112.78 233.9 -113.94 234.84 -116 237 C-116.99 237 -117.98 237 -119 237 C-119 237.66 -119 238.32 -119 239 C-120.84 239.89 -120.84 239.89 -123.38 240.81 C-128.04 242.58 -132.44 244.65 -136.87 246.95 C-139 248 -139 248 -142 249 C-142 249.66 -142 250.32 -142 251 C-145.37 253.13 -148.6 254.83 -152.28 256.38 C-156.13 258.01 -159.77 259.94 -163.44 261.94 C-164.75 262.65 -166.07 263.35 -167.39 264.06 C-168.01 264.4 -168.64 264.73 -169.28 265.08 C-178.11 269.81 -178.11 269.81 -181.21 270.47 C-181.8 270.65 -182.39 270.82 -183 271 C-183 271.66 -183 272.32 -183 273 C-185.59 274.61 -186.89 275 -190 275 C-190 275.66 -190 276.32 -190 277 C-192.74 278.25 -192.74 278.25 -196.31 279.56 C-197.48 280 -198.66 280.43 -199.86 280.88 C-201.9 281.61 -203.95 282.32 -206 283 C-206 283.66 -206 284.32 -206 285 C-208.59 285.6 -211.12 286.09 -213.75 286.5 C-221.55 287.75 -221.55 287.75 -223.89 289.03 C-226.57 290.26 -228.64 290.26 -231.59 290.27 C-232.68 290.27 -233.76 290.27 -234.89 290.28 C-235.46 290.27 -235.46 290.27 -238.38 290.25 C-239.55 290.24 -240.72 290.24 -241.93 290.23 C-257.19 290.05 -268.41 287.79 -281.66 280.23 C-284.92 278.51 -288.3 277.2 -291.74 275.89 C-293.92 275.03 -295.98 274.2 -298 273 C-298 272.34 -298 271.68 -298 271 C-299.97 270.26 -301.98 269.61 -304 269 C-309.59 267.17 -314.68 264.72 -319.88 262 C-320.54 261.66 -321.21 261.31 -321.9 260.96 C-325.15 259.22 -326.92 258.12 -329 255 C-329.31 252.5 -329.31 252.5 -329 250 C-325.04 245.31 -318.98 243.35 -313.38 241.25 C-308.33 239.3 -303.82 236.62 -299.2 233.86 C-294.87 231.34 -290.77 229.74 -285.89 228.67 C-284 228 -284 228 -282 225 C-279.69 223.83 -279.69 223.83 -277 222.81 C-276.56 222.64 -276.56 222.64 -274.31 221.77 C-272 221 -272 221 -270 221 C-270 220.34 -270 219.68 -270 219 C-269.61 218.86 -269.61 218.86 -267.62 218.12 C-265 217 -265 217 -264.07 215.01 C-263 213 -263 213 -259.31 211.75 C-258.51 211.52 -257.72 211.29 -256.89 211.05 C-253.21 209.71 -249.92 207.9 -246.5 206 C-242.26 203.65 -238.22 201.55 -233.56 200.12 C-232.39 199.75 -231.21 199.38 -230 199 C-230 198.34 -230 197.68 -230 197 C-227.35 195.56 -224.73 194.26 -222 193 C-221.2 192.63 -220.41 192.25 -219.59 191.87 C-216.25 190.29 -212.89 188.73 -209.54 187.18 C-208.72 186.8 -207.91 186.42 -207.07 186.02 C-206.7 185.85 -206.7 185.85 -204.84 184.99 C-203 184 -203 184 -201 182 C-199.34 181.31 -197.67 180.65 -196 180 C-190.33 177.33 -190.33 177.33 -188 175 C-186.41 174.33 -184.81 173.71 -183.19 173.12 C-180.02 171.91 -177.97 170.98 -175.31 168.81 C-172.31 166.46 -169.72 166.5 -166 166 C-165.67 165.01 -165.34 164.02 -165 163 C-162.4 161.35 -161.14 161 -158 161 C-158 160.34 -158 159.68 -158 159 C-156.19 158.34 -154.37 157.68 -152.54 157.05 C-149.52 155.8 -146.86 154.2 -144.06 152.5 C-139.73 149.89 -135.73 147.98 -130.84 146.7 C-129 146 -129 146 -127.5 144.42 C-126 143 -126 143 -122 143 C-122 142.01 -122 141.02 -122 140 C-120.14 139.09 -120.14 139.09 -117.69 138.38 C-116.89 138.14 -116.09 137.9 -115.26 137.65 C-114.89 137.54 -114.89 137.54 -113 137 C-112.01 136.67 -111.02 136.34 -110 136 C-109.67 135.01 -109.34 134.02 -109 133 C-105.71 130.81 -104.74 131 -101 131 C-101 130.34 -101 129.68 -101 129 C-98.67 127.98 -96.34 126.99 -94 126 C-93.67 125.34 -93.34 124.68 -93 124 C-89.62 122.38 -86.74 121.14 -83.06 120.44 C-82.72 120.37 -82.72 120.37 -81 120 C-81 119.34 -81 118.68 -81 118 C-79.21 116.92 -79.21 116.92 -76.81 115.75 C-68.54 111.3 -64.54 104.09 -61.9 95.35 C-60.78 90.66 -60.74 86.11 -60.81 81.31 C-60.81 80.48 -60.81 79.66 -60.81 78.8 C-60.87 70.52 -60.87 70.52 -62 67 C-62.66 67 -63.32 67 -64 67 C-64.29 65.93 -64.58 64.86 -64.88 63.75 C-66.04 59.85 -67.12 58.69 -70 56 C-70 55.01 -70 54.02 -70 53 C-71.64 52.79 -73.29 52.6 -74.94 52.44 C-78.1 51.77 -80.36 50 -83 48.2 C-84.99 47 -86.69 46.38 -88.94 45.81 C-89.95 45.54 -90.96 45.28 -92 45 C-93.11 42.77 -93.16 41.47 -93.19 39 C-93.2 38.3 -93.22 37.6 -93.23 36.88 C-93 35 -93 35 -91 33 C-89 32.33 -87 31.67 -85 31 C-84.26 30.54 -83.52 30.07 -82.75 29.59 C-78.42 27.09 -73.72 25.76 -68.98 24.18 C-66 23 -66 23 -65 21 C-63.02 19.96 -61.02 18.97 -59 18 C-58.13 17.44 -57.27 16.89 -56.38 16.31 C-54 15 -54 15 -50 15 C-49.67 14.01 -49.34 13.02 -49 12 C-46.52 10.54 -46.52 10.54 -43.38 9.06 C-39.82 7.37 -36.36 5.68 -33 3.62 C-30 2 -30 2 -26 2 C-25.67 1.01 -25.34 0.02 -25 -1 C-17.18 -4.3 -7.2 -4.75 0 0 Z " fill="#08C3C5" transform="translate(570,301)"/>
<path d="M0 0 C4.87 1.07 8.54 2.07 11.95 5.82 C20.66 21.14 18.44 43.57 18.04 60.64 C17.9 66.41 17.89 72.17 17.96 77.94 C17.96 78.76 17.97 79.58 17.98 80.42 C18 82.09 18.02 83.75 18.04 85.41 C18.22 101.03 18.03 116.64 17.71 132.26 C17.45 145.69 17.5 159.08 17.79 172.51 C18.12 188.07 18.25 203.62 18.07 219.18 C18.05 220.84 18.03 222.5 18.01 224.15 C18 224.97 17.99 225.78 17.98 226.62 C17.93 232.39 18.03 238.15 18.17 243.91 C19.2 288.47 19.2 288.47 9.89 298.55 C-6.58 307.58 -31.1 302.46 -48.61 299.34 C-51.11 298.55 -51.11 298.55 -53.11 295.55 C-53.36 293.33 -53.36 293.33 -53.37 290.67 C-53.37 290.17 -53.37 290.17 -53.38 287.61 C-53.38 286.5 -53.38 285.38 -53.37 284.24 C-53.38 283.05 -53.38 281.87 -53.38 280.66 C-53.39 277.38 -53.39 274.09 -53.39 270.81 C-53.39 267.27 -53.4 263.73 -53.4 260.2 C-53.42 253.26 -53.42 246.33 -53.41 239.4 C-53.41 233.77 -53.41 228.13 -53.42 222.5 C-53.42 221.7 -53.42 220.9 -53.42 220.07 C-53.42 218.45 -53.42 216.82 -53.42 215.19 C-53.44 199.93 -53.43 184.66 -53.43 169.4 C-53.42 155.43 -53.43 141.45 -53.45 127.47 C-53.47 113.14 -53.48 98.8 -53.48 84.46 C-53.47 76.4 -53.48 68.35 -53.49 60.29 C-53.5 53.44 -53.5 46.58 -53.49 39.73 C-53.49 36.23 -53.49 32.73 -53.5 29.23 C-53.51 25.44 -53.5 21.65 -53.49 17.86 C-53.49 16.75 -53.5 15.63 -53.51 14.48 C-53.5 13.47 -53.49 12.46 -53.49 11.42 C-53.49 10.55 -53.49 9.67 -53.49 8.77 C-53.11 6.55 -53.11 6.55 -51.95 4.83 C-40.31 -3.3 -13.68 -1.82 0 0 Z " fill="#022A65" transform="translate(782.1125434041023,153.45252466201782)"/>
<path d="M0 0 C1.2 -0.01 2.4 -0.01 3.64 -0.02 C4.94 -0.01 6.23 -0 7.57 0.01 C8.91 0.01 10.25 0.01 11.59 0.01 C14.4 0.01 17.21 0.02 20.01 0.04 C23.62 0.06 27.23 0.06 30.84 0.05 C33.6 0.05 36.37 0.06 39.14 0.07 C41.12 0.07 43.1 0.07 45.08 0.07 C46.27 0.08 47.46 0.09 48.69 0.1 C49.75 0.1 50.81 0.11 51.89 0.11 C52.27 0.15 52.27 0.15 54.15 0.37 C54.15 1.03 54.15 1.69 54.15 2.37 C51.92 2.59 51.92 2.59 48.75 2.55 C47.57 2.54 46.4 2.53 45.18 2.52 C43.89 2.5 42.61 2.48 41.28 2.46 C39.28 2.45 37.29 2.43 35.29 2.42 C30.34 2.38 25.39 2.32 20.43 2.26 C17.66 2.22 14.89 2.2 12.12 2.18 C9.5 2.16 6.88 2.13 4.26 2.08 C3.08 2.08 1.9 2.07 0.68 2.06 C0.16 2.06 0.16 2.06 -2.49 2.03 C-3.27 2.14 -4.05 2.25 -4.85 2.37 C-5.81 5.25 -6.03 7.26 -6.14 10.25 C-6.18 11.27 -6.22 12.28 -6.26 13.32 C-6.3 14.44 -6.33 15.56 -6.37 16.7 C-6.42 17.89 -6.46 19.07 -6.5 20.29 C-6.62 23.58 -6.73 26.87 -6.84 30.15 C-6.91 32.26 -6.99 34.36 -7.06 36.46 C-7.97 62.99 -8.55 89.53 -9 116.07 C-9.07 120.41 -9.14 124.74 -9.22 129.07 C-9.23 129.94 -9.25 130.8 -9.27 131.69 C-9.52 145.69 -9.99 159.68 -10.53 173.68 C-11.09 188.03 -11.42 202.38 -11.53 216.74 C-11.61 224.82 -11.79 232.87 -12.22 240.94 C-14.3 280.35 -14.3 280.35 -7.84 292.16 C-2.85 297.7 4.85 298.08 11.91 298.49 C25.32 298.94 38.76 297.09 51.91 294.68 C52.28 294.63 52.28 294.63 54.15 294.37 C54.15 294.7 54.15 295.03 54.15 295.37 C52.3 295.49 50.44 295.52 48.58 295.53 C47.37 295.54 46.15 295.55 44.9 295.56 C43.56 295.57 42.22 295.57 40.88 295.58 C39.52 295.58 38.15 295.59 36.79 295.59 C33.93 295.6 31.06 295.61 28.2 295.61 C24.52 295.62 20.85 295.64 17.18 295.67 C14.36 295.69 11.54 295.69 8.72 295.7 C7.37 295.7 6.01 295.71 4.66 295.72 C2.77 295.74 0.87 295.73 -1.02 295.73 C-2.1 295.73 -3.18 295.74 -4.29 295.74 C-5.14 295.62 -5.98 295.5 -6.85 295.37 C-9.01 292.13 -9.1 291.25 -9.1 287.5 C-9.11 286.99 -9.11 286.99 -9.12 284.44 C-9.12 283.32 -9.11 282.21 -9.11 281.06 C-9.11 279.88 -9.12 278.7 -9.12 277.48 C-9.13 274.2 -9.13 270.92 -9.12 267.64 C-9.12 264.1 -9.13 260.56 -9.14 257.02 C-9.15 250.09 -9.15 243.16 -9.15 236.22 C-9.15 230.59 -9.15 224.96 -9.15 219.32 C-9.16 218.52 -9.16 217.72 -9.16 216.9 C-9.16 215.27 -9.16 213.64 -9.16 212.02 C-9.17 196.75 -9.17 181.49 -9.16 166.23 C-9.16 152.25 -9.17 138.27 -9.19 124.3 C-9.21 109.96 -9.22 95.62 -9.21 81.28 C-9.21 73.23 -9.21 65.17 -9.23 57.12 C-9.24 50.26 -9.24 43.41 -9.23 36.55 C-9.22 33.05 -9.22 29.55 -9.23 26.05 C-9.24 22.26 -9.24 18.47 -9.22 14.68 C-9.23 13.57 -9.24 12.46 -9.24 11.31 C-9.24 10.3 -9.23 9.29 -9.22 8.25 C-9.22 7.37 -9.22 6.5 -9.22 5.59 C-8.32 0.24 -4.79 -0 0 0 Z " fill="#516284" transform="translate(737.848388671875,156.627685546875)"/>
</svg>
